<svg xmlns="http://www.w3.org/2000/svg" width="45" height="30.013" viewBox="0 0 45 30.013">
  <path id="Icon_ionic-ios-arrow-round-back" data-name="Icon ionic-ios-arrow-round-back" d="M24.185,11.826A2.042,2.042,0,0,1,24.2,14.7l-9.488,9.519H50.866a2.032,2.032,0,0,1,0,4.064H14.713l9.5,9.519A2.057,2.057,0,0,1,24.2,40.68a2.024,2.024,0,0,1-2.86-.016L8.46,27.691h0a2.282,2.282,0,0,1-.422-.641,1.939,1.939,0,0,1-.156-.782,2.037,2.037,0,0,1,.578-1.422L21.34,11.873A1.991,1.991,0,0,1,24.185,11.826Z" transform="translate(-7.882 -11.252)" fill="#fff"/>
</svg>
