<svg id="Group_1059" data-name="Group 1059" xmlns="http://www.w3.org/2000/svg" xmlns:xlink="http://www.w3.org/1999/xlink" width="21.089" height="21.998" viewBox="0 0 21.089 21.998">
  <defs>
    <clipPath id="clip-path">
      <rect id="Rectangle_864" data-name="Rectangle 864" width="21.089" height="21.998" transform="translate(0 0)" fill="none"/>
    </clipPath>
  </defs>
  <g id="Group_1058" data-name="Group 1058" transform="translate(0 0)" clip-path="url(#clip-path)">
    <path id="Path_358" data-name="Path 358" d="M3.384,18.272a7.61,7.61,0,0,0-.232-1.656.943.943,0,0,0-.523-.529c-.341-.182-.709-.31-1.058-.476a3.211,3.211,0,0,1-1.312-.885,1.476,1.476,0,0,1-.1-1.5,12.043,12.043,0,0,1,.888-1.551,1.333,1.333,0,0,0,.012-1.4,15.448,15.448,0,0,1-.882-1.55A1.475,1.475,0,0,1,.728,6.781a12.548,12.548,0,0,1,1.736-.814,1.239,1.239,0,0,0,.815-1.115A16.007,16.007,0,0,1,3.447,3.24a1.7,1.7,0,0,1,.488-1.033A1.769,1.769,0,0,1,5.6,1.855c.531.121,1.055.279,1.6.349a1.363,1.363,0,0,0,1.252-.6A8.476,8.476,0,0,1,9.644.344,1.5,1.5,0,0,1,11.785.6a10.793,10.793,0,0,0,1.454,1.5.5.5,0,0,0,.289.1,4.831,4.831,0,0,0,1.183-.137A4.9,4.9,0,0,1,16.2,1.822a1.364,1.364,0,0,1,1.21.7,2.385,2.385,0,0,1,.3.981,14.979,14.979,0,0,0,.2,1.717.953.953,0,0,0,.577.7c.5.257,1.044.418,1.538.679a1.538,1.538,0,0,1,.858,2.264c-.245.54-.58,1.022-.871,1.531a1.2,1.2,0,0,0,0,1.272,12.776,12.776,0,0,1,.923,1.643,1.425,1.425,0,0,1-.505,1.843,7.435,7.435,0,0,1-1.429.7,2.436,2.436,0,0,0-.948.594,1.264,1.264,0,0,0-.217.668c-.076.426-.072.866-.129,1.3a2.036,2.036,0,0,1-.569,1.377,1.754,1.754,0,0,1-1.639.356,14.89,14.89,0,0,0-1.788-.362.987.987,0,0,0-.838.367c-.378.392-.727.813-1.1,1.21a1.663,1.663,0,0,1-1.5.62,1.554,1.554,0,0,1-.682-.334A7.034,7.034,0,0,1,8.5,20.5a4.31,4.31,0,0,0-.681-.635.425.425,0,0,0-.246-.079,4.827,4.827,0,0,0-1.289.157,4.712,4.712,0,0,1-1.462.221,1.349,1.349,0,0,1-1.163-.745,2.171,2.171,0,0,1-.273-1.147m5.8-4a.8.8,0,0,1,.11-.028c.414-.053.65-.375.911-.636,1-1,1.986-2.013,2.978-3.021.586-.6,1.17-1.194,1.765-1.781.089-.088.089-.132.011-.209q-.531-.518-1.06-1.038c-.043-.042-.078-.087-.151-.015-.437.433-.9.838-1.317,1.292-.533.584-1.11,1.124-1.669,1.68-.473.471-.937.953-1.416,1.418-.2.19-.251.134-.381,0-.541-.542-1.09-1.075-1.62-1.628-.161-.168-.264-.142-.4,0-.271.281-.537.569-.827.831-.185.167-.157.285,0,.441.8.793,1.584,1.595,2.385,2.383a1.081,1.081,0,0,0,.684.306" transform="translate(0 0.001)" fill="#fff"/>
  </g>
</svg>
