<svg xmlns="http://www.w3.org/2000/svg" xmlns:xlink="http://www.w3.org/1999/xlink" width="72" height="72" viewBox="0 0 72 72">
  <defs>
    <filter id="Ellipse_6" x="0" y="0" width="72" height="72" filterUnits="userSpaceOnUse">
      <feOffset dy="6" input="SourceAlpha"/>
      <feGaussianBlur stdDeviation="5" result="blur"/>
      <feFlood flood-opacity="0.161"/>
      <feComposite operator="in" in2="blur"/>
      <feComposite in="SourceGraphic"/>
    </filter>
  </defs>
  <g id="Group_241" data-name="Group 241" transform="translate(-225.5 -566.004)">
    <g transform="matrix(1, 0, 0, 1, 225.5, 566)" filter="url(#Ellipse_6)">
      <g id="Ellipse_6-2" data-name="Ellipse 6" transform="translate(15 9)" fill="#f4f4f4" stroke="#e5dede" stroke-width="1" opacity="0.339">
        <circle cx="21" cy="21" r="21" stroke="none"/>
        <circle cx="21" cy="21" r="20.5" fill="none"/>
      </g>
    </g>
    <g id="Group_235" data-name="Group 235" transform="translate(251.5 584)">
      <path id="Path_145" data-name="Path 145" d="M115.894,68.338c-.15-.563-.25-.875-.25-.875-.163-.581-.575-.581-1.188-.681l-3.319-.419c-.413-.069-.413-.069-.575-.425-.544-1.225-.713-1.938-1.306-1.938h-6.438c-.594,0-.756.713-1.3,1.944-.163.35-.163.35-.575.425l-3.325.419c-.606.1-1.044.156-1.206.738,0,0-.075.256-.231.813-.2.744-.281.663.406.663h18.9C116.175,69.007,116.1,69.082,115.894,68.338Z" transform="translate(-96.038 -64)" fill="#c95151"/>
      <path id="Path_146" data-name="Path 146" d="M132.384,176H116.958c-1.038,0-1.088.137-1.025.919l1.169,15.164c.1.769.175.925,1.094.925h12.951c.919,0,.994-.156,1.094-.925l1.169-15.164C133.472,176.131,133.422,176,132.384,176Z" transform="translate(-114.672 -168.999)" fill="#c95151"/>
    </g>
  </g>
</svg>
