<?xml version="1.0" encoding="UTF-8"?><svg id="Layer_2" xmlns="http://www.w3.org/2000/svg" viewBox="0 0 158.2 44"><defs><style>.cls-1,.cls-2,.cls-3{fill:#fdfdfd;}.cls-2{stroke:#fdfdfd;stroke-width:.08px;}.cls-2,.cls-3{stroke-miterlimit:10;}.cls-3{stroke:#ffc500;stroke-width:.32px;}</style></defs><g id="Layer_1-2"><path class="cls-3" d="m2.16,11.03c.97.75,1.94,1.08,2.91.99.09-.04.42-.04.99,0,.44,0,1.1.04,1.99.13,1.81.09,3.68.22,5.62.4l1.52-.26h.07v.07c.48.53,1.08,1.06,1.79,1.59.31.22.46.38.46.46.04.04.04.26,0,.66,0,.13-.09.51-.26,1.13-.04.13-.13.44-.26.93-.13.4-.22.73-.26.99-.22.88-.4,1.54-.53,1.99-.13.66-.18,1.1-.13,1.32v.33c.13.04.24.13.33.26.13.09.26.24.4.46.31.44.51.82.6,1.13.09.31.09.57,0,.79-.09.22-.24.38-.46.46-.13.09-.42.11-.86.07-.04,2.78-.07,4.37-.07,4.76v1.92c0,.53.02.86.07.99.18.79.29,1.46.33,1.99.04.44.07.79.07,1.06,0,.31-.07.53-.2.66-.35.44-.55.68-.6.73-.13.09-.26.13-.4.13-.18-.04-.33-.15-.46-.33-.35-.35-.82-1.01-1.39-1.99-.26-.4-.49-.77-.66-1.12-.22-.35-.35-.6-.4-.73v-.33c0-.09.04-.15.13-.2.13-.18.2-.35.2-.53.09-.62.29-2.14.6-4.57,0-.26.02-1.23.07-2.91-.84-.09-2.32.22-4.43.93v.13c-1.46,4.15-2.6,7.01-3.44,8.6-.53,1.06-1.06,1.81-1.59,2.25-.53.53-1.08.73-1.65.6-.62-.22-1.06-.53-1.32-.93-.13-.22-.2-.42-.2-.6v-.07c.75-.93,1.5-2.14,2.25-3.64,1.06-2.12,2.03-4.3,2.91-6.55-.71-.88-.77-1.74-.2-2.58.09-.22.31-.42.66-.6h.2v-.07c.35-.09.73-.13,1.12-.13h.07c.57.31,1.3.44,2.18.4,1.94-.09,3.07-.13,3.37-.13h.13c.04-1.06.07-1.83.07-2.32v-1.32c-.04-.18.04-.73.26-1.65.13-.88.22-1.57.26-2.05-.18.04-.35.07-.53.07-1.32,0-2.78.07-4.37.2-2.03.13-3.37.38-4.04.73-.22.09-.44.09-.66,0-.18-.04-.38-.15-.6-.33-.31-.31-.62-.79-.93-1.46-.26-.57-.49-1.15-.66-1.72-.09-.26-.16-.48-.2-.66v-.46h.07l.07-.07Z"/><path class="cls-3" d="m15.26,37.71h-.07l-.06-.02c-.29-.07-.54-.24-.74-.5-.38-.39-.85-1.06-1.44-2.05-.27-.41-.5-.79-.68-1.15-.31-.5-.4-.7-.44-.82l-.03-.08v-.42c0-.23.1-.45.29-.59.03-.04.05-.09.05-.14v-.08c.09-.61.29-2.13.6-4.52,0-.34.03-1.36.05-2.34-.62.04-1.67.24-3.4.8-1.44,4.09-2.6,6.98-3.44,8.57-.56,1.12-1.12,1.9-1.7,2.4-.83.81-1.62.84-2.14.72l-.06-.02c-.73-.26-1.26-.64-1.59-1.14v-.02c-.2-.3-.29-.6-.29-.87v-.26l.12-.15c.72-.89,1.46-2.08,2.19-3.54,1-2,1.94-4.09,2.78-6.23-.83-1.21-.51-2.24-.06-2.92.14-.3.4-.55.8-.77v-.06l.41-.1c.39-.1.82-.15,1.26-.15h.2l.12.06c.48.26,1.12.37,1.9.33,1.5-.07,2.48-.11,3.01-.12.03-.81.05-1.4.05-1.78v-1.27c-.03-.21-.01-.6.27-1.81.08-.51.14-.96.19-1.34-1.28,0-2.71.07-4.24.2-2.43.16-3.42.45-3.83.67l-.05.02c-.34.14-.69.14-1.03.01-.24-.07-.5-.21-.77-.42l-.04-.04c-.36-.36-.7-.88-1.04-1.61-.28-.6-.51-1.2-.69-1.79-.09-.27-.16-.5-.21-.69l-.02-.06v-1.07h.38l.24-.25.38.29c.85.65,1.66.94,2.47.89.18-.05.47-.06,1.12,0,.46,0,1.11.05,2,.13,1.78.09,3.65.22,5.56.39l1.54-.26h.61v.39c.43.45.96.91,1.57,1.37.35.25.58.46.65.71.08.19.07.46.03.88,0,.14-.04.39-.28,1.24v.02c-.05.12-.13.42-.26.9v.03c-.13.37-.21.68-.25.91v.04c-.23.9-.41,1.55-.54,1.98-.16.82-.14,1.05-.13,1.09v.13c.07.05.13.12.19.18.16.13.32.31.46.55.34.49.56.9.66,1.27.12.43.12.81-.02,1.14-.14.34-.39.6-.72.75-.15.08-.33.13-.57.14-.05,2.98-.06,3.94-.06,4.2v1.92c0,.66.04.81.04.83v.05c.19.82.31,1.51.36,2.06.05.46.07.83.07,1.1,0,.44-.11.78-.33,1.02-.54.67-.58.72-.62.75l-.08.07c-.22.15-.46.22-.7.22Zm-2.37-4.82c.04.08.12.24.31.55l.03.05c.16.32.37.68.63,1.07l.02.03c.55.93.99,1.56,1.31,1.88l.05.06s.06.07.09.09c.06-.07.2-.25.51-.63l.04-.04h0s.04-.07.04-.28c0-.24-.02-.57-.06-1.01-.04-.5-.15-1.14-.32-1.9-.04-.15-.08-.41-.08-1.13v-1.92c0-.41.02-2.06.07-4.77v-.59s.6.06.6.06c.35.04.49.01.53,0h.02s.05-.04.05-.04c.08-.03.13-.08.16-.16.05-.13.02-.31-.02-.44-.05-.17-.18-.48-.52-.96l-.02-.03c-.13-.21-.21-.28-.23-.29l-.09-.06-.06-.09s-.04-.05-.05-.05l-.37-.12v-.67c-.03-.21-.03-.59.14-1.48v-.05c.14-.42.31-1.05.53-1.94.05-.28.14-.62.28-1.04.14-.5.22-.78.27-.93.22-.77.24-.95.24-.97v-.05c.02-.17.03-.28.03-.35l-.03-.03v-.06s-.12-.1-.24-.18c-.67-.5-1.25-1.01-1.73-1.51l-1.31.23h-.07c-1.92-.18-3.81-.31-5.6-.4h-.03c-.86-.09-1.51-.13-1.93-.13h-.04c-.5-.04-.7-.03-.77-.03l-.04.02h-.1c-.8.08-1.59-.09-2.38-.5.17.56.38,1.11.64,1.66.27.58.54,1.02.8,1.28.19.15.31.2.36.21l.07.02c.08.03.15.04.24,0,.75-.38,2.13-.64,4.22-.77,1.58-.13,3.07-.2,4.4-.2.13,0,.27-.02.4-.05l.74-.19-.07.76c-.05.5-.14,1.2-.27,2.08v.05c-.26,1.06-.27,1.35-.27,1.42v.04s.01,1.39.01,1.39c0,.48-.02,1.24-.07,2.34l-.02.52h-.65c-.3,0-1.39.04-3.35.13-.91.05-1.7-.09-2.34-.4-.18,0-.35.02-.52.04v.16h-.6c-.24.14-.29.23-.29.25l-.02.06-.03.05c-.44.64-.38,1.24.17,1.94l.2.24-.11.29c-.89,2.26-1.87,4.48-2.93,6.6-.72,1.44-1.45,2.63-2.17,3.56.02.05.04.12.1.21.19.29.54.52,1.02.7.24.05.62.04,1.12-.46l.04-.03c.47-.39.96-1.09,1.45-2.08.82-1.56,1.96-4.4,3.38-8.45v-.43l.37-.12c2.21-.74,3.74-1.05,4.66-.95l.5.05v.5c-.07,2.06-.08,2.71-.08,2.9v.07c-.31,2.38-.51,3.9-.6,4.54,0,.28-.11.55-.31.81l-.02.03v.07Z"/><path class="cls-3" d="m32.23,10.62c1.68.35,2.49.51,2.45.46.71.18,1.3.35,1.79.53.26.09.48.16.66.2.18.13.31.22.4.26.18.31.31.77.4,1.39.04.49.04.95,0,1.39-.04.09-.11.33-.2.73-.04.18-.16.68-.33,1.52-.31,1.46-.64,2.93-.99,4.43-.44,1.81-.82,3.35-1.12,4.63-.4,1.5-.66,2.47-.79,2.91-.93,2.29-2.67,4.35-5.23,6.15-2.91,2.07-5.58,2.69-8.01,1.85-.09-.13-.16-.22-.2-.26-.04-.04-.07-.09-.07-.13.04-.04.11-.09.2-.13.04,0,.11-.02.2-.07.79-.13,1.46-.37,1.99-.73,4.46-2.82,7.06-5.32,7.81-7.48.62-1.81,1.19-3.97,1.72-6.48.44-2.29.64-3.9.6-4.83,0-.18.02-.73.07-1.65.04-.7.04-1.28,0-1.72-.09-1.32-.55-2.29-1.39-2.91l.07-.07Z"/><path class="cls-3" d="m23.4,37.99c-.8,0-1.57-.13-2.33-.39l-.17-.06-.1-.15c-.1-.15-.14-.19-.14-.19-.14-.13-.22-.32-.22-.51v-.22l.16-.16c.09-.09.2-.16.34-.23l.11-.06h.07s.01,0,.02,0l.07-.04h.08c.72-.13,1.31-.35,1.77-.66,4.34-2.75,6.89-5.17,7.6-7.2.61-1.78,1.18-3.94,1.7-6.42.43-2.23.63-3.81.58-4.69v-.03c0-.19.02-.76.07-1.68.04-.68.04-1.23,0-1.64-.08-1.18-.46-2-1.17-2.53l-.51-.37.72-.72.29.06c.29.06.54.11.77.16l-.15-.16,1.86.47c.72.18,1.34.36,1.84.55.24.08.45.14.61.18l.11.03.09.07c.21.16.29.2.31.21l.15.07.08.15c.21.37.36.89.46,1.58v.03c.05.52.05,1.02,0,1.49v.1s-.05.09-.05.09c0,0-.05.12-.15.6-.03.11-.1.44-.33,1.52-.31,1.46-.64,2.95-1,4.45-.44,1.81-.82,3.36-1.13,4.63-.41,1.54-.67,2.49-.8,2.94l-.02.05c-.96,2.38-2.78,4.53-5.42,6.39-2.16,1.54-4.23,2.31-6.17,2.31Zm-1.03-1.17c2,.34,4.2-.34,6.57-2.02,2.45-1.73,4.15-3.72,5.03-5.89.13-.44.39-1.41.78-2.87.31-1.27.68-2.81,1.12-4.62.35-1.48.68-2.97.99-4.42.17-.83.29-1.35.34-1.54.09-.4.15-.61.19-.73.03-.38.03-.78,0-1.2-.08-.54-.18-.87-.27-1.06-.07-.04-.14-.09-.22-.15-.17-.04-.36-.11-.6-.18-.46-.17-1.02-.33-1.68-.5-.17,0-.38-.05-.66-.1-.12-.02-.27-.05-.43-.08.32.59.52,1.3.57,2.12.04.45.05,1.06,0,1.79-.05,1.14-.06,1.5-.07,1.61.04.98-.15,2.6-.61,4.94-.53,2.53-1.12,4.74-1.74,6.56-.8,2.31-3.43,4.84-8.03,7.76-.37.25-.8.45-1.29.6Zm-.94-.38s0,0,0,0c0,0,0,0,0,0Z"/><path class="cls-3" d="m41.49,11.13l.13.07c1.23.84,2.36,1.37,3.37,1.59.18.04.33.22.46.53.09.18.18.49.26.93.09.44.15.75.2.93.13.31.26.53.4.66l.13.13c.18.13.29.24.33.33v.6c0-.18-.09.53-.26,2.12-.18,1.19-.24,2.01-.2,2.45.04.22.04.93,0,2.12v3.64c-.04,1.63-.07,2.85-.07,3.64v1.32c.04.35.07.6.07.73.18.79.31,1.46.4,1.99.04.4.04.73,0,.99,0,.35-.07.6-.2.73-.35.44-.55.68-.6.73-.13.09-.26.11-.4.07-.13-.04-.29-.15-.46-.33-.31-.35-.77-.99-1.39-1.92-.26-.44-.49-.82-.66-1.13-.18-.35-.29-.6-.33-.73-.04-.18-.07-.31-.07-.4.04-.04.09-.11.13-.2.13-.13.22-.29.26-.46.26-1.9.44-3.18.53-3.84.35-3.26.42-6.57.2-9.93-.09-1.46-.31-2.38-.66-2.78-.18-.18-.35-.51-.53-.99-.18-.4-.35-.88-.53-1.46-.18-.71-.33-1.35-.46-1.92l-.07-.2Z"/><path class="cls-3" d="m45.66,37.96c-.1,0-.2-.02-.3-.05-.21-.07-.44-.22-.67-.46l-.02-.02c-.33-.37-.8-1.02-1.43-1.98v-.02c-.29-.47-.51-.84-.68-1.14v-.02c-.27-.51-.34-.7-.37-.8v-.04c-.07-.22-.09-.39-.09-.53v-.22l.16-.16s0,0,0,0c0,0,.01-.02.03-.06l.04-.08.06-.06c.06-.06.09-.12.12-.19.26-1.88.44-3.14.52-3.8.35-3.2.41-6.51.19-9.82-.11-1.77-.39-2.3-.52-2.45-.23-.24-.43-.61-.63-1.16-.18-.42-.37-.92-.54-1.5v-.03c-.18-.67-.33-1.31-.47-1.9l-.47-1.41,1.36.69c1.17.8,2.24,1.3,3.19,1.51.36.09.64.37.84.83.11.22.2.56.3,1.05.08.4.14.69.18.86.13.3.23.42.27.45l.11.11c.23.18.37.33.46.49l.06.12v.73h-1.08c0,.22.19.48.49.51.3.03.53-.19.58-.41,0,.05-.05.33-.25,2.07-.21,1.41-.22,2.03-.2,2.31.03.2.06.66,0,2.21v3.62c-.04,1.62-.07,2.84-.07,3.64v1.29c.04.33.06.55.07.7.17.78.3,1.44.39,1.96v.03c.05.43.05.79,0,1.1,0,.47-.12.81-.33,1.04-.54.67-.58.72-.62.75l-.08.07c-.18.12-.37.18-.57.18Zm-.2-1.26c.07.07.13.12.17.15.08-.09.22-.27.47-.58l.04-.04s0,0,0,0c0,0,.04-.09.04-.35v-.09c.04-.21.04-.49,0-.83-.09-.51-.22-1.17-.39-1.94v-.06s-.01-.06-.01-.06c0-.07-.01-.24-.06-.66v-.07s0-1.32,0-1.32c0-.81.02-2.04.07-3.65v-3.62c.06-1.62.02-1.95,0-2.01v-.05c-.06-.49,0-1.33.19-2.58.08-.7.14-1.24.18-1.6.02-.19.04-.36.08-.5v-.34s-.06-.05-.11-.09l-.06-.05-.13-.13c-.18-.18-.35-.46-.51-.83l-.03-.08c-.05-.19-.11-.5-.2-.95-.1-.51-.18-.72-.22-.79v-.03c-.07-.14-.12-.2-.14-.22-.77-.17-1.6-.51-2.49-1.02.06.27.13.54.2.82.17.54.34,1.01.5,1.38v.04c.22.55.36.74.42.79l.02.02c.45.5.7,1.49.8,3.11.22,3.37.15,6.74-.2,10.02-.09.68-.27,1.96-.53,3.85v.06c-.07.24-.19.46-.36.65,0,0,0,.02-.01.02,0,.03.01.06.02.1.02.07.09.24.29.63.16.29.37.64.64,1.09.59.89,1.04,1.5,1.33,1.84Z"/><path class="cls-3" d="m48.26,9.59c.5-.9.89-1.88,1.18-2.94.41-1.44.45-2.58.09-3.42-.2-.45-.17-.89.09-1.31.19-.35.54-.65,1.04-.9,1.01-.49,1.97-.6,2.89-.3.3.13.53.32.67.56.13.2.16.47.08.79-.09.54-.45,1.24-1.09,2.12-.53.71-1.34,1.75-2.46,3.14-.61.74-1.09,1.3-1.44,1.69-.25.25-.44.44-.57.56-.06.05-.11.09-.17.14-.01.03-.04.04-.07.03-.04.02-.09.03-.13.05l-.18-.08.06-.14Z"/><path class="cls-3" d="m48.38,10.25l-.71-.31.24-.54c.48-.86.87-1.82,1.14-2.85.39-1.35.42-2.41.11-3.16-.25-.55-.21-1.14.11-1.67.23-.42.64-.78,1.21-1.06,1.1-.54,2.17-.65,3.19-.32h.04c.38.18.67.43.86.74.18.28.23.65.13,1.08-.11.6-.48,1.35-1.16,2.28-.53.72-1.34,1.75-2.47,3.15-.62.75-1.11,1.32-1.46,1.71l-.02.02-.72.69c-.08.09-.18.14-.3.16l-.21.08Zm5.03-9.14c-.81-.25-1.65-.16-2.57.29-.43.21-.72.45-.86.72v.02c-.2.31-.22.61-.08.94.39.93.37,2.17-.07,3.7-.16.61-.36,1.19-.6,1.75.32-.36.73-.84,1.22-1.43,1.1-1.38,1.93-2.43,2.44-3.12.59-.82.93-1.47,1.02-1.94v-.02c.05-.22.04-.38-.03-.49-.11-.18-.26-.31-.47-.4Z"/><path class="cls-3" d="m53.21,11.03c.97.75,1.94,1.08,2.91.99.09-.04.42-.04.99,0,.44,0,1.1.04,1.99.13,1.81.09,3.68.22,5.62.4l1.52-.26h.07v.07c.48.53,1.08,1.06,1.79,1.59.31.22.46.38.46.46.04.04.04.26,0,.66,0,.13-.09.51-.26,1.13-.04.13-.13.44-.26.93-.13.4-.22.73-.26.99-.22.88-.4,1.54-.53,1.99-.13.66-.18,1.1-.13,1.32v.33c.13.04.24.13.33.26.13.09.26.24.4.46.31.44.51.82.6,1.13.09.31.09.57,0,.79-.09.22-.24.38-.46.46-.13.09-.42.11-.86.07-.04,2.78-.07,4.37-.07,4.76v1.92c0,.53.02.86.07.99.18.79.29,1.46.33,1.99.04.44.07.79.07,1.06,0,.31-.07.53-.2.66-.35.44-.55.68-.6.73-.13.09-.26.13-.4.13-.18-.04-.33-.15-.46-.33-.35-.35-.82-1.01-1.39-1.99-.26-.4-.49-.77-.66-1.12-.22-.35-.35-.6-.4-.73v-.33c0-.09.04-.15.13-.2.13-.18.2-.35.2-.53.09-.62.29-2.14.6-4.57,0-.26.02-1.23.07-2.91-.84-.09-2.32.22-4.43.93v.13c-1.46,4.15-2.6,7.01-3.44,8.6-.53,1.06-1.06,1.81-1.59,2.25-.53.53-1.08.73-1.65.6-.62-.22-1.06-.53-1.32-.93-.13-.22-.2-.42-.2-.6v-.07c.75-.93,1.5-2.14,2.25-3.64,1.06-2.12,2.03-4.3,2.91-6.55-.71-.88-.77-1.74-.2-2.58.09-.22.31-.42.66-.6h.2v-.07c.35-.09.73-.13,1.12-.13h.07c.57.31,1.3.44,2.18.4,1.94-.09,3.07-.13,3.37-.13h.13c.04-1.06.07-1.83.07-2.32v-1.32c-.04-.18.04-.73.26-1.65.13-.88.22-1.57.26-2.05-.18.04-.35.07-.53.07-1.32,0-2.78.07-4.37.2-2.03.13-3.37.38-4.04.73-.22.09-.44.09-.66,0-.18-.04-.38-.15-.6-.33-.31-.31-.62-.79-.93-1.46-.26-.57-.49-1.15-.66-1.72-.09-.26-.16-.48-.2-.66v-.46h.07l.07-.07Z"/><path class="cls-3" d="m66.31,37.71h-.07l-.06-.02c-.29-.07-.54-.24-.74-.5-.38-.39-.85-1.06-1.44-2.05-.27-.41-.5-.79-.68-1.15-.31-.5-.4-.7-.44-.82l-.03-.08v-.42c0-.23.1-.45.29-.59.03-.04.05-.09.05-.14v-.08c.09-.61.29-2.13.6-4.52,0-.34.03-1.36.05-2.34-.62.04-1.67.24-3.4.8-1.44,4.09-2.6,6.98-3.44,8.57-.56,1.12-1.12,1.9-1.7,2.4-.83.81-1.62.84-2.14.72l-.06-.02c-.73-.26-1.26-.64-1.59-1.14v-.02c-.2-.3-.29-.6-.29-.87v-.26l.12-.15c.72-.89,1.46-2.08,2.19-3.54,1-2,1.94-4.09,2.78-6.23-.83-1.21-.51-2.24-.06-2.92.14-.3.4-.55.8-.77v-.06l.41-.1c.39-.1.82-.15,1.26-.15h.2l.12.06c.48.26,1.12.37,1.9.33,1.5-.07,2.48-.11,3.01-.12.03-.81.05-1.4.05-1.78v-1.27c-.03-.21-.01-.6.27-1.81.08-.51.14-.96.19-1.34-1.28,0-2.71.07-4.24.2-2.43.16-3.42.45-3.83.67l-.05.02c-.34.14-.69.14-1.03.01-.24-.07-.5-.21-.77-.42l-.04-.04c-.36-.36-.7-.88-1.04-1.61-.28-.6-.51-1.2-.69-1.79-.09-.27-.16-.5-.21-.69l-.02-.06v-1.07h.38l.24-.25.38.29c.85.65,1.65.94,2.47.89.18-.05.47-.06,1.12,0,.46,0,1.11.05,2,.13,1.78.09,3.65.22,5.56.39l1.54-.26h.61v.39c.43.45.96.91,1.57,1.37.35.25.58.46.65.71.08.19.07.46.03.88,0,.14-.04.39-.28,1.24v.02c-.05.12-.13.42-.26.9v.03c-.13.37-.21.68-.25.91v.04c-.23.9-.41,1.55-.54,1.98-.16.82-.14,1.05-.13,1.09v.13c.07.05.13.12.19.18.16.13.32.31.46.55.34.49.56.9.66,1.27.12.43.12.81-.02,1.14-.14.34-.39.6-.72.75-.15.08-.33.13-.57.14-.05,2.98-.06,3.94-.06,4.2v1.92c0,.66.04.81.04.83v.05c.19.82.31,1.51.36,2.06.05.46.07.83.07,1.1,0,.44-.11.78-.33,1.02-.54.67-.58.72-.62.75l-.08.07c-.22.15-.46.22-.7.22Zm-2.37-4.82c.04.08.12.24.31.55l.03.05c.16.32.37.68.63,1.07l.02.03c.55.93.99,1.56,1.31,1.88l.05.06s.06.07.09.09c.06-.07.2-.25.51-.63l.04-.04h0s.04-.07.04-.28c0-.24-.02-.57-.06-1.01-.04-.5-.15-1.14-.32-1.9-.04-.15-.08-.41-.08-1.13v-1.92c0-.41.02-2.06.07-4.77v-.59s.6.06.6.06c.35.04.49.01.53,0h.02s.05-.04.05-.04c.08-.03.13-.08.16-.16.05-.13.02-.31-.02-.44-.05-.17-.18-.48-.52-.96l-.02-.03c-.13-.21-.21-.28-.23-.29l-.09-.06-.06-.09s-.04-.05-.05-.05l-.37-.12v-.67c-.03-.21-.03-.59.14-1.48v-.05c.14-.42.31-1.05.53-1.94.05-.28.14-.62.28-1.04.14-.5.22-.78.27-.93.22-.77.24-.95.24-.97v-.05c.02-.17.03-.28.03-.35l-.03-.03v-.06s-.12-.1-.24-.18c-.67-.5-1.25-1.01-1.73-1.51l-1.31.23h-.07c-1.92-.18-3.81-.31-5.6-.4h-.03c-.86-.09-1.51-.13-1.93-.13h-.04c-.5-.04-.7-.03-.77-.03l-.04.02h-.1c-.8.08-1.59-.09-2.38-.5.17.56.38,1.11.64,1.66.27.58.54,1.02.8,1.28.19.15.31.2.36.21l.07.02c.08.03.15.04.24,0,.75-.38,2.13-.64,4.22-.77,1.58-.13,3.07-.2,4.4-.2.13,0,.27-.02.4-.05l.74-.19-.07.76c-.05.5-.14,1.2-.27,2.08v.05c-.26,1.06-.27,1.35-.27,1.42v.04s.01,1.39.01,1.39c0,.48-.02,1.24-.07,2.34l-.02.52h-.65c-.3,0-1.39.04-3.35.13-.91.05-1.7-.09-2.34-.4-.18,0-.35.02-.52.04v.16h-.6c-.24.14-.29.23-.29.25l-.02.06-.03.05c-.44.64-.38,1.24.17,1.94l.2.24-.11.29c-.89,2.26-1.87,4.48-2.93,6.6-.72,1.44-1.45,2.63-2.17,3.56.02.05.04.12.1.21.19.29.54.52,1.02.7.24.05.62.04,1.12-.46l.04-.03c.47-.39.96-1.09,1.45-2.08.82-1.56,1.96-4.4,3.38-8.45v-.43l.37-.12c2.21-.74,3.74-1.05,4.66-.95l.5.05v.5c-.07,2.06-.08,2.71-.08,2.9v.07c-.31,2.38-.51,3.9-.6,4.54,0,.28-.11.55-.31.81l-.02.03v.07Z"/><path class="cls-1" d="m73.73,1.35c.83.64,1.56,1.05,2.2,1.25.45.19.99.22,1.63.1.45,0,1.21.03,2.3.1,1.28.06,2.43.16,3.45.29.45,0,.89.06,1.34.19,4.6.9,8.11,2.94,10.54,6.13,1.28,1.66,1.92,3.39,1.92,5.17,0,1.92-.83,3.83-2.49,5.75-1.47,1.72-2.52,2.84-3.16,3.35-1.79,1.79-4.09,3.51-6.9,5.17h-.1c-.45.26-.86.32-1.25.19-.26-.19-.61-.57-1.05-1.15-.38-.19-.83-.41-1.34-.67-.57-.32-.93-.51-1.05-.57-.32-.19-.54-.35-.67-.48-.19-.13-.29-.29-.29-.48.06-.13.19-.25.38-.38.25-.13.61-.29,1.05-.48.7-.25,2.11-.67,4.22-1.25h.1c1.15-.19,2.65-.77,4.5-1.72,1.85-.96,3.16-1.92,3.93-2.87.13-.32.19-.57.19-.77-.57-4.98-3.07-8.82-7.47-11.5-1.09-.38-2.49-.38-4.22,0-1.41.32-2.72.8-3.93,1.44-.26.13-.51.13-.77,0-.26-.06-.51-.22-.77-.48-.45-.51-.86-1.21-1.25-2.11-.38-.83-.67-1.69-.86-2.59-.13-.38-.19-.7-.19-.96-.06-.25-.1-.45-.1-.57v-.1s.1,0,.1,0Zm5.85,33.44c.64-.06,1.5.32,2.59,1.15.32.19.8.54,1.44,1.05.57.45,1.02.8,1.34,1.05.77.51,1.15,1.12,1.15,1.82,0,.64-.26,1.28-.77,1.92-.45.57-1.02,1.05-1.72,1.44-.77.32-1.44.45-2.01.38-1.6-.32-2.81-1.15-3.64-2.49-.9-1.34-.99-2.84-.29-4.5.45-1.15,1.09-1.76,1.92-1.82Z"/><path class="cls-2" d="m81.88,43.96c-.13,0-.26,0-.38-.02h-.07c-1.81-.37-3.21-1.33-4.16-2.86-1.03-1.55-1.15-3.31-.34-5.22.69-1.78,1.78-2.23,2.57-2.3.84-.08,1.86.34,3.1,1.28.35.21.83.57,1.48,1.09.56.43,1,.78,1.32,1.03,1.21.82,1.47,1.79,1.47,2.45,0,.82-.32,1.63-.94,2.41-.51.65-1.17,1.2-1.96,1.64l-.07.04c-.73.31-1.41.46-2.02.46Zm-.17-1.58c.43.04.95-.07,1.55-.32.59-.33,1.07-.73,1.45-1.21.4-.5.6-.98.6-1.43,0-.27-.08-.69-.8-1.17l-.05-.04c-.32-.25-.76-.6-1.34-1.05-.62-.49-1.07-.83-1.36-1l-.07-.05c-1.25-.95-1.84-1.01-2.03-.99h-.02c-.19.02-.76.06-1.25,1.32-.61,1.44-.54,2.67.21,3.78.73,1.17,1.74,1.87,3.11,2.15Zm1.91-12.5c-.22,0-.43-.04-.65-.11l-.12-.04-.1-.08c-.29-.22-.65-.6-1.09-1.16l-1.21-.61c-.74-.41-.96-.53-1.03-.56l-.05-.03c-.35-.21-.6-.38-.77-.55-.37-.27-.57-.65-.57-1.09v-.18s.08-.16.08-.16c.13-.25.34-.48.65-.69l.09-.05c.27-.13.64-.3,1.1-.5l.04-.02c.73-.26,2.17-.69,4.28-1.27l.1-.03h.13c1.06-.19,2.47-.74,4.21-1.64,1.68-.87,2.9-1.74,3.6-2.58.07-.19.09-.29.09-.34-.56-4.72-2.86-8.25-7.02-10.81-.93-.31-2.18-.29-3.71.05-1.33.3-2.59.76-3.73,1.37-.46.23-.95.24-1.4.04-.37-.11-.72-.33-1.05-.67l-.03-.04c-.51-.58-.96-1.34-1.38-2.32-.39-.85-.7-1.76-.9-2.69-.13-.4-.2-.75-.22-1.06-.07-.28-.1-.5-.1-.68v-.88s1.15,0,1.15,0l.21.16c.75.58,1.4.95,1.95,1.12l.08.03c.3.13.69.14,1.16.05l.15-.02c.45,0,1.2.03,2.34.1,1.26.06,2.43.16,3.45.29.49,0,.98.08,1.47.21,4.76.93,8.45,3.09,10.98,6.42,1.38,1.79,2.08,3.69,2.08,5.65,0,2.1-.9,4.21-2.68,6.26-1.49,1.75-2.55,2.87-3.23,3.42-1.82,1.82-4.19,3.59-7.03,5.27l-.18.11h-.12c-.35.17-.7.26-1.04.26Zm-.04-1.57c.1,0,.26-.02.5-.15l.18-.1h.09c2.66-1.59,4.86-3.25,6.56-4.94l.06-.06c.6-.48,1.62-1.57,3.06-3.25,1.53-1.77,2.3-3.53,2.3-5.24,0-1.6-.59-3.18-1.75-4.7-2.3-3.02-5.69-4.99-10.07-5.84l-.06-.02c-.38-.11-.76-.16-1.13-.16h-.1c-1-.13-2.14-.23-3.39-.29-1.04-.06-1.76-.09-2.19-.09-.74.14-1.4.09-1.97-.14-.31-.1-.62-.23-.95-.4.18.79.44,1.57.78,2.3.35.82.72,1.46,1.11,1.9.14.14.27.23.38.25l.09.02.08.04s.03.01.03.01c0,0,.01,0,.03-.01,1.25-.66,2.64-1.17,4.11-1.5,1.89-.42,3.41-.41,4.65.03l.08.03.07.04c4.6,2.8,7.24,6.87,7.85,12.08v.09c0,.29-.08.64-.24,1.06l-.04.11-.07.09c-.84,1.05-2.21,2.06-4.18,3.08-1.95,1.01-3.49,1.6-4.74,1.8h-.12c-1.99.56-3.35.96-4.03,1.2-.23.1-.43.19-.6.27.06.04.13.09.22.14.15.08.49.27,1.04.57l1.49.74.11.14c.4.51.65.78.79.91Z"/><path class="cls-3" d="m105.74,11.38c.97.75,1.94,1.08,2.91.99.09-.04.37-.04.86,0,.62,0,1.21.02,1.79.07,1.5.09,3.22.22,5.16.4,2.21.18,3.95.33,5.23.46,1.72.18,2.8.35,3.24.53.35.13.71.09,1.06-.13.4-.22.77-.29,1.12-.2.26.09.64.29,1.12.6.48.31.97.68,1.46,1.12.48.44.86.84,1.12,1.19.18.22.29.4.33.53.09.18.11.33.07.46-.09.22-.26.38-.53.46-.18.09-.42.11-.73.07-.49-.04-1.08-.24-1.79-.6-.04,0-.33-.09-.86-.26.26.22.42.38.46.46v.6c0-.18-.11.55-.33,2.18-.13,1.19-.18,1.99-.13,2.38v1.92c0,.79-.02,1.9-.07,3.31v4.57c.04.31.07.53.07.66.18.75.29,1.41.33,1.99.04.4.07.73.07.99,0,.35-.07.6-.2.73-.35.44-.55.68-.6.73-.13.09-.26.11-.4.07-.13-.04-.29-.15-.46-.33-.35-.35-.82-.99-1.39-1.92-.26-.4-.49-.77-.66-1.12-.18-.35-.29-.62-.33-.79-.04-.13-.07-.24-.07-.33,0-.04.04-.11.13-.2.13-.13.22-.31.26-.53.26-1.9.44-3.15.53-3.77.31-3,.37-5.98.2-8.93-.09-1.46-.33-2.38-.73-2.78-.26-.31-.53-.57-.79-.79-3.09-.62-5.14-.95-6.15-.99-1.32,0-2.76.07-4.3.2-2.03.13-3.4.38-4.1.73-.22.09-.44.09-.66,0-.18-.04-.35-.15-.53-.33-.35-.31-.68-.79-.99-1.46-.26-.53-.49-1.1-.66-1.72-.09-.26-.13-.48-.13-.66-.04-.22-.07-.37-.07-.46v-.07h.13Zm8.8,12.44c.31-.04.57,0,.79.13.18.13.29.31.33.53,0,.13-.02.33-.07.6-.09.26-.2.6-.33.99-.26.71-.6,1.5-.99,2.38-.31.66-.6,2.01-.86,4.04-.09.66-.16,1.39-.2,2.18-.09.88-.13,1.3-.13,1.26v.07c-.13.62-.51,1.06-1.12,1.32-.53.22-1.1.24-1.72.07-.62-.18-1.04-.51-1.26-.99-.26-.53-.2-1.17.2-1.92h.07c.93-1.01,1.83-3.11,2.71-6.29v-.07c.09-.31.18-.93.26-1.85v-.53c0-.18.02-.31.07-.4,0-.31.02-.53.07-.66.04-.09.15-.2.33-.33.18-.09.37-.18.6-.26.48-.18.9-.26,1.26-.26Z"/><path class="cls-3" d="m126.65,38.21c-.1,0-.2-.02-.3-.05-.21-.07-.44-.22-.67-.46-.38-.38-.87-1.04-1.47-2.02-.27-.41-.5-.8-.69-1.17-.19-.38-.31-.67-.37-.88-.06-.18-.09-.34-.09-.48,0-.26.16-.45.29-.58.05-.05.09-.13.11-.24.26-1.88.44-3.12.53-3.75.3-2.95.37-5.93.2-8.83-.11-1.79-.44-2.29-.57-2.43l-.03-.03c-.21-.24-.42-.46-.63-.64-2.96-.59-4.95-.91-5.92-.95-1.3,0-2.73.07-4.24.2-2.44.16-3.47.45-3.91.67l-.04.02c-.34.14-.69.14-1.03.01-.26-.07-.5-.22-.73-.45-.41-.36-.77-.89-1.11-1.62-.27-.54-.51-1.15-.69-1.79-.1-.29-.15-.54-.16-.76-.06-.31-.07-.44-.07-.52v-.61h.86l.15.11c.84.65,1.65.95,2.47.89.17-.05.44-.06,1,0,.61,0,1.22.02,1.8.07,1.48.09,3.23.22,5.17.4,2.25.18,3.96.33,5.23.46,2.38.24,3.07.44,3.39.56.12.05.3.08.57-.09h.02c.52-.3,1.03-.39,1.52-.26h.04c.31.12.71.33,1.24.66.51.32,1.02.72,1.53,1.18.52.47.91.89,1.19,1.27.2.25.33.46.4.64.14.3.17.58.08.84v.03c-.11.25-.34.59-.84.76-.27.12-.6.16-1,.1-.46-.04-.98-.2-1.58-.47v.13h-1.08c0,.22.18.48.48.51.29.03.53-.17.58-.38-.01.06-.07.39-.31,2.13-.16,1.42-.16,2.01-.13,2.25v.06s0,1.92,0,1.92c0,.78-.02,1.87-.07,3.33v4.51c.04.28.06.48.07.63.17.75.29,1.43.33,2.01.05.41.07.75.07,1.03,0,.49-.11.85-.33,1.09-.54.67-.58.72-.62.75l-.08.07c-.18.12-.37.18-.57.18Zm-2.47-4.94s0,.02.01.03v.04c.03.08.09.27.3.68.16.33.37.68.63,1.07.56.9,1,1.52,1.32,1.84.08.08.14.13.18.16.08-.09.22-.27.47-.58l.04-.04s0,0,0,0c0,0,.04-.09.04-.35,0-.24-.02-.55-.06-.93-.04-.56-.15-1.2-.32-1.92v-.06s-.01-.06-.01-.06c0-.07-.01-.23-.06-.59v-.08s0-4.57,0-4.57c.04-1.46.07-2.54.07-3.31v-1.89c-.04-.45,0-1.26.14-2.47.1-.75.18-1.31.23-1.68.03-.2.06-.37.09-.52v-.33c-.05-.05-.13-.13-.27-.24l-2.2-1.84,2.72.91c.49.17.68.22.74.24h.07l.11.06c.64.32,1.18.5,1.59.54h.03c.27.04.38,0,.41-.01l.07-.03c.1-.03.15-.08.17-.11,0-.01-.01-.03-.03-.06l-.03-.07s-.05-.12-.24-.36c-.25-.33-.61-.71-1.07-1.13-.46-.42-.93-.78-1.38-1.07-.53-.34-.83-.48-.98-.53-.21-.05-.44,0-.7.15-.49.3-1.02.36-1.52.17-.28-.11-1.04-.29-3.11-.5-1.27-.13-2.97-.28-5.22-.46-1.94-.18-3.67-.31-5.15-.4-.58-.04-1.16-.07-1.75-.07h-.05c-.4-.04-.56-.03-.62-.03l-.04.02h-.1c-.8.08-1.59-.09-2.38-.5v.02c.17.58.38,1.13.63,1.63.28.6.57,1.03.86,1.29l.03.03c.1.1.2.17.27.19l.07.02c.09.03.16.04.24,0,.78-.38,2.19-.63,4.29-.77,1.54-.13,3-.2,4.34-.2h.02c1.05.05,3.09.37,6.24,1l.14.03.11.09c.28.24.57.52.85.84.49.51.77,1.5.87,3.11.18,2.97.11,6.01-.2,9.02v.02c-.09.62-.27,1.87-.53,3.77v.03c-.07.3-.19.55-.36.75Zm-13.14,4.77c-.31,0-.62-.05-.95-.14-.77-.22-1.31-.65-1.6-1.29-.34-.67-.27-1.49.21-2.4l.15-.29h.14c.81-1,1.62-2.96,2.42-5.82v-.07l.02-.07c.05-.19.14-.64.24-1.73v-.5c0-.2.02-.36.07-.5,0-.32.04-.56.09-.73l.03-.07c.08-.17.24-.33.49-.52l.08-.05c.19-.09.39-.19.64-.28.55-.2,1.01-.3,1.42-.3.42-.05.79.02,1.11.21l.05.03c.28.21.47.51.54.85v.11c.01.16-.01.38-.06.68l-.02.08-.33.99c-.27.73-.61,1.55-1.01,2.43-.2.42-.5,1.44-.82,3.88-.09.65-.15,1.37-.19,2.14v.02c-.04.42-.08.74-.1.95,0,.08-.02.17-.03.26v.18c-.18.79-.68,1.38-1.45,1.71-.36.15-.74.23-1.14.23Zm-1.48-3.11c-.22.49-.25.89-.09,1.21.16.36.46.58.92.71.5.14.95.13,1.36-.05.43-.19.69-.47.79-.89h0s0-.04.01-.05l.22.05h.29l-.51-.09c.01-.08.09-.87.13-1.21.04-.8.11-1.54.2-2.21.27-2.1.57-3.48.91-4.19.39-.86.72-1.65.98-2.34l.31-.93c.03-.2.05-.33.05-.41-.02-.06-.05-.1-.09-.14-.11-.06-.24-.07-.41-.05h-.08c-.29,0-.65.08-1.07.24-.18.07-.35.15-.49.22-.06.05-.1.08-.12.1-.01.07-.02.2-.02.43v.13l-.06.11s0,0,0,0c0,0,0,.05,0,.16v.58c-.09.92-.17,1.51-.26,1.87v.07l-.02.07c-.91,3.29-1.84,5.42-2.83,6.51l-.09.1Z"/><path class="cls-3" d="m133.74,10.82s.11.02.2.07c1.19.79,2.27,1.3,3.24,1.52.26.04.48.26.66.66.09.22.18.55.26.99.09.49.15.79.2.93.09.26.18.42.26.46.04.04.09.09.13.13l.07.07c.44-.26.86-.53,1.26-.79,1.19-1.01,3.29-1.7,6.29-2.05,2.82-.31,4.85-.18,6.09.4h.07v.07c1.28.4,2.38,1.24,3.31,2.51v.07c.75,1.1,1.3,2.89,1.65,5.36.18,1.85.04,4.39-.4,7.61-.35,1.63-.79,3.07-1.32,4.3-.22.62-.49,1.32-.79,2.12-.04,0-.07.02-.07.07-.35.66-1.24,1.3-2.65,1.92-1.19.53-2.32.86-3.37.99h-.13l-.4-.13c-.22-.09-.35-.22-.4-.4-.44-.79-.86-1.52-1.26-2.18-.26-.53-.42-.84-.46-.93-.09-.18-.16-.37-.2-.6-.09-.57-.16-.93-.2-1.06-.22-.97-.77-2.47-1.65-4.5-.09-.13-.18-.35-.26-.66-.13-.26-.22-.48-.26-.66-.09-.18-.04-.33.13-.46.18-.09.33-.04.46.13l2.25,3.18v.07c.09.18.2.4.33.66.09.31.18.53.26.66.53,1.28.93,2.27,1.19,2.98.13-.04.26-.09.4-.13.09-.04.26-.09.53-.13.26-.04.48-.11.66-.2,1.06-.31,1.87-1.04,2.45-2.18.09-.22.13-.35.13-.4.13-.57.26-1.12.4-1.65.09-2.91.04-5.36-.13-7.34-.35-2.12-1.06-3.73-2.12-4.83-.97-.97-2.14-1.5-3.51-1.59-2.87-.18-5.58,1.21-8.14,4.17-.04.04-.09.07-.13.07-.04.66-.07,1.06-.07,1.19.04.22.04.93,0,2.12v3.71c-.04,1.5-.07,2.71-.07,3.64v1.32c.04.35.07.57.07.66.18.79.31,1.48.4,2.05.04.4.04.75,0,1.06,0,.35-.09.64-.26.86-.35.44-.57.68-.66.73-.18.13-.38.18-.6.13-.22-.04-.42-.18-.6-.4-.35-.35-.84-1.01-1.46-1.99-.22-.4-.44-.77-.66-1.12-.18-.35-.29-.62-.33-.79-.09-.22-.11-.4-.07-.53.04-.09.11-.2.2-.33.09-.09.13-.2.13-.33.31-1.85.51-3.11.6-3.77,0-.31.02-1.28.07-2.91.04-1.19.07-2.49.07-3.9-.35.13-.64.2-.86.2-.31-.04-.51-.2-.6-.46-.09-.18-.09-.44,0-.79,0-.04.02-.09.07-.13.4-.48.88-1.04,1.46-1.65v-.26c-.09-1.37-.31-2.23-.66-2.58-.18-.22-.35-.6-.53-1.12-.18-.4-.35-.88-.53-1.46-.18-.57-.33-1.21-.46-1.92h-.07c-.04-.26.07-.42.33-.46h.07Z"/><path class="cls-3" d="m148.86,38.76h-.25l-.51-.17c-.44-.17-.62-.46-.7-.69-.43-.77-.84-1.48-1.22-2.12l-.02-.04-.26-.53c-.11-.21-.17-.35-.2-.4-.11-.21-.19-.46-.24-.73-.12-.78-.17-.96-.18-.99v-.05c-.23-.93-.77-2.4-1.62-4.36-.11-.17-.2-.4-.29-.72-.13-.26-.22-.48-.27-.68-.17-.39-.05-.8.32-1.08l.08-.05c.41-.21.85-.09,1.14.29l2.36,3.33v.11l.31.64c.1.34.17.47.19.51l.05.09c.42,1.01.75,1.85,1.01,2.5.11-.03.27-.07.52-.12.21-.03.38-.08.51-.15l.09-.04c.91-.26,1.6-.88,2.1-1.89.05-.13.07-.2.09-.23h0s.01-.07.01-.07c.13-.56.26-1.1.39-1.61.08-2.84.04-5.26-.13-7.2-.33-1.99-1-3.51-1.97-4.52-.87-.87-1.91-1.34-3.15-1.42-2.68-.17-5.26,1.18-7.69,3.98l-.02.02c-.03.53-.04.75-.05.84.03.22.05.71,0,2.18v3.69c-.04,1.49-.07,2.71-.07,3.64v1.29c.04.36.06.53.06.63.17.78.3,1.46.39,2.04v.02c.05.42.05.81,0,1.16,0,.46-.14.85-.38,1.16-.5.62-.67.77-.8.85-.29.21-.64.28-.99.2-.34-.07-.64-.26-.89-.57-.38-.39-.88-1.06-1.51-2.06l-.02-.03c-.22-.39-.43-.76-.65-1.1l-.02-.04c-.19-.38-.3-.65-.36-.87-.13-.33-.15-.62-.06-.87l.03-.07c.06-.11.13-.24.23-.39l.04-.07v-.05c.31-1.81.51-3.06.6-3.72,0-.36.02-1.35.07-2.89.04-.99.06-2.06.06-3.18-.11.02-.22.03-.32.03h-.08c-.5-.08-.86-.36-1.02-.8-.13-.28-.14-.64-.03-1.09.02-.12.07-.26.2-.4.37-.45.81-.95,1.32-1.51v-.03c-.11-1.65-.39-2.1-.5-2.22l-.04-.04c-.22-.27-.42-.68-.61-1.27-.18-.41-.36-.92-.54-1.49-.14-.46-.27-.98-.39-1.54h-.08l-.08-.45c-.06-.35.05-.58.14-.72.1-.14.29-.31.63-.37h.09s.07,0,.07,0c.13,0,.26.04.44.12l.06.04c1.13.75,2.15,1.24,3.05,1.44.45.08.8.41,1.05.97v.02c.11.25.2.61.3,1.09.11.63.16.81.18.86.02.06.04.1.05.14.29-.18.57-.36.83-.53,1.29-1.08,3.43-1.79,6.55-2.16,2.87-.31,4.92-.18,6.27.39h.49v.22c1.23.47,2.31,1.34,3.21,2.58l.1.14v.08c.75,1.19,1.29,2.97,1.65,5.45v.03c.18,1.89.05,4.49-.4,7.73v.04c-.37,1.66-.82,3.13-1.36,4.38-.22.61-.48,1.32-.79,2.12l-.13.35h-.09c-.47.69-1.38,1.33-2.77,1.94-1.23.55-2.42.9-3.52,1.03h-.03Zm-.08-1.08h.01c.99-.13,2.06-.45,3.19-.95,1.53-.67,2.13-1.24,2.36-1.62.03-.08.07-.16.13-.22.28-.73.53-1.38.73-1.95v-.03c.52-1.19.95-2.6,1.3-4.18.43-3.15.56-5.65.39-7.45-.34-2.37-.87-4.09-1.56-5.12l-.09-.14v-.05c-.83-1.1-1.81-1.83-2.93-2.18l-.38-.12v-.08c-1.16-.44-3.03-.52-5.55-.25-2.87.34-4.89.99-5.99,1.93l-.05.04c-.4.26-.83.54-1.28.81l-.36.22-.37-.37s-.06-.06-.09-.09c-.23-.16-.35-.45-.43-.72-.03-.1-.09-.31-.22-1-.08-.39-.16-.69-.23-.88-.11-.25-.21-.33-.25-.34h-.03c-.92-.22-1.94-.67-3.04-1.36.11.53.23,1.02.37,1.46.17.55.34,1.02.51,1.4l.02.05c.19.58.34.83.42.94.44.47.69,1.39.79,2.9v.04s0,.48,0,.48l-.14.16c-.55.59-1.02,1.13-1.4,1.59-.07.28-.03.38-.03.38l.03.07s.02.07.12.09c.11,0,.31-.04.63-.16l.73-.27v.78c0,1.39-.02,2.71-.07,3.92-.05,2-.07,2.68-.07,2.89v.07c-.09.66-.29,1.92-.6,3.75-.01.23-.1.44-.25.62-.05.07-.08.13-.1.17,0,.03.02.08.05.15l.02.07c.02.08.08.26.28.66.22.35.44.72.65,1.11.59.93,1.05,1.56,1.37,1.88l.04.05c.14.18.24.2.28.2.07.01.11,0,.17-.03l.05-.03s.18-.18.52-.6c.1-.12.15-.29.15-.52v-.08c.04-.26.04-.57,0-.91-.09-.56-.22-1.23-.39-2.01v-.06s-.01-.06-.01-.06c0-.03,0-.14-.06-.6v-.07s0-1.32,0-1.32c0-.94.02-2.17.07-3.66v-3.69c.06-1.62.02-1.95,0-2.01v-.1c-.01-.06-.01-.23.06-1.23l.03-.51h.33c2.63-2.99,5.48-4.42,8.48-4.23,1.5.1,2.79.68,3.86,1.75,1.14,1.19,1.9,2.91,2.27,5.12v.04c.18,2,.23,4.49.14,7.41v.06s-.02.06-.02.06c-.13.51-.26,1.05-.39,1.61-.01.1-.05.23-.17.51l-.02.04c-.63,1.27-1.55,2.09-2.74,2.45-.22.1-.47.18-.77.23-.3.05-.38.08-.38.09l-.06.03c-.13.04-.27.09-.4.13l-.49.16-.18-.49c-.26-.69-.65-1.67-1.17-2.92-.1-.17-.2-.4-.29-.71l-.37-.75-1.16-1.64c.83,1.92,1.34,3.33,1.56,4.3.04.12.1.37.21,1.12.03.15.08.3.15.43.03.06.09.19.2.4l.26.51c.39.65.81,1.39,1.26,2.18l.04.06v.05s.04.02.08.03l.3.1Z"/></g></svg>