<?xml version="1.0" encoding="UTF-8"?>
<svg id="Layer_2" data-name="Layer 2" xmlns="http://www.w3.org/2000/svg" viewBox="0 0 276.11 76.8">
  <defs>
    <style>
      .cls-1 {
        stroke-width: .14px;
      }

      .cls-1, .cls-2 {
        fill: #d11c16;
      }

      .cls-1, .cls-2, .cls-3 {
        stroke: #ffc500;
        stroke-miterlimit: 10;
      }

      .cls-2, .cls-3 {
        stroke-width: .55px;
      }

      .cls-4 {
        fill: #ffc500;
      }

      .cls-3 {
        fill: #ba3a47;
      }
    </style>
  </defs>
  <g id="Layer_1-2" data-name="Layer 1">
    <g>
      <g>
        <path class="cls-2" d="m3.76,19.26c1.69,1.31,3.39,1.89,5.08,1.73.15-.08.73-.08,1.73,0,.77,0,1.92.08,3.46.23,3.16.16,6.43.39,9.82.69l2.66-.46h.12v.12c.85.92,1.89,1.85,3.12,2.77.54.39.81.65.81.81.08.08.08.46,0,1.15,0,.23-.16.89-.46,1.96-.08.23-.23.77-.46,1.62-.23.69-.39,1.27-.46,1.73-.39,1.54-.69,2.7-.92,3.46-.23,1.15-.31,1.93-.23,2.31v.58c.23.08.42.23.58.46.23.16.46.42.69.81.54.77.88,1.43,1.04,1.96.15.54.15,1,0,1.39-.16.39-.42.65-.81.81-.23.16-.73.19-1.5.12-.08,4.85-.12,7.62-.12,8.32v3.35c0,.92.04,1.5.12,1.73.31,1.39.5,2.54.58,3.46.08.77.12,1.39.12,1.85,0,.54-.12.92-.35,1.15-.62.77-.96,1.19-1.04,1.27-.23.16-.46.23-.69.23-.31-.08-.58-.27-.81-.58-.62-.62-1.43-1.77-2.43-3.46-.46-.69-.85-1.35-1.15-1.96-.39-.62-.62-1.04-.69-1.27v-.58c0-.15.08-.27.23-.35.23-.31.35-.62.35-.92.15-1.08.5-3.73,1.04-7.97,0-.46.04-2.15.12-5.08-1.46-.15-4.04.39-7.74,1.62v.23c-2.54,7.24-4.54,12.24-6.01,15.01-.92,1.85-1.85,3.16-2.77,3.93-.92.92-1.89,1.27-2.89,1.04-1.08-.38-1.85-.92-2.31-1.62-.23-.38-.35-.73-.35-1.04v-.12c1.31-1.62,2.62-3.73,3.93-6.35,1.85-3.7,3.54-7.51,5.08-11.43-1.23-1.54-1.35-3.04-.35-4.5.15-.38.54-.73,1.15-1.04h.35v-.12c.62-.15,1.27-.23,1.96-.23h.12c1,.54,2.27.77,3.81.69,3.39-.15,5.35-.23,5.89-.23h.23c.08-1.85.12-3.19.12-4.04v-2.31c-.08-.31.08-1.27.46-2.89.23-1.54.38-2.73.46-3.58-.31.08-.62.12-.92.12-2.31,0-4.85.12-7.62.35-3.54.23-5.89.65-7.04,1.27-.39.16-.77.16-1.15,0-.31-.08-.66-.27-1.04-.58-.54-.54-1.08-1.39-1.62-2.54-.46-1-.85-2-1.15-3-.16-.46-.27-.85-.35-1.15v-.81h.12l.12-.12Z"/>
        <path class="cls-3" d="m26.63,65.82h-.11l-.11-.03c-.5-.12-.94-.42-1.3-.87-.67-.68-1.49-1.86-2.51-3.59-.48-.72-.86-1.38-1.18-2-.55-.87-.7-1.23-.77-1.44l-.05-.14v-.73c0-.41.18-.78.5-1.03.04-.08.08-.16.08-.24v-.13c.16-1.06.51-3.72,1.04-7.9,0-.59.05-2.38.09-4.08-1.09.07-2.91.42-5.94,1.4-2.51,7.14-4.53,12.18-6,14.96-.97,1.95-1.95,3.32-2.97,4.18-1.44,1.42-2.83,1.47-3.74,1.26l-.1-.03c-1.27-.45-2.2-1.12-2.78-1.98l-.02-.04c-.32-.53-.48-1.04-.48-1.53v-.45l.21-.26c1.26-1.56,2.54-3.63,3.82-6.18,1.75-3.49,3.38-7.14,4.86-10.87-1.44-2.12-.89-3.91-.11-5.1.24-.52.7-.96,1.39-1.34v-.1l.72-.18c.69-.17,1.43-.26,2.19-.26h.35l.21.11c.84.45,1.96.65,3.31.58,2.62-.12,4.33-.19,5.26-.22.05-1.41.08-2.43.08-3.11v-2.22c-.06-.36-.02-1.05.48-3.16.13-.9.24-1.68.32-2.34-2.24,0-4.73.12-7.4.34-4.24.28-5.97.78-6.68,1.16l-.09.04c-.59.24-1.21.24-1.8.02-.43-.12-.87-.36-1.34-.74l-.08-.07c-.62-.62-1.22-1.54-1.81-2.81-.48-1.04-.89-2.09-1.2-3.13-.16-.47-.28-.87-.36-1.21l-.03-.11v-1.87h.67l.43-.43.66.51c1.48,1.14,2.89,1.65,4.31,1.55.31-.08.82-.1,1.96-.01.8,0,1.94.08,3.5.23,3.11.15,6.38.38,9.71.68l2.7-.45h1.06v.69c.76.79,1.68,1.59,2.74,2.39.6.43,1.01.8,1.14,1.24.14.34.13.8.05,1.54,0,.24-.08.68-.5,2.16v.04c-.08.2-.23.73-.46,1.56l-.02.05c-.22.65-.36,1.18-.43,1.59l-.02.08c-.39,1.56-.69,2.7-.92,3.46-.29,1.44-.24,1.83-.22,1.89l.02.23c.11.09.22.2.31.32.29.23.55.55.81.97.59.85.97,1.58,1.15,2.22.21.75.2,1.42-.03,2-.24.6-.67,1.05-1.26,1.3-.26.15-.58.23-1,.25-.08,5.21-.1,6.87-.1,7.34v3.35c0,1.15.06,1.42.07,1.44l.02.09c.32,1.42.52,2.63.6,3.59.08.81.12,1.44.12,1.93,0,.77-.2,1.37-.58,1.78-.94,1.17-1.02,1.25-1.08,1.31l-.14.12c-.39.26-.8.39-1.22.39Zm-4.14-8.41c.07.14.21.42.55.95l.05.08c.28.57.65,1.19,1.09,1.86l.03.04c.95,1.62,1.72,2.72,2.28,3.28l.09.1c.05.07.1.12.15.16.11-.13.35-.43.9-1.11l.07-.08h0s.07-.12.07-.49c0-.42-.04-1-.11-1.76-.07-.88-.26-1.99-.55-3.31-.08-.26-.15-.72-.15-1.98v-3.35c0-.72.04-3.6.12-8.33l.02-1.03,1.02.1c.61.06.85.02.93,0l.04-.03.09-.04c.14-.06.22-.14.28-.28.09-.23.03-.55-.03-.77-.09-.3-.31-.83-.91-1.68l-.04-.05c-.22-.37-.37-.48-.41-.51l-.15-.1-.1-.15c-.04-.05-.07-.08-.09-.09l-.64-.22v-1.18c-.06-.37-.06-1.03.25-2.58l.02-.09c.22-.73.52-1.84.9-3.39.08-.5.24-1.09.48-1.81.24-.87.38-1.37.46-1.62.38-1.34.42-1.65.42-1.7v-.09c.04-.3.05-.49.05-.61l-.06-.06v-.1c-.08-.07-.21-.17-.41-.32-1.17-.88-2.18-1.76-3.02-2.64l-2.28.4h-.12c-3.36-.32-6.65-.55-9.78-.7h-.05c-1.51-.15-2.64-.23-3.37-.23h-.07c-.87-.07-1.22-.06-1.34-.05l-.06.03-.17.02c-1.39.13-2.78-.17-4.16-.89.3.97.67,1.94,1.12,2.9.48,1.02.94,1.77,1.39,2.23.34.26.54.34.63.36l.13.04c.15.06.27.06.41.01,1.3-.67,3.71-1.11,7.37-1.35,2.76-.23,5.36-.35,7.68-.35.23,0,.46-.03.69-.09l1.29-.33-.12,1.33c-.08.87-.24,2.09-.47,3.63l-.02.08c-.44,1.84-.46,2.36-.46,2.47l.02.08v2.43c0,.84-.04,2.17-.12,4.08l-.04.91h-1.14c-.52,0-2.43.08-5.85.23-1.59.08-2.97-.15-4.08-.69-.31,0-.61.03-.91.07v.28h-1.06c-.41.24-.5.41-.51.44l-.04.1-.06.09c-.77,1.12-.67,2.16.3,3.38l.34.43-.2.51c-1.55,3.95-3.27,7.82-5.12,11.51-1.25,2.51-2.53,4.6-3.79,6.22.03.09.08.21.17.36.34.5.94.91,1.77,1.21.43.09,1.08.08,1.96-.8l.06-.06c.82-.68,1.67-1.9,2.53-3.62,1.44-2.72,3.42-7.68,5.91-14.75v-.75l.65-.22c3.86-1.29,6.52-1.83,8.13-1.66l.87.09-.02.87c-.1,3.59-.12,4.73-.12,5.06v.12c-.54,4.15-.88,6.81-1.04,7.92-.02.49-.2.97-.54,1.42l-.04.05v.12Zm1.93-25.46h0s0,0,0,0Z"/>
      </g>
      <g>
        <path class="cls-2" d="m56.25,18.54c2.93.62,4.35.89,4.27.81,1.23.31,2.27.62,3.12.92.46.16.85.27,1.15.35.31.23.54.39.69.46.31.54.54,1.35.69,2.43.08.85.08,1.66,0,2.43-.08.16-.19.58-.35,1.27-.08.31-.27,1.19-.58,2.66-.54,2.54-1.12,5.12-1.73,7.74-.77,3.16-1.43,5.85-1.96,8.08-.69,2.62-1.15,4.31-1.39,5.08-1.62,4-4.66,7.58-9.12,10.74-5.08,3.62-9.74,4.7-13.97,3.23-.16-.23-.27-.38-.35-.46-.08-.08-.12-.15-.12-.23.08-.08.19-.15.35-.23.08,0,.19-.04.35-.12,1.39-.23,2.54-.65,3.46-1.27,7.78-4.93,12.32-9.28,13.63-13.05,1.08-3.16,2.08-6.93,3-11.32.77-4,1.12-6.81,1.04-8.43,0-.31.04-1.27.12-2.89.08-1.23.08-2.23,0-3-.16-2.31-.96-4-2.43-5.08l.12-.12Z"/>
        <path class="cls-3" d="m40.83,66.31c-1.39,0-2.74-.23-4.06-.68l-.3-.1-.18-.26c-.17-.26-.24-.33-.24-.33-.24-.23-.38-.56-.38-.89v-.39l.28-.28c.15-.15.35-.29.59-.41l.2-.1h.12s.02,0,.03-.02l.13-.06.14-.02c1.25-.21,2.29-.59,3.1-1.12,7.57-4.8,12.03-9.02,13.26-12.57,1.06-3.1,2.06-6.87,2.97-11.2.75-3.89,1.09-6.66,1.02-8.19v-.04c0-.33.04-1.32.12-2.93.07-1.19.07-2.15,0-2.86-.14-2.06-.81-3.5-2.05-4.41l-.88-.65,1.26-1.25.5.11c.51.11.95.2,1.34.28l-.27-.28,3.24.81c1.25.31,2.33.63,3.21.95.42.14.78.25,1.06.32l.19.05.15.12c.37.28.51.35.54.37l.26.13.14.25c.37.65.63,1.55.81,2.76v.05c.09.9.09,1.78,0,2.6l-.02.17-.08.16s-.08.2-.27,1.05c-.05.2-.18.77-.58,2.65-.54,2.55-1.13,5.16-1.74,7.76-.77,3.16-1.43,5.86-1.96,8.09-.71,2.68-1.17,4.35-1.4,5.13l-.03.08c-1.68,4.16-4.86,7.91-9.45,11.16-3.77,2.69-7.38,4.04-10.77,4.04Zm-1.8-2.05c3.49.6,7.34-.59,11.47-3.53,4.28-3.03,7.24-6.49,8.78-10.28.23-.77.69-2.45,1.36-5.01.53-2.21,1.19-4.91,1.96-8.07.61-2.58,1.19-5.18,1.73-7.71.3-1.45.5-2.36.59-2.69.16-.71.26-1.06.34-1.27.06-.66.05-1.36-.01-2.09-.14-.94-.32-1.52-.47-1.86-.11-.07-.24-.16-.39-.27-.29-.08-.64-.18-1.04-.32-.81-.29-1.79-.58-2.93-.87-.3-.01-.67-.08-1.16-.18-.22-.04-.47-.09-.75-.15.57,1.03.9,2.27,1,3.7.08.79.08,1.85,0,3.12-.1,1.99-.11,2.61-.11,2.81.08,1.71-.27,4.53-1.06,8.63-.93,4.42-1.95,8.26-3.04,11.45-1.4,4.02-5.98,8.45-14.02,13.54-.64.43-1.4.78-2.25,1.04Zm-1.64-.67s0,.01.02.02c0,0-.01-.01-.02-.02Z"/>
      </g>
      <g>
        <path class="cls-2" d="m72.41,19.43l.23.12c2.15,1.46,4.12,2.39,5.89,2.77.31.08.58.39.81.92.15.31.31.85.46,1.62.15.77.27,1.31.35,1.62.23.54.46.92.69,1.15l.23.23c.31.23.5.42.58.58v1.04c0-.31-.16.92-.46,3.7-.31,2.08-.42,3.5-.35,4.27.08.39.08,1.62,0,3.7v6.35c-.08,2.85-.12,4.97-.12,6.35v2.31c.08.62.12,1.04.12,1.27.31,1.39.54,2.54.69,3.46.08.69.08,1.27,0,1.73,0,.62-.12,1.04-.35,1.27-.62.77-.96,1.19-1.04,1.27-.23.16-.46.19-.69.12-.23-.08-.5-.27-.81-.58-.54-.62-1.35-1.73-2.43-3.35-.46-.77-.85-1.42-1.15-1.96-.31-.62-.5-1.04-.58-1.27-.08-.31-.12-.54-.12-.69.08-.08.15-.19.23-.35.23-.23.38-.5.46-.81.46-3.31.77-5.54.92-6.7.62-5.7.73-11.47.35-17.32-.16-2.54-.54-4.16-1.15-4.85-.31-.31-.62-.88-.92-1.73-.31-.69-.62-1.54-.92-2.54-.31-1.23-.58-2.35-.81-3.35l-.12-.35Z"/>
        <path class="cls-3" d="m79.69,66.26c-.18,0-.36-.03-.53-.09-.37-.12-.76-.39-1.18-.81l-.04-.04c-.57-.65-1.39-1.78-2.5-3.45l-.02-.04c-.49-.81-.87-1.46-1.17-1.98l-.02-.04c-.44-.89-.57-1.22-.63-1.4l-.02-.06c-.1-.39-.14-.68-.14-.92v-.39l.27-.27s0,0,0,0c0,0,.02-.03.06-.1l.07-.14.11-.11c.1-.1.16-.21.2-.33.46-3.27.76-5.49.91-6.63.6-5.59.72-11.37.34-17.14-.19-3.09-.69-4.01-.9-4.27-.4-.41-.76-1.06-1.11-2.02-.32-.72-.64-1.61-.95-2.62v-.05c-.31-1.17-.58-2.29-.82-3.32l-.82-2.47,2.38,1.2c2.04,1.39,3.91,2.27,5.56,2.63.63.16,1.12.65,1.47,1.45.19.39.36.97.53,1.83.14.7.25,1.2.32,1.5.23.53.4.73.46.79l.19.19c.41.31.65.58.8.86l.1.2v1.27h-1.89c0,.39.32.84.85.89.52.05.93-.33,1.01-.71-.02.08-.09.57-.43,3.61-.36,2.46-.39,3.55-.35,4.04.06.35.11,1.15,0,3.86v6.32c-.08,2.83-.11,4.96-.11,6.35v2.25c.07.57.11.95.11,1.22.3,1.36.53,2.51.68,3.42v.05c.09.75.09,1.38.01,1.91-.01.82-.2,1.41-.58,1.82-.94,1.17-1.02,1.25-1.08,1.32l-.14.12c-.31.21-.65.31-.99.31Zm-.35-2.21c.13.13.23.21.3.26.13-.16.38-.46.82-1.01l.07-.08s0,0,0,0c0,0,.07-.15.07-.6v-.15c.07-.37.07-.86,0-1.45-.15-.9-.38-2.04-.68-3.39l-.02-.1v-.1c0-.12-.02-.43-.11-1.16v-.12s0-2.31,0-2.31c0-1.41.04-3.56.12-6.38v-6.33c.1-2.83.04-3.4.02-3.51v-.09c-.1-.86.02-2.33.34-4.51.13-1.22.24-2.16.32-2.78.04-.33.08-.63.13-.88v-.59s-.11-.1-.2-.16l-.1-.09-.23-.23c-.32-.32-.61-.8-.89-1.45l-.05-.14c-.08-.33-.2-.87-.36-1.66-.18-.9-.32-1.25-.38-1.38l-.02-.05c-.11-.24-.19-.35-.23-.39-1.34-.3-2.8-.89-4.35-1.78.11.47.23.94.35,1.43.29.94.58,1.75.88,2.41l.03.06c.35.97.61,1.29.7,1.38l.04.04c.78.88,1.22,2.6,1.39,5.42.39,5.87.27,11.76-.35,17.48-.16,1.18-.47,3.42-.93,6.73l-.02.1c-.11.43-.31.81-.6,1.13,0,.01-.02.03-.02.04.01.05.02.11.04.18.04.12.16.41.5,1.09.28.5.65,1.12,1.12,1.9,1.03,1.55,1.81,2.63,2.32,3.21Z"/>
      </g>
      <g>
        <path class="cls-2" d="m84.24,16.75c.87-1.56,1.56-3.28,2.06-5.13.72-2.51.78-4.5.16-5.97-.35-.78-.3-1.55.15-2.29.33-.61.93-1.13,1.82-1.56,1.76-.86,3.44-1.04,5.04-.53.53.23.92.56,1.17.98.22.35.27.81.15,1.39-.16.94-.79,2.17-1.9,3.69-.92,1.23-2.35,3.06-4.29,5.48-1.07,1.29-1.91,2.28-2.52,2.95-.44.44-.77.76-.99.98-.1.08-.2.16-.3.25-.02.05-.06.07-.11.04-.08.03-.15.06-.23.09l-.32-.14.1-.24Z"/>
        <path class="cls-3" d="m84.44,17.89l-1.23-.54.42-.95c.84-1.51,1.51-3.18,1.99-4.97.68-2.35.74-4.2.19-5.51-.43-.97-.37-1.98.19-2.92.4-.73,1.11-1.35,2.12-1.85,1.92-.94,3.8-1.13,5.57-.56l.07.03c.66.29,1.16.72,1.5,1.27.31.49.4,1.13.24,1.88-.18,1.05-.85,2.35-2.02,3.97-.93,1.25-2.34,3.05-4.31,5.51-1.08,1.31-1.94,2.31-2.55,2.98l-.03.03-1.27,1.21c-.13.16-.32.25-.52.27l-.36.14Zm8.78-15.96c-1.42-.44-2.89-.28-4.48.5-.74.36-1.25.79-1.51,1.26l-.02.03c-.33.55-.37,1.07-.11,1.63.68,1.63.64,3.79-.13,6.45-.28,1.06-.63,2.08-1.04,3.05.56-.63,1.27-1.47,2.12-2.5,1.93-2.4,3.36-4.24,4.26-5.45,1.03-1.42,1.63-2.57,1.77-3.39v-.03c.09-.38.07-.67-.05-.85-.18-.31-.45-.53-.83-.7Z"/>
      </g>
      <g>
        <path class="cls-2" d="m92.87,19.26c1.69,1.31,3.39,1.89,5.08,1.73.15-.08.73-.08,1.73,0,.77,0,1.92.08,3.46.23,3.16.16,6.43.39,9.82.69l2.66-.46h.12v.12c.85.92,1.89,1.85,3.12,2.77.54.39.81.65.81.81.08.08.08.46,0,1.15,0,.23-.16.89-.46,1.96-.08.23-.23.77-.46,1.62-.23.69-.39,1.27-.46,1.73-.39,1.54-.69,2.7-.92,3.46-.23,1.15-.31,1.93-.23,2.31v.58c.23.08.42.23.58.46.23.16.46.42.69.81.54.77.88,1.43,1.04,1.96.15.54.15,1,0,1.39-.16.39-.42.65-.81.81-.23.16-.73.19-1.5.12-.08,4.85-.12,7.62-.12,8.32v3.35c0,.92.04,1.5.12,1.73.31,1.39.5,2.54.58,3.46.08.77.12,1.39.12,1.85,0,.54-.12.92-.35,1.15-.62.77-.96,1.19-1.04,1.27-.23.16-.46.23-.69.23-.31-.08-.58-.27-.81-.58-.62-.62-1.43-1.77-2.43-3.46-.46-.69-.85-1.35-1.15-1.96-.39-.62-.62-1.04-.69-1.27v-.58c0-.15.08-.27.23-.35.23-.31.35-.62.35-.92.15-1.08.5-3.73,1.04-7.97,0-.46.04-2.15.12-5.08-1.46-.15-4.04.39-7.74,1.62v.23c-2.54,7.24-4.54,12.24-6.01,15.01-.92,1.85-1.85,3.16-2.77,3.93-.92.92-1.89,1.27-2.89,1.04-1.08-.38-1.85-.92-2.31-1.62-.23-.38-.35-.73-.35-1.04v-.12c1.31-1.62,2.62-3.73,3.93-6.35,1.85-3.7,3.54-7.51,5.08-11.43-1.23-1.54-1.35-3.04-.35-4.5.15-.38.54-.73,1.15-1.04h.35v-.12c.62-.15,1.27-.23,1.96-.23h.12c1,.54,2.27.77,3.81.69,3.39-.15,5.35-.23,5.89-.23h.23c.08-1.85.12-3.19.12-4.04v-2.31c-.08-.31.08-1.27.46-2.89.23-1.54.38-2.73.46-3.58-.31.08-.62.12-.92.12-2.31,0-4.85.12-7.62.35-3.54.23-5.89.65-7.04,1.27-.39.16-.77.16-1.15,0-.31-.08-.66-.27-1.04-.58-.54-.54-1.08-1.39-1.62-2.54-.46-1-.85-2-1.15-3-.16-.46-.27-.85-.35-1.15v-.81h.12l.12-.12Z"/>
        <path class="cls-3" d="m115.74,65.82h-.11l-.11-.03c-.5-.12-.94-.42-1.3-.87-.67-.68-1.49-1.86-2.51-3.59-.48-.72-.86-1.38-1.18-2-.55-.87-.7-1.23-.77-1.44l-.05-.14v-.73c0-.41.18-.78.5-1.03.04-.08.08-.16.08-.24v-.13c.16-1.06.51-3.72,1.04-7.9,0-.59.05-2.38.09-4.08-1.09.07-2.91.42-5.94,1.4-2.51,7.14-4.53,12.18-6,14.96-.97,1.95-1.95,3.32-2.97,4.18-1.44,1.42-2.83,1.47-3.74,1.26l-.1-.03c-1.27-.45-2.2-1.12-2.78-1.98l-.02-.04c-.32-.53-.48-1.04-.48-1.53v-.45l.21-.26c1.26-1.56,2.54-3.63,3.82-6.18,1.75-3.49,3.38-7.14,4.86-10.87-1.44-2.12-.89-3.91-.11-5.1.24-.52.7-.96,1.39-1.34v-.1l.72-.18c.69-.17,1.43-.26,2.19-.26h.35l.21.11c.84.45,1.96.65,3.31.58,2.62-.12,4.33-.19,5.26-.22.05-1.41.08-2.43.08-3.11v-2.22c-.06-.36-.02-1.05.48-3.16.13-.9.24-1.68.32-2.34-2.24,0-4.73.12-7.4.34-4.24.28-5.97.78-6.68,1.16l-.09.04c-.59.24-1.21.24-1.8.02-.43-.12-.87-.36-1.34-.74l-.08-.07c-.62-.62-1.22-1.54-1.81-2.81-.48-1.04-.89-2.09-1.2-3.13-.16-.47-.28-.87-.36-1.21l-.03-.11v-1.87h.67l.43-.43.66.51c1.48,1.14,2.89,1.65,4.31,1.55.31-.08.82-.1,1.96-.01.8,0,1.94.08,3.5.23,3.11.15,6.38.38,9.71.68l2.7-.45h1.06v.69c.76.79,1.68,1.59,2.74,2.39.6.43,1.01.8,1.14,1.24.14.34.13.8.05,1.54,0,.24-.08.68-.5,2.16v.04c-.08.2-.23.73-.46,1.56l-.02.05c-.22.65-.36,1.18-.43,1.59l-.02.08c-.39,1.56-.69,2.7-.92,3.46-.29,1.44-.24,1.83-.22,1.89l.02.23c.11.09.22.2.31.32.29.23.55.55.81.97.59.85.97,1.58,1.15,2.22.21.75.2,1.42-.03,2-.24.6-.67,1.05-1.26,1.3-.26.15-.58.23-1,.25-.08,5.21-.1,6.87-.1,7.34v3.35c0,1.15.06,1.42.07,1.44l.02.09c.32,1.42.52,2.63.6,3.59.08.81.12,1.44.12,1.93,0,.77-.2,1.37-.58,1.78-.94,1.17-1.02,1.25-1.08,1.31l-.14.12c-.39.26-.8.39-1.22.39Zm-4.14-8.41c.07.14.21.42.55.95l.05.08c.28.57.65,1.19,1.09,1.86l.03.04c.95,1.62,1.72,2.72,2.28,3.28l.09.1c.05.07.1.12.15.16.11-.13.35-.43.9-1.11l.07-.08h0s.07-.12.07-.49c0-.42-.04-1-.11-1.76-.07-.88-.26-1.99-.55-3.31-.08-.26-.15-.72-.15-1.98v-3.35c0-.72.04-3.6.12-8.33l.02-1.03,1.02.1c.61.06.85.02.93,0l.04-.03.09-.04c.14-.06.22-.14.28-.28.09-.23.03-.55-.03-.77-.09-.3-.31-.83-.91-1.68l-.04-.05c-.22-.37-.37-.48-.41-.51l-.15-.1-.1-.15c-.04-.05-.07-.08-.09-.09l-.64-.22v-1.18c-.06-.37-.06-1.03.25-2.58l.02-.09c.22-.73.52-1.84.9-3.39.08-.5.24-1.09.48-1.81.24-.87.38-1.37.46-1.62.38-1.34.42-1.65.42-1.7v-.09c.04-.3.05-.49.05-.61l-.06-.06v-.1c-.08-.07-.21-.17-.41-.32-1.17-.88-2.18-1.76-3.02-2.64l-2.28.4h-.12c-3.36-.32-6.65-.55-9.78-.7h-.05c-1.51-.15-2.64-.23-3.37-.23h-.07c-.87-.07-1.22-.06-1.34-.05l-.06.03-.17.02c-1.39.13-2.78-.17-4.16-.89.3.97.67,1.94,1.12,2.9.48,1.02.94,1.77,1.39,2.23.34.26.54.34.63.36l.13.04c.15.06.27.06.41.01,1.3-.67,3.71-1.11,7.37-1.35,2.76-.23,5.36-.35,7.68-.35.23,0,.46-.03.69-.09l1.29-.33-.12,1.33c-.08.87-.24,2.09-.47,3.63l-.02.08c-.44,1.84-.46,2.36-.46,2.47l.02.08v2.43c0,.84-.04,2.17-.12,4.08l-.04.91h-1.14c-.52,0-2.43.08-5.85.23-1.6.08-2.97-.15-4.08-.69-.31,0-.61.03-.91.07v.28h-1.06c-.41.24-.5.41-.51.44l-.04.1-.06.09c-.77,1.12-.67,2.16.3,3.38l.34.43-.2.51c-1.55,3.95-3.27,7.82-5.12,11.51-1.25,2.51-2.53,4.6-3.79,6.22.03.09.08.21.17.36.34.5.94.91,1.77,1.21.43.09,1.08.08,1.96-.8l.06-.06c.82-.68,1.67-1.9,2.53-3.62,1.44-2.72,3.42-7.68,5.91-14.75v-.75l.65-.22c3.86-1.29,6.52-1.83,8.13-1.66l.87.09-.02.87c-.1,3.59-.12,4.73-.12,5.06v.12c-.54,4.15-.88,6.81-1.04,7.92-.02.49-.2.97-.54,1.42l-.04.05v.12Zm1.93-25.46h0s0,0,0,0Z"/>
      </g>
      <path class="cls-4" d="m128.69,2.35c1.45,1.12,2.73,1.84,3.85,2.17.78.33,1.73.39,2.84.17.78,0,2.12.06,4.01.17,2.23.11,4.24.28,6.02.5.78,0,1.56.11,2.34.33,8.03,1.56,14.16,5.13,18.4,10.7,2.23,2.9,3.34,5.91,3.34,9.03,0,3.35-1.45,6.69-4.35,10.04-2.57,3.01-4.41,4.96-5.52,5.85-3.12,3.12-7.14,6.13-12.04,9.03h-.17c-.78.45-1.51.56-2.17.33-.45-.33-1.06-1-1.84-2.01-.67-.33-1.45-.72-2.34-1.17-1-.56-1.62-.89-1.84-1-.56-.33-.95-.61-1.17-.84-.33-.22-.5-.5-.5-.84.11-.22.33-.44.67-.67.44-.22,1.06-.5,1.84-.84,1.23-.44,3.68-1.17,7.36-2.17h.17c2.01-.33,4.63-1.34,7.86-3.01,3.23-1.67,5.52-3.34,6.86-5.02.22-.56.33-1,.33-1.34-1-8.7-5.35-15.39-13.05-20.07-1.9-.67-4.35-.67-7.36,0-2.45.56-4.74,1.4-6.86,2.51-.45.22-.89.22-1.34,0-.45-.11-.89-.39-1.34-.84-.78-.89-1.51-2.12-2.17-3.68-.67-1.45-1.17-2.95-1.51-4.52-.22-.67-.33-1.23-.33-1.67-.11-.44-.17-.78-.17-1v-.17s.17,0,.17,0Zm10.2,58.36c1.11-.11,2.62.56,4.52,2.01.56.33,1.39.95,2.51,1.84,1,.78,1.78,1.4,2.34,1.84,1.34.89,2.01,1.95,2.01,3.18,0,1.12-.45,2.23-1.34,3.34-.78,1-1.78,1.84-3.01,2.51-1.34.56-2.51.78-3.51.67-2.79-.56-4.91-2.01-6.36-4.35-1.56-2.34-1.73-4.96-.5-7.86.78-2.01,1.89-3.07,3.34-3.18Z"/>
      <path class="cls-1" d="m142.92,76.73c-.23,0-.45-.01-.66-.04l-.12-.02c-3.16-.63-5.6-2.3-7.25-4.97-1.8-2.7-2.01-5.78-.6-9.11,1.2-3.1,3.1-3.9,4.49-4.01,1.47-.14,3.24.59,5.41,2.24.61.37,1.46,1,2.59,1.9.97.76,1.74,1.36,2.3,1.8,2.12,1.44,2.57,3.12,2.57,4.28,0,1.43-.55,2.84-1.64,4.2-.88,1.13-2.04,2.1-3.42,2.85l-.13.06c-1.28.53-2.46.8-3.53.8Zm-.3-2.75c.74.07,1.65-.12,2.71-.55,1.03-.57,1.87-1.28,2.52-2.11.7-.87,1.05-1.71,1.05-2.5,0-.47-.14-1.2-1.4-2.04l-.09-.07c-.56-.44-1.33-1.05-2.33-1.83-1.08-.86-1.87-1.45-2.37-1.75l-.13-.09c-2.18-1.66-3.21-1.77-3.55-1.73h-.03c-.33.03-1.32.1-2.17,2.31-1.06,2.51-.94,4.66.36,6.6,1.27,2.05,3.03,3.26,5.42,3.75Zm3.33-21.81c-.38,0-.76-.06-1.13-.19l-.21-.07-.18-.13c-.51-.38-1.14-1.04-1.91-2.02l-2.12-1.06c-1.29-.71-1.68-.92-1.79-.98l-.08-.05c-.61-.36-1.04-.67-1.34-.95-.64-.47-1-1.14-1-1.89v-.32s.14-.29.14-.29c.22-.44.59-.83,1.13-1.2l.15-.09c.47-.23,1.11-.53,1.91-.87l.07-.03c1.27-.46,3.78-1.2,7.46-2.21l.18-.05h.23c1.84-.33,4.31-1.29,7.35-2.86,2.94-1.52,5.05-3.03,6.29-4.5.12-.33.15-.51.16-.59-.98-8.23-4.99-14.4-12.26-18.87-1.63-.53-3.81-.5-6.48.09-2.32.53-4.52,1.33-6.52,2.38-.8.4-1.66.43-2.45.08-.64-.19-1.26-.58-1.83-1.16l-.06-.06c-.88-1.01-1.67-2.33-2.4-4.04-.68-1.48-1.22-3.07-1.57-4.69-.23-.7-.35-1.31-.38-1.85-.12-.49-.17-.87-.17-1.18V.98s2,0,2,0l.37.28c1.31,1.01,2.45,1.66,3.4,1.95l.15.05c.52.22,1.2.25,2.03.08l.27-.03c.79,0,2.09.05,4.09.17,2.21.11,4.24.28,6.03.5.85,0,1.72.13,2.57.37,8.3,1.63,14.75,5.4,19.17,11.21,2.4,3.13,3.62,6.45,3.62,9.86,0,3.67-1.58,7.35-4.68,10.93-2.6,3.05-4.44,5.01-5.64,5.98-3.18,3.17-7.31,6.26-12.26,9.19l-.32.19h-.2c-.62.3-1.22.45-1.82.45Zm-.07-2.74c.17.01.45-.03.87-.26l.32-.18h.16c4.64-2.77,8.49-5.67,11.45-8.63l.11-.1c1.04-.83,2.83-2.74,5.33-5.67,2.67-3.08,4.02-6.16,4.02-9.15,0-2.8-1.03-5.55-3.06-8.2-4.01-5.28-9.92-8.71-17.57-10.19l-.11-.03c-.66-.19-1.32-.28-1.97-.28h-.17c-1.75-.23-3.74-.39-5.92-.5-1.82-.11-3.07-.16-3.82-.17-1.29.24-2.45.16-3.44-.25-.53-.17-1.09-.4-1.66-.7.31,1.38.77,2.74,1.36,4.02.62,1.44,1.26,2.54,1.93,3.32.25.24.48.4.66.44l.15.04.14.07s.05.02.05.02c0,0,.02,0,.05-.02,2.19-1.15,4.61-2.04,7.17-2.62,3.3-.73,5.96-.72,8.12.04l.13.05.12.07c8.04,4.89,12.64,11.99,13.69,21.08v.16c0,.51-.13,1.12-.42,1.85l-.08.19-.13.16c-1.47,1.84-3.86,3.6-7.3,5.38-3.4,1.76-6.1,2.78-8.26,3.14l-.21.02c-3.48.95-5.85,1.65-7.04,2.08-.4.17-.75.33-1.06.47.1.07.23.15.38.24.27.14.86.46,1.81.99l2.59,1.3.19.25c.69.89,1.13,1.35,1.39,1.59Z"/>
      <g>
        <path class="cls-2" d="m184.55,19.86c1.69,1.31,3.39,1.89,5.08,1.73.15-.08.65-.08,1.5,0,1.08,0,2.12.04,3.12.12,2.62.16,5.62.39,9.01.69,3.85.31,6.89.58,9.12.81,3,.31,4.89.62,5.66.92.62.23,1.23.16,1.85-.23.69-.38,1.35-.5,1.96-.35.46.16,1.12.5,1.96,1.04.85.54,1.69,1.19,2.54,1.96.85.77,1.5,1.46,1.96,2.08.31.39.5.69.58.92.15.31.19.58.12.81-.16.39-.46.65-.92.81-.31.16-.73.19-1.27.12-.85-.08-1.89-.42-3.12-1.04-.08,0-.58-.15-1.5-.46.46.39.73.66.81.81v1.04c0-.31-.19.96-.58,3.81-.23,2.08-.31,3.46-.23,4.16v3.35c0,1.39-.04,3.31-.12,5.77v7.97c.08.54.12.92.12,1.15.31,1.31.5,2.47.58,3.46.08.69.12,1.27.12,1.73,0,.62-.12,1.04-.35,1.27-.62.77-.96,1.19-1.04,1.27-.23.16-.46.19-.69.12-.23-.08-.5-.27-.81-.58-.62-.62-1.43-1.73-2.43-3.35-.46-.69-.85-1.35-1.15-1.96-.31-.62-.5-1.08-.58-1.39-.08-.23-.12-.42-.12-.58,0-.08.08-.19.23-.35.23-.23.38-.54.46-.92.46-3.31.77-5.5.92-6.58.54-5.23.65-10.43.35-15.59-.16-2.54-.58-4.16-1.27-4.85-.46-.54-.92-1-1.39-1.39-5.39-1.08-8.97-1.65-10.74-1.73-2.31,0-4.81.12-7.51.35-3.54.23-5.93.65-7.16,1.27-.39.16-.77.16-1.15,0-.31-.08-.62-.27-.92-.58-.62-.54-1.19-1.39-1.73-2.54-.46-.92-.85-1.92-1.15-3-.16-.46-.23-.85-.23-1.15-.08-.38-.12-.65-.12-.81v-.12h.23Zm15.36,21.71c.54-.08,1,0,1.39.23.31.23.5.54.58.92,0,.23-.04.58-.12,1.04-.16.46-.35,1.04-.58,1.73-.46,1.23-1.04,2.62-1.73,4.16-.54,1.15-1.04,3.5-1.5,7.05-.16,1.15-.27,2.43-.35,3.81-.16,1.54-.23,2.27-.23,2.19v.12c-.23,1.08-.89,1.85-1.96,2.31-.92.39-1.93.42-3,.12-1.08-.31-1.81-.88-2.19-1.73-.46-.92-.35-2.04.35-3.35h.12c1.62-1.77,3.19-5.43,4.74-10.97v-.12c.15-.54.31-1.62.46-3.23v-.92c0-.31.04-.54.12-.69,0-.54.04-.92.12-1.15.08-.15.27-.35.58-.58.31-.15.65-.31,1.04-.46.85-.31,1.58-.46,2.19-.46Z"/>
        <path class="cls-3" d="m221.04,66.69c-.18,0-.36-.03-.53-.09-.37-.12-.76-.39-1.18-.81-.67-.67-1.51-1.82-2.56-3.52-.48-.72-.88-1.39-1.2-2.04-.34-.67-.54-1.16-.64-1.54-.1-.32-.15-.59-.15-.84,0-.45.27-.78.51-1.02.09-.09.16-.23.2-.42.46-3.27.76-5.45.92-6.54.53-5.15.64-10.34.34-15.42-.19-3.12-.76-4-1-4.24l-.05-.05c-.37-.43-.73-.8-1.1-1.12-5.16-1.03-8.64-1.59-10.33-1.67-2.27,0-4.76.12-7.4.34-4.25.28-6.05.79-6.82,1.17l-.07.03c-.59.24-1.21.24-1.8.02-.45-.12-.87-.39-1.28-.79-.71-.63-1.35-1.56-1.94-2.83-.48-.95-.88-2.01-1.2-3.12-.17-.51-.26-.94-.27-1.33-.1-.54-.12-.78-.12-.91v-1.06h1.5l.26.2c1.47,1.14,2.88,1.65,4.31,1.55.3-.08.76-.1,1.74-.01,1.06,0,2.12.04,3.15.12,2.59.15,5.63.39,9.02.69,3.92.31,6.91.58,9.14.81,4.15.43,5.36.77,5.91.99.21.08.53.14,1-.15l.04-.03c.9-.5,1.8-.65,2.65-.44l.07.02c.54.18,1.25.55,2.17,1.14.89.56,1.78,1.26,2.67,2.06.9.82,1.58,1.55,2.08,2.21.35.44.57.8.69,1.13.24.52.29,1.01.14,1.47l-.02.06c-.18.44-.57,1.02-1.44,1.33-.47.22-1.04.28-1.74.18-.8-.08-1.71-.34-2.76-.81v.22h-1.89c0,.38.32.83.83.89.51.06.92-.3,1.01-.67-.02.11-.13.68-.54,3.71-.27,2.47-.28,3.5-.23,3.93v.11s0,3.35,0,3.35c0,1.37-.04,3.27-.12,5.8v7.87c.07.5.11.85.11,1.1.3,1.32.5,2.5.58,3.51.08.71.12,1.31.12,1.81,0,.85-.19,1.47-.58,1.89-.94,1.17-1.02,1.25-1.08,1.31l-.14.12c-.31.21-.65.31-.99.31Zm-4.32-8.62s.01.04.02.06l.02.08c.03.13.14.46.5,1.19.28.57.65,1.19,1.1,1.86.98,1.58,1.75,2.64,2.31,3.2.14.14.25.23.32.28.14-.16.38-.46.82-1.01l.07-.08s0,0,0,0c0,0,.07-.15.07-.6,0-.42-.04-.96-.11-1.63-.08-.97-.26-2.09-.56-3.35l-.02-.11v-.11c0-.12-.02-.4-.11-1.02v-.13s0-7.97,0-7.97c.08-2.55.12-4.43.12-5.77v-3.3c-.08-.78,0-2.19.24-4.31.18-1.31.31-2.28.41-2.93.05-.35.1-.65.16-.91v-.57c-.09-.09-.23-.22-.47-.42l-3.84-3.21,4.74,1.58c.86.29,1.18.38,1.3.41h.13l.2.1c1.12.56,2.05.88,2.78.94h.05c.48.08.66,0,.71-.02l.13-.05c.18-.06.26-.13.3-.19,0-.02-.02-.06-.05-.11l-.05-.12s-.08-.21-.42-.64c-.44-.58-1.06-1.24-1.86-1.97-.81-.73-1.62-1.36-2.41-1.86-.93-.59-1.44-.83-1.72-.93-.36-.08-.77,0-1.22.25-.86.53-1.77.63-2.66.3-.49-.2-1.81-.5-5.42-.87-2.21-.23-5.19-.49-9.1-.81-3.38-.31-6.4-.54-8.99-.69-1.01-.08-2.03-.11-3.06-.11h-.08c-.69-.07-.99-.06-1.09-.05l-.07.03-.17.02c-1.39.13-2.78-.17-4.16-.89v.04c.3,1.01.67,1.96,1.1,2.84.49,1.05.99,1.8,1.51,2.25l.05.05c.18.18.35.29.48.33l.13.04c.15.06.27.06.42,0,1.37-.67,3.81-1.11,7.48-1.35,2.69-.23,5.24-.35,7.57-.35h.04c1.84.08,5.4.65,10.88,1.75l.24.05.18.15c.49.41.99.91,1.48,1.47.86.89,1.35,2.62,1.52,5.43.31,5.19.19,10.48-.35,15.75v.04c-.16,1.08-.47,3.27-.93,6.58v.06c-.11.52-.32.96-.64,1.31Zm-22.93,8.32c-.54,0-1.09-.08-1.65-.24-1.35-.38-2.29-1.14-2.8-2.25-.59-1.17-.47-2.59.37-4.18l.27-.5h.25c1.41-1.75,2.83-5.16,4.22-10.16v-.12l.04-.13c.09-.32.24-1.11.43-3.02v-.88c0-.34.04-.63.12-.87,0-.56.06-.97.16-1.28l.05-.12c.15-.3.41-.58.86-.91l.14-.09c.33-.16.69-.32,1.11-.49.96-.35,1.77-.52,2.48-.53.73-.09,1.38.03,1.94.37l.08.06c.49.37.81.88.94,1.49l.02.19c0,.28-.04.66-.13,1.19l-.04.15-.58,1.73c-.48,1.28-1.07,2.7-1.77,4.25-.35.74-.87,2.51-1.43,6.78-.15,1.13-.27,2.39-.34,3.74v.04c-.08.74-.13,1.29-.17,1.65-.01.14-.03.29-.06.45v.22l-.02.1c-.29,1.37-1.16,2.4-2.52,2.98-.63.27-1.3.4-1.98.4Zm-2.58-5.42c-.39.86-.44,1.55-.16,2.11.28.62.8,1.02,1.61,1.25.88.25,1.65.22,2.38-.08.76-.33,1.2-.82,1.38-1.55h0s.01-.06.02-.09l.39.08h.51l-.9-.15c.02-.15.16-1.51.22-2.12.08-1.39.2-2.69.35-3.86.48-3.67,1-6.07,1.58-7.32.68-1.5,1.25-2.88,1.7-4.09l.54-1.63c.06-.36.08-.58.09-.71-.03-.1-.08-.17-.16-.24-.19-.1-.43-.12-.72-.08h-.13c-.5,0-1.13.15-1.87.41-.31.12-.6.25-.86.38-.1.08-.17.14-.2.18-.02.12-.04.34-.04.75v.22l-.1.2s0,0,0,0c0,0-.02.08-.02.27v1.01c-.16,1.6-.3,2.64-.46,3.27v.12l-.03.12c-1.6,5.74-3.22,9.46-4.95,11.36l-.16.17Z"/>
      </g>
      <g>
        <path class="cls-2" d="m233.42,18.89c.08,0,.19.04.35.12,2.08,1.39,3.96,2.27,5.66,2.66.46.08.85.46,1.15,1.15.15.39.31.96.46,1.73.15.85.27,1.39.35,1.62.15.46.31.73.46.81.08.08.15.16.23.23l.12.12c.77-.46,1.5-.92,2.19-1.39,2.08-1.77,5.73-2.96,10.97-3.58,4.93-.54,8.47-.31,10.63.69h.12v.12c2.23.69,4.16,2.16,5.77,4.39v.12c1.31,1.93,2.27,5.04,2.89,9.35.31,3.23.08,7.66-.69,13.28-.62,2.85-1.39,5.35-2.31,7.51-.39,1.08-.85,2.31-1.39,3.7-.08,0-.12.04-.12.12-.62,1.15-2.16,2.27-4.62,3.35-2.08.92-4.04,1.5-5.89,1.73h-.23l-.69-.23c-.39-.15-.62-.38-.69-.69-.77-1.39-1.5-2.66-2.19-3.81-.46-.92-.73-1.46-.81-1.62-.16-.31-.27-.65-.35-1.04-.16-1-.27-1.62-.35-1.85-.39-1.69-1.35-4.31-2.89-7.85-.16-.23-.31-.62-.46-1.15-.23-.46-.39-.85-.46-1.15-.16-.31-.08-.58.23-.81.31-.15.58-.08.81.23l3.93,5.54v.12c.15.31.35.69.58,1.15.15.54.31.92.46,1.15.92,2.23,1.62,3.97,2.08,5.2.23-.08.46-.15.69-.23.15-.08.46-.15.92-.23.46-.08.85-.19,1.15-.35,1.85-.54,3.27-1.81,4.27-3.81.15-.38.23-.62.23-.69.23-1,.46-1.96.69-2.89.15-5.08.08-9.35-.23-12.82-.62-3.7-1.85-6.51-3.7-8.43-1.69-1.69-3.74-2.62-6.12-2.77-5.01-.31-9.74,2.12-14.21,7.28-.08.08-.16.12-.23.12-.08,1.15-.12,1.85-.12,2.08.08.39.08,1.62,0,3.7v6.47c-.08,2.62-.12,4.73-.12,6.35v2.31c.08.62.12,1,.12,1.15.31,1.39.54,2.58.69,3.58.08.69.08,1.31,0,1.85,0,.62-.16,1.12-.46,1.5-.62.77-1,1.19-1.15,1.27-.31.23-.65.31-1.04.23-.39-.08-.73-.31-1.04-.69-.62-.62-1.46-1.77-2.54-3.46-.39-.69-.77-1.35-1.15-1.96-.31-.62-.5-1.08-.58-1.39-.16-.38-.19-.69-.12-.92.08-.15.19-.35.35-.58.15-.15.23-.35.23-.58.54-3.23.88-5.43,1.04-6.58,0-.54.04-2.23.12-5.08.08-2.08.12-4.35.12-6.81-.62.23-1.12.35-1.5.35-.54-.08-.89-.35-1.04-.81-.16-.31-.16-.77,0-1.39,0-.08.04-.15.12-.23.69-.85,1.54-1.81,2.54-2.89v-.46c-.16-2.39-.54-3.89-1.15-4.5-.31-.38-.62-1.04-.92-1.96-.31-.69-.62-1.54-.92-2.54-.31-1-.58-2.12-.81-3.35h-.12c-.08-.46.12-.73.58-.81h.12Z"/>
        <path class="cls-3" d="m259.81,67.65h-.44l-.89-.3c-.76-.3-1.08-.8-1.22-1.2-.75-1.35-1.47-2.59-2.13-3.69l-.03-.06-.46-.92c-.19-.37-.3-.61-.35-.7-.19-.37-.33-.8-.42-1.27-.21-1.36-.3-1.67-.32-1.74l-.02-.08c-.37-1.62-1.31-4.18-2.8-7.62-.18-.3-.35-.7-.51-1.26-.22-.46-.38-.84-.47-1.18-.29-.69-.09-1.4.56-1.88l.14-.09c.72-.36,1.48-.16,1.99.51l4.12,5.81v.19l.54,1.12c.17.6.29.82.34.89l.09.17c.73,1.76,1.32,3.22,1.76,4.37.19-.06.47-.13.9-.2.37-.06.67-.15.89-.26l.16-.06c1.59-.46,2.79-1.54,3.67-3.29.09-.22.13-.34.15-.4h0s.02-.12.02-.12c.23-.98.45-1.92.67-2.8.15-4.95.07-9.18-.23-12.57-.58-3.47-1.74-6.13-3.44-7.9-1.53-1.53-3.33-2.34-5.5-2.48-4.67-.29-9.19,2.05-13.43,6.95l-.03.04c-.06.93-.08,1.31-.08,1.47.05.38.09,1.23,0,3.8v6.43c-.08,2.6-.11,4.73-.11,6.35v2.25c.08.62.1.92.11,1.1.3,1.36.53,2.56.68,3.55v.04c.09.74.09,1.42.01,2.02-.01.8-.24,1.48-.67,2.02-.86,1.08-1.17,1.35-1.39,1.48-.51.36-1.11.48-1.73.36-.59-.12-1.12-.45-1.56-.99-.67-.68-1.53-1.85-2.63-3.59l-.03-.05c-.38-.68-.76-1.32-1.13-1.92l-.04-.08c-.33-.66-.53-1.14-.63-1.52-.22-.58-.26-1.08-.11-1.52l.05-.12c.1-.19.23-.42.41-.69l.07-.13v-.08c.54-3.15.88-5.34,1.04-6.49,0-.62.04-2.36.12-5.04.06-1.73.1-3.59.11-5.54-.2.03-.38.05-.55.05h-.13c-.87-.13-1.5-.62-1.78-1.39-.23-.5-.25-1.12-.06-1.9.03-.2.11-.46.34-.7.64-.78,1.41-1.66,2.3-2.63v-.06c-.19-2.89-.68-3.67-.88-3.87l-.07-.08c-.38-.47-.73-1.19-1.07-2.21-.32-.72-.64-1.6-.95-2.61-.25-.81-.48-1.71-.68-2.68h-.14l-.13-.79c-.1-.61.08-1.02.25-1.25.17-.24.5-.54,1.1-.64h.16s.12-.01.12-.01c.23,0,.46.07.76.21l.11.06c1.97,1.31,3.76,2.16,5.32,2.52.78.14,1.39.71,1.83,1.7v.04c.19.44.36,1.06.52,1.89.2,1.1.29,1.42.32,1.5.03.1.06.18.09.24.51-.31.99-.62,1.45-.93,2.25-1.89,5.99-3.12,11.43-3.76,5.02-.55,8.59-.32,10.94.69h.86v.39c2.14.82,4.02,2.34,5.59,4.51l.18.25v.14c1.32,2.07,2.26,5.18,2.88,9.5v.04c.32,3.29.08,7.83-.69,13.5v.07c-.64,2.89-1.43,5.46-2.37,7.65-.38,1.06-.85,2.3-1.38,3.69l-.23.6h-.16c-.82,1.21-2.41,2.32-4.84,3.39-2.15.96-4.22,1.56-6.15,1.8h-.06Zm-.14-1.89h.02c1.73-.22,3.6-.78,5.57-1.65,2.67-1.17,3.72-2.17,4.11-2.83.05-.14.13-.27.23-.38.49-1.27.92-2.42,1.27-3.4l.02-.05c.89-2.07,1.65-4.53,2.25-7.3.75-5.49.98-9.87.69-13.01-.59-4.14-1.51-7.14-2.73-8.93l-.16-.24v-.09c-1.45-1.92-3.17-3.19-5.11-3.8l-.67-.21v-.14c-2.03-.77-5.29-.91-9.69-.43-5.02.59-8.54,1.72-10.46,3.36l-.09.07c-.69.46-1.44.94-2.23,1.41l-.63.38-.64-.64c-.05-.05-.11-.11-.16-.16-.4-.29-.61-.79-.76-1.25-.06-.17-.16-.55-.38-1.75-.14-.68-.27-1.2-.4-1.53-.2-.44-.37-.58-.44-.59h-.05c-1.61-.38-3.39-1.17-5.31-2.37.19.93.41,1.78.64,2.54.29.96.59,1.77.88,2.44l.03.09c.33,1.01.6,1.45.74,1.64.77.82,1.21,2.43,1.38,5.06v.06s0,.83,0,.83l-.25.27c-.96,1.03-1.78,1.97-2.45,2.78-.11.49-.05.66-.05.66l.05.12c.02.07.04.12.21.16.2-.01.54-.07,1.1-.28l1.28-.48v1.36c0,2.43-.04,4.73-.12,6.85-.09,3.49-.11,4.67-.11,5.05v.13c-.16,1.15-.51,3.35-1.04,6.55-.02.41-.17.78-.43,1.07-.08.12-.14.22-.18.29,0,.05.03.13.08.27l.04.13c.03.13.14.45.49,1.15.38.61.76,1.26,1.14,1.94,1.03,1.62,1.84,2.72,2.4,3.28l.07.08c.24.31.42.34.48.35.13.03.2,0,.29-.06l.08-.06c.08-.07.31-.31.9-1.05.17-.21.25-.51.25-.91v-.13c.07-.45.07-.99,0-1.59-.15-.97-.38-2.15-.68-3.5l-.02-.1v-.1s-.01-.25-.11-1.04v-.12s0-2.31,0-2.31c0-1.64.04-3.79.12-6.38v-6.44c.1-2.82.04-3.4.02-3.51l-.02-.18c0-.1,0-.39.12-2.14l.06-.88h.58c4.6-5.22,9.57-7.71,14.79-7.39,2.61.17,4.88,1.19,6.73,3.05,1.99,2.07,3.31,5.07,3.96,8.94v.07c.32,3.49.4,7.84.24,12.93v.1s-.03.1-.03.1c-.22.88-.45,1.83-.67,2.81-.02.17-.1.41-.29.89l-.03.07c-1.11,2.21-2.71,3.65-4.77,4.27-.38.18-.82.31-1.35.4-.52.09-.66.15-.67.15l-.11.05c-.23.08-.47.16-.7.23l-.86.28-.32-.85c-.45-1.2-1.14-2.92-2.04-5.09-.18-.3-.34-.7-.5-1.25l-.64-1.31-2.02-2.85c1.44,3.35,2.34,5.81,2.73,7.5.06.21.17.65.37,1.95.05.26.14.53.26.76.05.1.17.33.35.7l.45.89c.68,1.14,1.42,2.42,2.19,3.81l.06.11.02.1s.05.03.11.06l.52.17Z"/>
      </g>
    </g>
  </g>
</svg>