<svg xmlns="http://www.w3.org/2000/svg" width="26.636" height="31.975" viewBox="0 0 26.636 31.975">
    <g id="Group_218" data-name="Group 218" transform="translate(0 0)">
        <path id="Path_145" data-name="Path 145" d="M122.482,69.777c-.2-.749-.333-1.165-.333-1.165-.216-.774-.766-.774-1.582-.907l-4.42-.558c-.549-.092-.549-.092-.766-.566-.724-1.632-.949-2.581-1.74-2.581h-8.574c-.791,0-1.007.949-1.732,2.589-.216.466-.216.466-.766.566l-4.429.558c-.807.133-1.39.208-1.607.982,0,0-.1.341-.308,1.082-.266.991-.375.882.541.882h25.174C122.857,70.668,122.757,70.768,122.482,69.777Z" transform="translate(-96.038 -64)" fill="#c95151" />
        <path id="Path_146" data-name="Path 146" d="M137.849,176H117.3c-1.382,0-1.448.183-1.365,1.224l1.557,20.2c.133,1.024.233,1.232,1.457,1.232H136.2c1.224,0,1.324-.208,1.457-1.232l1.557-20.2C139.3,176.175,139.231,176,137.849,176Z" transform="translate(-114.26 -166.677)" fill="#c95151" />
    </g>
</svg>
