<?xml version="1.0" encoding="UTF-8"?><svg id="Layer_2" xmlns="http://www.w3.org/2000/svg" xmlns:xlink="http://www.w3.org/1999/xlink" viewBox="0 0 803 615"><defs><style>.cls-1{fill:#f2e6c7;}.cls-2{fill:#1c7eb6;}.cls-3{fill:#fffdf3;filter:url(#drop-shadow-1);}</style><filter id="drop-shadow-1" filterUnits="userSpaceOnUse"><feOffset dx="8.46" dy="8.46"/><feGaussianBlur result="blur" stdDeviation="16.93"/><feFlood flood-color="#000" flood-opacity=".27"/><feComposite in2="blur" operator="in"/><feComposite in="SourceGraphic"/></filter></defs><g id="Layer_1-2"><path class="cls-3" d="m742.41,84.49v428.98c0,23.07-18.7,41.77-41.76,41.77H84.73c-23.07,0-41.77-18.7-41.77-41.77V84.49c0-20.94,15.41-38.28,35.51-41.3.58-.09,1.16-.17,1.75-.22,1.48-.17,2.99-.25,4.51-.25h615.92c.74,0,1.48.02,2.22.05.39.03.78.05,1.16.09,21.48,1.72,38.38,19.7,38.38,41.63Z"/><path class="cls-1" d="m262.81,52.58c-.1-.25-.28-.46-.52-.59-.51-.27-1.03-.54-1.55-.79-27.58-13.77-60.73-8.43-83,13.54-4.47,4.41-8.32,9.34-11.54,14.63-27.55-13.76-60.78-8.4-82.99,13.5-1.03,1.02-2.03,2.06-2.99,3.13-.6.66-1.18,1.33-1.75,2.01-18.42,21.89-23.41,53.11-12.42,80.15-5.29,3.08-10.25,6.84-14.74,11.27-3.08,3.04-5.87,6.31-8.35,9.77v3.96c2.82-4.32,6.12-8.37,9.87-12.07,4.49-4.42,9.47-8.16,14.77-11.2.11-.01.21-.02.32-.07.12-.05.22-.13.31-.22.04-.03.04-.08.07-.12,2.85-1.59,5.8-2.96,8.82-4.13.22.05.44.05.66-.05.12-.06.22-.13.31-.22.04-.03.04-.09.07-.12,2.1-.78,4.23-1.46,6.39-2.03h.01c.44-.11.88-.22,1.31-.33.51-.12,1.02-.24,1.53-.35.29.15.63.18.95.02.11-.05.21-.12.29-.21.02-.01.02-.05.03-.07,6.67-1.32,13.55-1.67,20.46-.97-.95,2.85-1.72,5.75-2.35,8.69-17.68-1.33-35.17,5.17-48.02,17.85-7.22,7.11-12.54,15.71-15.8,25.01v8.03c2.65-11.73,8.52-22.7,17.32-31.38,12.33-12.16,29.08-18.42,46.03-17.23-.54,2.92-.92,5.88-1.13,8.85-14.36-.84-28.56,4.54-38.99,14.83-16.08,15.86-20.78,40.59-11.69,61.55.25.57.9.83,1.46.57.12-.05.22-.13.31-.21.33-.33.44-.85.25-1.31-8.71-20.06-4.21-43.74,11.2-58.93,9.99-9.85,23.58-15.01,37.33-14.2-.13,2.96-.13,5.93.07,8.91-11.61-.83-23.07,3.42-31.49,11.73-12.76,12.58-16.49,32.21-9.3,48.85.25.58.91.84,1.46.58.12-.05.23-.12.31-.21.34-.33.45-.85.25-1.3-6.81-15.76-3.27-34.34,8.8-46.25,8.07-7.96,19.08-12,30.2-11.1.3,3.07.72,6.13,1.37,9.16-9.28-1.42-18.83,1.68-25.65,8.4-9.44,9.31-12.2,23.84-6.89,36.16.25.58.9.84,1.46.58.12-.05.23-.13.31-.22.34-.32.45-.84.25-1.3-4.93-11.43-2.36-24.92,6.4-33.55,6.48-6.39,15.6-9.28,24.41-7.73.11.02.21,0,.32,0,.89,3.58,2.02,7.11,3.44,10.56-7.36-3.6-16.3-2.24-22.26,3.63-6.13,6.05-7.92,15.48-4.45,23.46.25.58.91.83,1.47.57.55-.26.8-.94.55-1.52-3.08-7.09-1.49-15.47,3.96-20.84,5.61-5.54,14.24-6.63,20.98-2.65.29.17.62.14.92.02.28.62.52,1.26.81,1.87.28.57.95.8,1.49.51.1-.05.19-.12.27-.19.34-.34.45-.89.22-1.35-14.14-29.02-8.13-64.96,14.62-87.39,22.01-21.71,54.97-26.68,82.02-12.37.02.01.05.01.08.02.07.03.14.05.22.07.07.01.13.02.2.02s.14-.01.21-.03c.07-.01.14-.03.21-.05.02-.02.05-.01.08-.03.06-.03.11-.07.16-.11.02-.02.05-.04.07-.06.01-.01.03-.01.04-.02.01-.02.01-.05.03-.06.07-.08.14-.15.19-.25.04-.08.04-.17.06-.25.01-.04.03-.07.04-.11.03-.22-.01-.43-.09-.62-.01-.02,0-.04-.01-.06-3.49-7.18-2-16.06,3.61-21.6,5.45-5.38,13.6-6.6,20.27-3.05.55.29,1.22.06,1.49-.49.28-.57.07-1.26-.47-1.55-7.51-4-16.68-2.63-22.81,3.42-5.62,5.54-7.54,14.04-5.15,21.53-3.1-1.49-6.26-2.75-9.48-3.77-.81-8.98,2.4-17.98,8.71-24.21,5.88-5.8,13.72-8.6,21.49-8.09.74.05,1.48.13,2.22.23,2.81.42,5.59,1.27,8.23,2.58.23.11.46.23.69.35.43.23.94.13,1.27-.19.09-.09.16-.19.22-.31.28-.57.06-1.26-.48-1.55-.3-.16-.6-.31-.9-.45-2.65-1.3-5.43-2.17-8.24-2.62-.75-.13-1.5-.23-2.26-.29-8.57-.73-17.28,2.28-23.76,8.67-6.6,6.51-10.03,15.84-9.44,25.22-2.87-.8-5.76-1.43-8.68-1.87-.05-11.24,4.34-22.06,12.2-29.81,9.05-8.93,21.49-12.69,33.39-10.69.76.11,1.52.26,2.27.44,2.81.65,5.58,1.62,8.26,2.94.35.17.69.35,1.04.53.43.23.94.14,1.27-.19.09-.08.16-.19.22-.31.28-.56.06-1.25-.48-1.54-.3-.16-.61-.32-.91-.46-2.68-1.34-5.44-2.36-8.26-3.06-.75-.18-1.52-.35-2.28-.49-12.81-2.41-26.29,1.54-36.05,11.17-8.23,8.11-12.85,19.42-12.87,31.19-2.85-.33-5.71-.52-8.56-.51.13-13.99,5.73-27.47,15.52-37.13,12.69-12.51,30.55-17.07,47-12.67.77.19,1.53.42,2.29.67,2.73.87,5.42,1.99,8.02,3.38.1.05.2.08.3.1.35.07.7-.04.96-.29.09-.09.17-.19.23-.31.15-.3.16-.62.05-.91-.09-.27-.27-.5-.53-.64-2.46-1.3-4.98-2.39-7.55-3.26-.76-.26-1.53-.5-2.3-.71-17.43-5.01-36.51-.33-50,12.97-10.24,10.11-16.09,24.23-16.21,38.87-2.89.1-5.76.33-8.61.77-.09-17.36,6.76-34.09,18.92-46.08,16.74-16.52,40.93-21.63,62.3-13.79.77.28,1.54.58,2.3.9,1.71.71,3.4,1.5,5.06,2.38.43.22.93.13,1.26-.19.09-.09.17-.2.23-.31.28-.57.06-1.26-.49-1.55-1.39-.74-2.8-1.42-4.23-2.03-.77-.34-1.54-.66-2.31-.96-22.39-8.7-48.01-3.51-65.65,13.88-12.7,12.52-19.81,30.04-19.61,48.17-2.87.54-5.71,1.21-8.5,2.1-.81-21.36,7.21-41.97,22.19-56.73,21.28-20.99,52.8-26.33,79.3-13.72.78.36,1.55.75,2.32,1.15.13.06.26.13.39.2.43.23.94.14,1.27-.19.09-.09.16-.19.22-.31.15-.31.16-.66.04-.96Zm-134.98,88.27c-4.04,3.98-7.53,8.4-10.53,13.1-2.02-6.61-.29-13.96,4.64-18.82,4.85-4.78,11.89-6.24,18.1-3.96-4.33,2.76-8.44,5.96-12.21,9.68Zm14.58-11.16c-7.34-3.5-16.11-2.03-22,3.77-5.99,5.91-7.81,15.09-4.62,22.95-2.31,3.95-4.25,8.1-5.83,12.38-.09-.01-.19-.02-.28-.03l.09-.06c.35-.35.45-.92.21-1.39-7.31-13.94-5.43-30.87,4.51-40.28,11.26-10.67,24.21-11.49,38.48-2.45.01.01.03.01.04.02-3.64,1.4-7.18,3.09-10.6,5.09Zm12.48-5.77c-.12.04-.23.09-.35.13.22-.52.06-1.13-.42-1.43-15-9.51-29.22-8.57-41.13,2.72-10.74,10.28-12.87,27.97-4.96,43.07.05.09.12.16.18.23-2.69-.23-5.39-.31-8.06-.24-.02-.05,0-.11-.03-.16-8.92-16.23-6.07-36.53,6.93-49.35,12.03-11.86,30.96-14.19,47.11-5.81.32.17.66.14.96,0-.32,3.58-.4,7.2-.23,10.84Zm.43-12.76c-.06-.04-.1-.1-.17-.13-16.98-8.82-36.92-6.33-49.62,6.19-13.51,13.33-16.63,34.27-7.78,51.27-3.13.19-6.24.61-9.3,1.21-8.73-20.1-4.32-43.65,11.17-58.92,15.39-15.18,38.4-18.65,57.27-8.64-.69,2.96-1.22,5.97-1.57,9.02Zm2.11-11.29c-19.62-10.16-43.39-6.49-59.34,9.24-16.05,15.83-20.69,40.15-11.87,61.03-.72.16-1.43.34-2.14.53-.43.11-.86.23-1.29.36-1.65.46-3.28.99-4.89,1.58-.35-.88-.68-1.77-.99-2.66-.15-.42-.3-.85-.43-1.28-4.94-15.12-4.07-31.48,1.99-45.75.54-1.28,1.12-2.54,1.75-3.78,3.03-6.04,7.04-11.62,11.96-16.48,18.2-17.94,45.44-22.41,68.05-11.3-1.08,2.78-2.03,5.61-2.8,8.51Zm3.67-10.62c-23.42-11.47-51.61-6.83-70.44,11.75-4.11,4.05-7.59,8.58-10.44,13.46-.62,1.05-1.2,2.12-1.75,3.21-8.24,16.08-9.78,35.32-3.71,52.85h0c.14.43.29.85.44,1.27.2.54.41,1.08.62,1.61-1.18.47-2.35.97-3.5,1.5-1.46.66-2.9,1.38-4.31,2.14-10.22-25.34-5.98-54.44,10.46-75.48.56-.72,1.14-1.44,1.75-2.14,1.41-1.69,2.92-3.32,4.51-4.89,21.49-21.18,53.61-26.4,80.29-13.19-1.46,2.56-2.76,5.2-3.92,7.91Zm-118.14,170.33v7.99c.5,1.43,1.05,2.84,1.66,4.24.25.57.9.83,1.46.57.12-.05.22-.12.31-.21.33-.33.45-.85.25-1.3-1.59-3.68-2.81-7.46-3.68-11.29Z"/><path class="cls-1" d="m135.28,148.98c19.38-19.12,48.4-23.49,72.2-10.89.54.29.76.98.48,1.54-.28.56-.94.79-1.49.5-22.96-12.16-50.96-7.94-69.66,10.51-19.32,19.05-24.44,49.58-12.45,74.23.23.46.12,1.01-.23,1.35-.08.08-.16.14-.26.19-.55.29-1.21.06-1.49-.51-12.43-25.55-7.13-57.18,12.9-76.93Z"/><path class="cls-1" d="m142.71,157.09c16.08-15.86,40.13-19.48,59.84-9,.54.29.76.98.48,1.55-.28.56-.95.79-1.49.5-18.87-10.03-41.9-6.57-57.31,8.62-15.89,15.67-20.1,40.79-10.23,61.07.23.46.12,1.01-.23,1.35-.08.08-.16.14-.26.19-.55.29-1.21.06-1.49-.51-10.3-21.18-5.91-47.41,10.69-63.77Z"/><path class="cls-1" d="m150.15,165.2c12.75-12.58,31.84-15.45,47.5-7.16.54.29.76.98.48,1.54-.28.56-.94.79-1.49.5-14.82-7.85-32.89-5.13-44.97,6.78-12.47,12.3-15.77,32-8.02,47.92.23.46.12,1.01-.23,1.35-.08.08-.16.14-.26.19-.55.29-1.21.06-1.49-.51-8.18-16.81-4.7-37.63,8.47-50.62Z"/><path class="cls-1" d="m157.59,173.33c9.44-9.31,23.57-11.44,35.16-5.31.54.29.76.98.48,1.55-.28.57-.95.79-1.49.5-10.76-5.69-23.87-3.71-32.63,4.93-9.19,9.06-11.53,23.03-5.82,34.75.23.46.12,1.01-.23,1.35-.08.08-.16.14-.26.19-.55.29-1.21.06-1.49-.51-6.15-12.64-3.63-27.69,6.27-37.45Z"/><path class="cls-1" d="m165.03,181.45c6.13-6.05,15.3-7.42,22.81-3.42.54.29.76.98.48,1.55-.28.56-.95.79-1.49.5-6.67-3.55-14.82-2.33-20.27,3.05-5.62,5.54-7.1,14.42-3.61,21.6.23.46.12,1.01-.23,1.35-.08.08-.16.14-.26.19-.55.29-1.21.06-1.49-.51-3.93-8.08-2.25-18.07,4.06-24.3Z"/><path class="cls-1" d="m691.61,171.99s.02.06.04.07c.08.09.18.16.29.21.31.16.66.13.95-.02,3.14.68,6.22,1.59,9.24,2.71.03.03.03.09.07.12.09.09.19.16.31.22.12.06.24.08.36.08.1.01.2-.01.3-.03.29.11.57.22.86.34,2.72,1.09,5.38,2.35,7.96,3.79.03.04.03.09.07.12.09.09.19.17.31.22.11.05.21.06.32.07,5.3,3.04,10.28,6.78,14.77,11.2,6.28,6.19,11.29,13.37,14.95,21.14v-4.92c-3.53-6.51-8.03-12.55-13.43-17.88-4.49-4.43-9.45-8.19-14.74-11.27,10.53-25.92,6.38-55.69-10.21-77.39-.37-.5-.76-.99-1.16-1.48-1.79-2.24-3.72-4.38-5.79-6.42-22.21-21.9-55.45-27.26-82.99-13.5-3.22-5.29-7.07-10.22-11.54-14.63-22.69-22.38-56.67-27.5-84.55-12.75-.49.26-.71.83-.55,1.35.01.07.04.13.07.2.05.12.13.22.22.31.22.22.51.33.81.31.15,0,.32-.04.46-.12,27.04-14.31,60-9.34,82.01,12.37,14.98,14.76,23,35.37,22.19,56.73-2.79-.89-5.63-1.56-8.5-2.1.19-18.13-6.91-35.65-19.61-48.17-18.58-18.33-46.03-23.11-69.24-12.35-.73.33-1.45.68-2.16,1.05-.27.13-.54.27-.8.41-.54.29-.76.98-.48,1.55.06.11.14.22.23.31.33.32.83.41,1.26.19.5-.26,1-.52,1.5-.76.71-.36,1.43-.7,2.15-1.01,22.23-9.91,48.29-5.2,66.01,12.28,12.16,11.99,19.01,28.72,18.92,46.08-2.85-.44-5.72-.67-8.61-.77-.12-14.64-5.97-28.76-16.22-38.87-14.56-14.36-35.64-18.68-54.13-11.6-.72.28-1.43.57-2.14.88-1.2.52-2.39,1.1-3.57,1.72-.54.29-.76.98-.48,1.55.06.12.14.22.22.31.34.32.84.41,1.27.19,1.29-.69,2.6-1.31,3.93-1.87.71-.3,1.43-.59,2.15-.84,17.56-6.47,37.45-2.26,51.23,11.33,9.79,9.66,15.39,23.14,15.52,37.13-2.85,0-5.71.18-8.56.51-.02-11.77-4.64-23.08-12.87-31.19-10.93-10.79-26.52-14.44-40.62-10.04-.72.23-1.43.48-2.13.74-1.61.61-3.2,1.32-4.75,2.14-.54.29-.76.98-.48,1.54.06.12.13.23.22.31.33.33.84.42,1.27.19,1.57-.83,3.17-1.54,4.8-2.13.7-.26,1.41-.5,2.13-.71,13.23-3.97,27.79-.48,38.03,9.62,7.86,7.75,12.25,18.57,12.2,29.81-2.92.44-5.81,1.07-8.68,1.87.59-9.38-2.84-18.71-9.44-25.22-7.72-7.61-18.59-10.43-28.63-7.84-.72.18-1.43.4-2.13.64-1.5.5-2.97,1.13-4.4,1.89-.54.29-.76.98-.48,1.55.06.12.13.22.22.31.33.32.84.42,1.27.19,1.55-.82,3.14-1.48,4.77-1.98.25-.08.5-.15.75-.22,0-.01.01-.01.02-.01,9.46-2.64,19.79-.06,27.09,7.14,6.31,6.23,9.52,15.23,8.71,24.21-3.22,1.02-6.38,2.28-9.48,3.77,2.39-7.49.47-15.99-5.15-21.53-6.13-6.05-15.3-7.42-22.81-3.42-.54.29-.75.98-.47,1.55.27.55.94.78,1.49.49,6.67-3.55,14.81-2.33,20.27,3.05,5.61,5.54,7.1,14.42,3.61,21.6-.01.02,0,.04-.01.06-.08.19-.12.4-.09.62.01.04.02.07.03.11.02.08.03.17.07.25.05.1.12.17.19.25.02.01.02.04.03.06.01.01.03.01.04.02.02.02.05.04.07.06.05.04.1.08.16.11.03.02.05.01.08.03.07.02.14.04.21.05.07.02.14.03.21.03s.13-.01.2-.02c.07-.02.15-.04.22-.07.03-.01.06-.01.08-.02,27.05-14.31,60-9.34,82.02,12.37,22.75,22.43,28.76,58.37,14.62,87.39-.23.46-.12,1.01.22,1.35.08.07.17.14.27.19.54.29,1.21.06,1.48-.51.3-.61.54-1.25.82-1.87.3.12.63.15.92-.02,6.74-3.98,15.37-2.89,20.98,2.65,5.45,5.37,7.04,13.75,3.96,20.84-.25.58,0,1.26.55,1.52.56.26,1.22.01,1.47-.57,3.47-7.98,1.68-17.41-4.45-23.46-5.96-5.87-14.9-7.23-22.26-3.63,1.42-3.45,2.55-6.98,3.44-10.56.11,0,.21.03.32,0,8.81-1.55,17.93,1.34,24.41,7.73,2.08,2.06,3.82,4.39,5.18,6.9.43.78.82,1.58,1.16,2.39,3.29,7.56,3.45,16.4.06,24.26-.03.06-.05.12-.06.18-.05.2-.05.4,0,.59.05.2.15.39.31.53.08.09.19.17.31.22.55.26,1.21,0,1.46-.58,4.26-9.88,3.33-21.17-2.08-30.06-.36-.6-.74-1.19-1.16-1.77-1.07-1.54-2.29-2.99-3.65-4.33-6.82-6.72-16.37-9.82-25.65-8.4.65-3.03,1.07-6.09,1.37-9.16,10.11-.82,20.13,2.45,27.93,9.03.39.33.78.67,1.16,1.02.37.34.75.69,1.11,1.05,12.07,11.91,15.61,30.49,8.8,46.25-.2.45-.09.97.24,1.3.09.09.2.16.31.21.56.26,1.22,0,1.47-.58,7.19-16.64,3.46-36.27-9.3-48.85-.85-.84-1.72-1.63-2.63-2.38-.38-.32-.77-.63-1.16-.93-7.91-6.11-17.75-9.13-27.71-8.42.21-2.98.21-5.95.08-8.91,9.69-.57,19.31,1.82,27.63,6.74.39.23.77.46,1.16.7,3.05,1.91,5.92,4.18,8.54,6.76,15.4,15.19,19.91,38.87,11.2,58.93-.19.46-.08.98.25,1.31.09.08.19.16.31.21.56.26,1.21,0,1.46-.57,9.09-20.96,4.39-45.69-11.69-61.55-3.06-3.02-6.45-5.62-10.07-7.76-.38-.23-.77-.45-1.16-.67-8.44-4.7-18.06-6.97-27.76-6.4-.21-2.97-.59-5.93-1.13-8.85,9.99-.7,19.91,1.18,28.89,5.34.39.18.78.37,1.16.56,5.82,2.84,11.23,6.65,15.98,11.33,18.7,18.45,24.18,47.24,13.64,71.65-.2.45-.08.97.25,1.3.09.09.19.16.31.21.55.26,1.21,0,1.46-.57,10.93-25.3,5.25-55.14-14.14-74.25-5.18-5.11-11.11-9.21-17.5-12.2-.39-.19-.77-.36-1.16-.54-9.17-4.06-19.24-5.87-29.36-5.11-.63-2.94-1.4-5.84-2.35-8.69,6.91-.7,13.79-.35,20.45.97Zm-76.34-90.65c26.68-13.21,58.8-7.99,80.28,13.19,2.67,2.64,5.11,5.45,7.32,8.42.4.53.78,1.07,1.16,1.61,14.59,20.75,17.99,48.32,8.25,72.48-2.53-1.37-5.15-2.58-7.81-3.64,6.61-16.6,6.2-35.02-.44-50.97-.37-.89-.76-1.76-1.16-2.63-3.23-6.92-7.67-13.31-13.24-18.8-18.83-18.58-47.02-23.22-70.44-11.75-1.16-2.71-2.46-5.35-3.92-7.91Zm7.59,18.53c-.77-2.9-1.72-5.73-2.81-8.51,22.62-11.11,49.86-6.64,68.06,11.3,6.63,6.54,11.59,14.39,14.76,22.89.42,1.12.81,2.26,1.16,3.4,3.91,12.52,4.04,26.2,0,39.04-.35,1.13-.74,2.25-1.16,3.37-.15.42-.31.83-.48,1.25-2.73-.99-5.5-1.82-8.32-2.47,8.82-20.88,4.18-45.2-11.87-61.03-15.95-15.73-39.72-19.4-59.34-9.24Zm2.11,11.29c-.35-3.05-.88-6.06-1.57-9.02,18.87-10.01,41.88-6.54,57.27,8.64,15.49,15.27,19.9,38.82,11.17,58.92-3.06-.6-6.17-1.02-9.3-1.21,8.85-17,5.73-37.94-7.78-51.27-12.7-12.52-32.64-15.01-49.62-6.19-.07.03-.11.09-.17.13Zm38.02,42.79c-3-4.7-6.49-9.12-10.53-13.1-3.77-3.72-7.88-6.92-12.21-9.68,6.21-2.28,13.25-.82,18.1,3.96,4.93,4.86,6.66,12.21,4.64,18.82Zm7.53,14.75s.06.04.09.06c-.09.01-.19.02-.28.03-1.58-4.28-3.52-8.43-5.83-12.38,3.19-7.86,1.37-17.04-4.62-22.95-5.89-5.8-14.66-7.27-22.01-3.77-3.41-2-6.95-3.69-10.59-5.09.01,0,.03,0,.04-.02,14.27-9.04,27.22-8.22,38.48,2.45,9.94,9.41,11.82,26.34,4.51,40.28-.24.47-.14,1.04.21,1.39Zm1.74-.29c7.91-15.1,5.78-32.79-4.96-43.07-11.91-11.29-26.13-12.23-41.13-2.72-.48.3-.64.91-.42,1.43-.12-.04-.23-.09-.35-.13.17-3.64.09-7.26-.23-10.84.3.14.64.17.96,0,16.15-8.38,35.08-6.05,47.11,5.81,13,12.82,15.85,33.12,6.93,49.35-.03.05-.01.11-.03.16-2.67-.07-5.37.01-8.06.24.06-.07.13-.14.18-.23Z"/><path class="cls-1" d="m645.02,148.98c-19.38-19.12-48.4-23.49-72.2-10.89-.54.29-.76.98-.48,1.54.28.56.94.79,1.49.5,22.96-12.16,50.96-7.94,69.66,10.51,19.32,19.05,24.44,49.58,12.45,74.23-.23.46-.12,1.01.23,1.35.08.08.16.14.26.19.55.29,1.21.06,1.49-.51,12.43-25.55,7.13-57.18-12.9-76.93Z"/><path class="cls-1" d="m637.58,157.09c-16.08-15.86-40.13-19.48-59.84-9-.54.29-.76.98-.48,1.55.28.56.95.79,1.49.5,18.87-10.03,41.9-6.57,57.31,8.62,15.89,15.67,20.1,40.79,10.23,61.07-.23.46-.12,1.01.23,1.35.08.08.16.14.26.19.55.29,1.21.06,1.49-.51,10.3-21.18,5.91-47.41-10.69-63.77Z"/><path class="cls-1" d="m630.15,165.2c-12.75-12.58-31.84-15.45-47.5-7.16-.54.29-.76.98-.48,1.54.28.56.94.79,1.49.5,14.82-7.85,32.89-5.13,44.97,6.78,12.47,12.3,15.77,32,8.02,47.92-.23.46-.12,1.01.23,1.35.08.08.16.14.26.19.55.29,1.21.06,1.49-.51,8.18-16.81,4.7-37.63-8.47-50.62Z"/><path class="cls-1" d="m622.7,173.33c-9.44-9.31-23.57-11.44-35.16-5.31-.54.29-.76.98-.48,1.55.28.57.95.79,1.49.5,10.76-5.69,23.87-3.71,32.63,4.93,9.19,9.06,11.53,23.03,5.82,34.75-.23.46-.12,1.01.23,1.35.08.08.16.14.26.19.55.29,1.21.06,1.49-.51,6.15-12.64,3.63-27.69-6.27-37.45Z"/><path class="cls-1" d="m615.26,181.45c-6.13-6.05-15.3-7.42-22.81-3.42-.54.29-.76.98-.48,1.55.28.56.95.79,1.49.5,6.67-3.55,14.82-2.33,20.27,3.05,5.62,5.54,7.1,14.42,3.61,21.6-.23.46-.12,1.01.23,1.35.08.08.16.14.26.19.55.29,1.21.06,1.49-.51,3.93-8.08,2.25-18.07-4.06-24.3Z"/><path class="cls-1" d="m544.52,90.45c-.12-.36-.25-.71-.37-1.07-1.01-2.84-2.18-5.59-3.48-8.24-.34-.7-.7-1.4-1.06-2.08-1.42-2.69-3-5.28-4.7-7.74-.45-.66-.91-1.3-1.38-1.94-1.86-2.51-3.85-4.88-5.97-7.12-.56-.59-1.13-1.17-1.7-1.74-2.31-2.28-4.75-4.41-7.31-6.36-.36-.27-.73-.55-1.1-.82-6.3-4.62-13.3-8.22-20.74-10.62h-9.34c13.72,2.54,26.32,9.18,36.33,18.85.58.55,1.15,1.12,1.71,1.7,2.12,2.19,4.12,4.53,5.98,6.99.46.62.92,1.26,1.37,1.9,1.72,2.43,3.29,4.98,4.72,7.64.36.68.72,1.36,1.06,2.05,1.31,2.63,2.47,5.36,3.48,8.17.14.4.28.8.42,1.2.15.45.53.73.96.76h.08c.12,0,.25-.02.37-.06.11-.04.21-.09.3-.16,0-.01.01-.01.02-.01.36-.31.52-.82.35-1.3Zm-10.18,3.74c-8.88-26.15-32.82-43.71-59.56-43.71-17.52,0-34.3,7.61-46.21,20.9-2.43-1.66-4.94-3.21-7.55-4.56,10.8-12.75,25.32-21.18,41.19-24.1h-9.35c-2.18.7-4.32,1.51-6.42,2.41-.3-.81-.62-1.62-.96-2.41h-2.42c.48,1.09.93,2.2,1.35,3.32-2.63,1.24-5.2,2.62-7.68,4.16-.91-2.6-2-5.1-3.26-7.48h-2.53c1.54,2.75,2.85,5.67,3.89,8.74-2.47,1.65-4.86,3.46-7.13,5.42,0-.07,0-.14-.03-.21-1.8-5.17-4.35-9.86-7.47-13.95h-2.87c3.49,4.22,6.32,9.19,8.25,14.73.12.34.39.57.7.68-2.61,2.36-5.08,4.93-7.37,7.69-.11-.05-.22-.1-.33-.16.49-.22.78-.77.64-1.33-2.52-9.76-7.01-17.02-13.25-21.61h-4.12c7.34,4,12.45,11.43,15.23,22.21,0,.01.01.02.02.04-3.57-1.59-7.26-2.89-11.06-3.89-3-7.78-10.33-12.99-18.46-12.99s-15.67,5.35-18.58,13.34c-4.3,1.21-8.46,2.82-12.45,4.79-.06-.07-.13-.14-.19-.21.04,0,.08.01.11.01.49,0,.94-.34,1.07-.85,2.58-9.97,8.82-18.08,16.56-22.45h-4.29c-6.74,4.87-11.99,12.53-14.41,21.85-.02.1-.02.2-.02.3-1.8-2.1-3.7-4.08-5.69-5.94.02-.05.08-.08.09-.13,1.44-6.06,4.13-11.51,7.76-16.08h-2.79c-3.09,4.26-5.44,9.17-6.85,14.56-2.4-2.1-4.93-4.02-7.55-5.77,1.04-3.09,2.35-6.03,3.89-8.79h-2.53c-1.25,2.39-2.35,4.9-3.26,7.52-2.48-1.55-5.04-2.93-7.67-4.16.42-1.14.87-2.26,1.35-3.36h-2.42c-.33.81-.65,1.62-.96,2.45-2.13-.92-4.3-1.74-6.51-2.45h-9.43c1.91.34,3.8.77,5.67,1.28.08.06.17.13.27.17.13.05.25.07.38.07.04,0,.08-.04.12-.04,3.12.88,6.17,2,9.14,3.31.13.19.29.35.51.43.12.04.25.07.38.07.04,0,.08-.04.12-.04,2.93,1.34,5.77,2.89,8.5,4.64.11.31.34.58.68.69.11.04.23.06.34.06.03,0,.05-.02.07-.02,5.72,3.8,10.93,8.46,15.48,13.91-2.59,1.38-5.07,2.94-7.48,4.62-11.93-13.6-28.92-21.39-46.66-21.39s-35.57,8.36-47.33,22.14c-.42.49-.84,1-1.24,1.51-1.86,2.31-3.57,4.76-5.11,7.35-.39.65-.77,1.3-1.14,1.97-1.41,2.56-2.67,5.23-3.74,8.01-.28.71-.55,1.43-.8,2.15-.07.19-.13.39-.2.58-.2.59.1,1.25.68,1.46.12.05.25.07.37.07.46,0,.88-.3,1.04-.77,8.57-25.23,31.67-42.18,57.47-42.18,17.02,0,33.31,7.44,44.81,20.41-2.34,1.74-4.57,3.61-6.71,5.61-9.84-10.88-23.71-17.12-38.1-17.12-22.19,0-42.02,14.57-49.35,36.25-.2.6.1,1.25.68,1.46.12.05.24.07.37.07.45,0,.88-.3,1.04-.77,7.02-20.76,26.01-34.71,47.26-34.71,13.78,0,27.06,5.98,36.49,16.4-2.06,2.05-4.03,4.21-5.86,6.5-7.87-8.89-19-14-30.63-14-17.6,0-33.34,11.55-39.18,28.76-.2.6.1,1.25.68,1.46.12.05.24.07.37.07.45,0,.88-.3,1.04-.77,5.53-16.28,20.43-27.23,37.09-27.23,11.13,0,21.8,4.94,29.26,13.54-1.82,2.44-3.55,4.96-5.09,7.63-5.79-7.67-14.76-12.25-24.17-12.25-13.02,0-24.68,8.55-29.01,21.28-.2.6.1,1.26.68,1.47.12.04.24.06.36.06.46,0,.89-.29,1.05-.76,4.02-11.82,14.84-19.75,26.92-19.75,8.94,0,17.47,4.43,22.83,11.85.06.09.15.15.23.21-1.73,3.23-3.25,6.6-4.52,10.12-2.94-7.87-10.32-13.28-18.54-13.28s-16.02,5.56-18.8,13.82c-.21.6.1,1.26.68,1.47.57.2,1.21-.11,1.41-.71,2.47-7.35,9.19-12.28,16.71-12.28s14.73,5.38,16.96,13.07c.1.34.36.55.65.68-.2.65-.45,1.28-.65,1.94-.17.61.16,1.25.75,1.43.1.04.21.05.31.05.48,0,.92-.32,1.06-.82,9.03-31.14,37.25-52.89,68.64-52.89s57.56,19.96,67.66,49.66c.01.03.03.05.04.07.03.08.08.15.12.21.04.06.08.11.13.16.05.05.11.09.17.13.06.04.12.08.19.11.03.01.05.03.08.04.06.02.12.02.19.03.03,0,.05.01.08.01.02,0,.03.01.05.01s.04-.02.06-.02c.1-.01.2-.01.3-.05.08-.03.15-.08.21-.13.04-.02.07-.03.11-.06.16-.13.27-.31.34-.51.01-.02.03-.03.04-.05,2.24-7.69,9.21-13.07,16.96-13.07s14.24,4.93,16.71,12.28c.2.6.84.91,1.41.71.58-.21.89-.87.68-1.47-2.78-8.26-10.34-13.82-18.8-13.82-7.75,0-14.78,4.79-18.03,11.93-1.26-3.3-2.71-6.48-4.37-9.51,5.38-7.09,13.68-11.32,22.4-11.32,12.08,0,22.9,7.93,26.92,19.75.16.47.59.76,1.05.76.12,0,.24-.02.36-.06.58-.21.88-.87.68-1.47-4.33-12.73-15.99-21.28-29.01-21.28-9.11,0-17.79,4.31-23.59,11.53-1.55-2.63-3.22-5.16-5.05-7.56,7.43-8.18,17.8-12.89,28.64-12.89,16.66,0,31.56,10.95,37.09,27.23.16.47.59.77,1.05.77.12,0,.24-.02.36-.07.58-.21.88-.86.68-1.46-5.84-17.21-21.58-28.76-39.18-28.76-11.35,0-22.22,4.89-30.05,13.4-1.84-2.28-3.79-4.45-5.86-6.49,9.39-10.04,22.4-15.81,35.91-15.81,21.25,0,40.24,13.95,47.26,34.71.16.47.59.77,1.05.77.12,0,.24-.02.36-.07.58-.21.88-.86.68-1.46-7.33-21.68-27.16-36.25-49.35-36.25-14.14,0-27.75,6.05-37.57,16.58-2.15-1.99-4.39-3.88-6.75-5.6,11.47-12.64,27.54-19.88,44.32-19.88,25.8,0,48.9,16.95,57.47,42.18.16.47.59.77,1.04.77.12,0,.25-.02.37-.07.58-.21.88-.87.68-1.46Zm-146.29-35.44c-5.57,0-11.03.71-16.33,1.97,2.93-6.23,9.06-10.33,15.86-10.33s12.77,3.98,15.75,10.07c-4.96-1.09-10.07-1.71-15.28-1.71Zm-109.65-16.03c-6.25,2.02-12.19,4.88-17.66,8.48-.73.48-1.45.98-2.17,1.49-2.71,1.92-5.29,4.02-7.73,6.3-.61.57-1.22,1.16-1.82,1.76-2.27,2.27-4.41,4.69-6.4,7.26-.5.65-.99,1.3-1.47,1.97-1.83,2.52-3.51,5.18-5.04,7.95-.39.7-.77,1.42-1.13,2.14-1.4,2.72-2.64,5.55-3.71,8.48-.24.63-.46,1.26-.68,1.9-.04.12-.06.23-.07.35-.01.49.28.95.74,1.12.12.04.25.06.37.06.46,0,.88-.29,1.04-.76.02-.06.04-.13.07-.19.25-.74.51-1.47.79-2.19,1.08-2.88,2.33-5.65,3.72-8.33.37-.7.75-1.4,1.14-2.09,1.53-2.71,3.21-5.3,5.05-7.77.48-.65.97-1.29,1.48-1.93,1.98-2.5,4.12-4.86,6.4-7.07.6-.58,1.21-1.15,1.83-1.7,2.45-2.22,5.03-4.26,7.74-6.11.63-.43,1.27-.85,1.92-1.26,7.56-4.83,16.01-8.21,24.94-9.86h-9.35Z"/><path class="cls-1" d="m388.06,69.96c26.75,0,50.68,17.57,59.56,43.71.2.6-.1,1.25-.68,1.46-.57.21-1.21-.1-1.41-.7-8.57-25.23-31.66-42.18-57.47-42.18s-50.64,18.46-58.32,44.9c-.14.5-.58.82-1.06.82-.11,0-.21-.01-.32-.05-.59-.18-.92-.82-.74-1.43,7.96-27.4,32.81-46.54,60.44-46.54Z"/><path class="cls-1" d="m388.06,81.15c22.19,0,42.02,14.57,49.35,36.25.2.6-.1,1.25-.68,1.46-.58.2-1.21-.11-1.41-.7-7.02-20.76-26.01-34.71-47.26-34.71s-41.66,15.19-47.98,36.95c-.14.5-.58.82-1.06.82-.11,0-.21-.01-.32-.05-.59-.18-.92-.82-.74-1.43,6.6-22.72,27.2-38.58,50.1-38.58Z"/><path class="cls-1" d="m388.06,92.35c17.6,0,33.34,11.56,39.18,28.76.2.6-.1,1.26-.68,1.46-.57.21-1.21-.1-1.41-.7-5.53-16.29-20.43-27.23-37.09-27.23s-32.68,11.92-37.64,29c-.14.5-.58.82-1.06.82-.11,0-.21-.02-.32-.05-.59-.18-.92-.82-.74-1.43,5.24-18.03,21.59-30.63,39.76-30.63Z"/><path class="cls-1" d="m388.06,103.56c13.02,0,24.68,8.55,29.01,21.28.2.6-.1,1.26-.67,1.47-.58.21-1.21-.1-1.41-.7-4.02-11.81-14.84-19.75-26.92-19.75-12.68,0-23.65,8.45-27.3,21.03-.14.5-.58.82-1.06.82-.11,0-.21-.01-.32-.05-.59-.18-.92-.82-.74-1.43,3.94-13.55,15.76-22.66,29.42-22.66Z"/><path class="cls-1" d="m388.06,114.76c8.46,0,16.02,5.55,18.81,13.82.2.6-.1,1.25-.68,1.46-.57.2-1.21-.11-1.41-.71-2.47-7.34-9.19-12.28-16.71-12.28s-14.72,5.38-16.96,13.07c-.14.5-.58.82-1.06.82-.11,0-.21-.02-.32-.05-.59-.18-.92-.82-.74-1.43,2.52-8.66,10.37-14.71,19.08-14.71Z"/><path class="cls-1" d="m46.39,348.74c-.09-.09-.19-.16-.31-.21-.56-.26-1.21,0-1.46.57-.61,1.4-1.16,2.81-1.66,4.24v7.99c.87-3.83,2.09-7.61,3.68-11.29.2-.45.08-.97-.25-1.3Zm206.56,198.64c-.06-.12-.14-.22-.23-.31-.26-.25-.62-.36-.97-.29-.1.02-.2.05-.29.1-2.6,1.38-5.29,2.51-8.02,3.38-.76.25-1.52.47-2.29.67-16.45,4.4-34.31-.16-47-12.67-9.79-9.66-15.39-23.14-15.52-37.13,2.85.01,5.71-.18,8.56-.51.02,11.77,4.64,23.08,12.87,31.19,9.76,9.63,23.24,13.58,36.05,11.17.76-.14,1.53-.31,2.28-.5,2.81-.69,5.58-1.71,8.25-3.04.31-.15.61-.31.92-.47.54-.29.76-.98.48-1.54-.06-.12-.13-.23-.22-.32-.33-.32-.84-.41-1.27-.19-.35.19-.7.36-1.05.53-2.67,1.32-5.43,2.3-8.24,2.95h0c-.75.17-1.51.32-2.27.44-11.9,2-24.34-1.76-33.39-10.69-7.86-7.75-12.25-18.57-12.2-29.81,2.92-.44,5.81-1.07,8.68-1.87-.59,9.38,2.84,18.71,9.44,25.22,6.48,6.39,15.19,9.4,23.76,8.67.76-.06,1.51-.16,2.26-.29,2.81-.45,5.59-1.32,8.24-2.62.3-.14.6-.29.9-.45.54-.29.76-.98.48-1.55-.06-.12-.13-.22-.22-.31-.33-.32-.84-.42-1.27-.19-.23.12-.46.24-.69.35-2.64,1.31-5.42,2.16-8.23,2.58-.74.1-1.48.18-2.22.23-7.77.51-15.61-2.29-21.49-8.09-6.31-6.23-9.52-15.23-8.71-24.21,3.22-1.02,6.38-2.28,9.48-3.77-2.39,7.49-.47,15.99,5.15,21.53,6.13,6.04,15.3,7.42,22.81,3.42.54-.29.75-.98.47-1.55-.27-.55-.94-.78-1.49-.49-6.67,3.55-14.82,2.33-20.27-3.05-5.61-5.54-7.1-14.42-3.61-21.6.01-.02,0-.04.01-.06.08-.19.12-.4.09-.62-.01-.04-.03-.07-.04-.11-.02-.08-.02-.17-.06-.25-.05-.1-.12-.17-.19-.25-.02-.02-.02-.04-.03-.06,0-.01-.03-.01-.04-.02-.02-.02-.05-.04-.07-.06-.05-.04-.1-.08-.16-.11-.03-.02-.06-.01-.08-.03-.07-.02-.14-.04-.21-.05-.07-.02-.14-.03-.21-.03s-.13.01-.2.02c-.08.02-.15.04-.22.07-.03.01-.06.01-.08.02-27.05,14.31-60.01,9.34-82.02-12.37-22.75-22.43-28.76-58.37-14.62-87.39.23-.46.12-1.01-.22-1.35-.08-.07-.17-.14-.27-.19-.54-.29-1.21-.06-1.49.51-.29.61-.53,1.25-.81,1.87-.3-.12-.63-.15-.92.02-6.74,3.98-15.37,2.89-20.98-2.65-5.45-5.37-7.04-13.75-3.96-20.84.25-.58,0-1.26-.55-1.52-.56-.26-1.22,0-1.47.57-3.47,7.98-1.68,17.41,4.45,23.46,5.96,5.87,14.9,7.23,22.26,3.63-1.42,3.45-2.55,6.98-3.44,10.56-.11-.01-.21-.03-.32-.01-8.81,1.55-17.93-1.34-24.41-7.73-8.76-8.63-11.33-22.12-6.4-33.55.2-.46.09-.98-.25-1.3-.08-.09-.19-.17-.31-.22-.56-.26-1.21,0-1.46.58-5.31,12.32-2.55,26.85,6.89,36.16,6.82,6.72,16.37,9.82,25.65,8.4-.65,3.03-1.07,6.09-1.37,9.16-11.12.9-22.13-3.14-30.2-11.1-12.07-11.91-15.61-30.49-8.8-46.25.2-.45.09-.97-.25-1.3-.08-.09-.19-.16-.31-.21-.55-.26-1.21,0-1.46.57-7.19,16.65-3.46,36.28,9.3,48.86,8.42,8.31,19.88,12.56,31.49,11.73-.2,2.97-.2,5.95-.07,8.91-13.75.81-27.34-4.35-37.33-14.2-15.41-15.19-19.91-38.87-11.2-58.93.19-.46.08-.98-.25-1.31-.09-.08-.19-.16-.31-.21-.56-.26-1.21,0-1.46.57-9.09,20.96-4.39,45.69,11.69,61.55,10.43,10.29,24.63,15.67,38.99,14.83.21,2.97.59,5.93,1.13,8.85-16.95,1.18-33.7-5.07-46.03-17.23-8.8-8.68-14.67-19.65-17.32-31.38v8.03c3.26,9.3,8.58,17.9,15.8,25.01,12.85,12.68,30.34,19.18,48.02,17.85.63,2.94,1.4,5.84,2.35,8.69-6.91.7-13.79.35-20.46-.97-.01-.03-.01-.06-.03-.08-.08-.08-.18-.15-.29-.2-.32-.16-.66-.13-.95.02-3.14-.68-6.23-1.59-9.24-2.71-.03-.03-.03-.09-.07-.12-.09-.09-.19-.16-.31-.22-.22-.1-.44-.1-.66-.05-3.02-1.17-5.97-2.54-8.82-4.13-.03-.04-.03-.09-.07-.12-.09-.09-.19-.17-.31-.22-.11-.05-.21-.06-.32-.07-5.3-3.04-10.28-6.78-14.77-11.2-3.75-3.7-7.05-7.75-9.87-12.07v3.96c2.48,3.46,5.27,6.73,8.35,9.77,4.49,4.43,9.45,8.19,14.74,11.27-11.88,29.22-5.08,63.36,17.16,85.29,22.21,21.9,55.44,27.26,82.99,13.5,3,4.92,6.54,9.53,10.63,13.7h3.21c-.26-.24-.52-.49-.77-.74-14.98-14.76-23-35.37-22.19-56.73,2.79.89,5.63,1.56,8.5,2.1-.2,18.13,6.91,35.65,19.61,48.17,2.73,2.7,5.66,5.1,8.74,7.2h4.21c-4.07-2.44-7.91-5.41-11.42-8.87-12.16-11.99-19.01-28.72-18.92-46.08,2.85.44,5.72.67,8.61.77.12,14.64,5.97,28.76,16.21,38.87,13.49,13.3,32.57,17.98,50,12.97.77-.21,1.54-.45,2.3-.71,2.57-.87,5.09-1.96,7.55-3.26.26-.13.44-.37.53-.63.11-.29.1-.62-.05-.92Zm-135.65-80.42c3,4.7,6.49,9.12,10.53,13.1,3.77,3.72,7.88,6.92,12.21,9.68-6.21,2.28-13.25.82-18.1-3.96-4.93-4.86-6.66-12.21-4.64-18.82Zm-7.53-14.75l-.09-.06c.09-.01.19-.02.28-.03,1.58,4.28,3.52,8.43,5.83,12.38-3.19,7.86-1.37,17.04,4.62,22.94,5.89,5.81,14.66,7.28,22,3.78,3.42,2,6.96,3.69,10.6,5.09-.01.01-.03.01-.04.02-14.27,9.04-27.22,8.22-38.48-2.45-9.94-9.41-11.82-26.34-4.51-40.28.24-.47.14-1.04-.21-1.39Zm-9.62.3c2.67.07,5.37-.01,8.06-.24-.06.07-.13.14-.18.23-7.91,15.1-5.78,32.79,4.96,43.07,11.91,11.29,26.13,12.23,41.13,2.72.48-.3.64-.91.42-1.43.12.04.23.09.35.12-.17,3.65-.09,7.27.23,10.85-.3-.15-.64-.17-.96,0-16.15,8.39-35.08,6.06-47.11-5.8-13-12.83-15.85-33.12-6.93-49.35.03-.05.01-.11.03-.16Zm-11.7-1.3c3.06.6,6.17,1.02,9.3,1.21-8.85,17-5.73,37.94,7.78,51.27,12.7,12.52,32.64,15.01,49.62,6.19.07-.03.11-.09.17-.13.35,3.05.88,6.06,1.57,9.02-18.87,10.01-41.88,6.54-57.27-8.64-15.49-15.27-19.9-38.82-11.17-58.92Zm76.57,88.36c-26.68,13.21-58.8,7.99-80.29-13.19-21.51-21.22-28.13-54.21-16.72-82.51,2.53,1.37,5.15,2.58,7.81,3.64-9.9,24.85-4.05,53.78,14.84,72.4,18.83,18.58,47.02,23.22,70.44,11.75,1.16,2.71,2.46,5.35,3.92,7.91Zm-7.59-18.53c.77,2.9,1.72,5.73,2.8,8.51-22.61,11.11-49.85,6.64-68.05-11.3-18.24-18-23.88-45.95-14.28-69.95,2.72.99,5.5,1.82,8.32,2.46-8.82,20.89-4.18,45.21,11.87,61.04,15.95,15.73,39.72,19.4,59.34,9.24Z"/><path class="cls-1" d="m135.28,471.93c19.38,19.12,48.4,23.49,72.2,10.89.54-.29.76-.98.48-1.54-.28-.56-.94-.79-1.49-.5-22.96,12.16-50.96,7.94-69.66-10.51-19.32-19.05-24.44-49.58-12.45-74.23.23-.46.12-1.01-.23-1.35-.08-.08-.16-.14-.26-.19-.55-.29-1.21-.06-1.49.51-12.43,25.55-7.13,57.18,12.9,76.93Z"/><path class="cls-1" d="m142.71,463.82c16.08,15.86,40.13,19.48,59.84,9,.54-.29.76-.98.48-1.55-.28-.56-.95-.79-1.49-.5-18.87,10.03-41.9,6.57-57.31-8.62-15.89-15.67-20.1-40.79-10.23-61.07.23-.46.12-1.01-.23-1.35-.08-.08-.16-.14-.26-.19-.55-.29-1.21-.06-1.49.51-10.3,21.18-5.91,47.41,10.69,63.77Z"/><path class="cls-1" d="m150.15,455.7c12.75,12.58,31.84,15.45,47.5,7.16.54-.29.76-.98.48-1.54-.28-.56-.94-.79-1.49-.5-14.82,7.85-32.89,5.13-44.97-6.78-12.47-12.3-15.77-32-8.02-47.92.23-.46.12-1.01-.23-1.35-.08-.08-.16-.14-.26-.19-.55-.29-1.21-.06-1.49.51-8.18,16.81-4.7,37.63,8.47,50.62Z"/><path class="cls-1" d="m157.59,447.58c9.44,9.31,23.57,11.44,35.16,5.31.54-.29.76-.98.48-1.55-.28-.57-.95-.79-1.49-.5-10.76,5.69-23.87,3.71-32.63-4.93-9.19-9.06-11.53-23.03-5.82-34.75.23-.46.12-1.01-.23-1.35-.08-.08-.16-.14-.26-.19-.55-.29-1.21-.06-1.49.51-6.15,12.64-3.63,27.69,6.27,37.45Z"/><path class="cls-1" d="m165.03,439.46c6.13,6.05,15.3,7.42,22.81,3.42.54-.29.76-.98.48-1.55-.28-.56-.95-.79-1.49-.5-6.67,3.55-14.82,2.33-20.27-3.05s-7.1-14.42-3.61-21.6c.23-.46.12-1.01-.23-1.35-.08-.08-.16-.14-.26-.19-.55-.29-1.21-.06-1.49.51-3.93,8.08-2.25,18.07,4.06,24.3Z"/><path class="cls-1" d="m727.46,429.82c-4.49,4.42-9.47,8.16-14.77,11.2-.11,0-.21.02-.32.07-.12.05-.22.13-.31.22-.04.03-.04.08-.07.12-2.85,1.59-5.8,2.96-8.82,4.13-.22-.05-.44-.05-.66.05-.12.06-.22.13-.31.22-.04.03-.04.09-.07.12-3.02,1.12-6.1,2.03-9.24,2.71-.29-.15-.64-.18-.95-.02-.11.05-.21.12-.29.2-.02.02-.02.05-.04.08-6.66,1.32-13.54,1.67-20.45.97.95-2.85,1.72-5.75,2.35-8.69,17.67,1.33,35.17-5.17,48.02-17.85,19.39-19.11,25.07-48.95,14.14-74.25-.25-.57-.91-.83-1.46-.57-.12.05-.22.12-.31.21-.33.33-.45.85-.25,1.3,10.54,24.41,5.06,53.2-13.64,71.65-12.33,12.16-29.08,18.41-46.03,17.23.54-2.92.92-5.88,1.13-8.85,14.36.84,28.56-4.54,38.99-14.83,16.08-15.86,20.78-40.59,11.69-61.55-.25-.57-.9-.83-1.46-.57-.12.05-.22.13-.31.21-.33.33-.44.85-.25,1.31,8.71,20.06,4.2,43.74-11.2,58.93-9.99,9.85-23.58,15.01-37.33,14.2.13-2.96.13-5.94-.08-8.91,11.62.83,23.08-3.42,31.5-11.73,12.76-12.58,16.49-32.21,9.3-48.86-.25-.57-.91-.83-1.47-.57-.11.05-.22.12-.31.21-.33.33-.44.85-.24,1.3,6.81,15.76,3.27,34.34-8.8,46.25-8.07,7.96-19.08,12-30.2,11.1-.3-3.07-.72-6.13-1.37-9.16,9.28,1.42,18.83-1.68,25.65-8.4,5.8-5.72,9.08-13.41,9.51-21.35h0c.01-.16.02-.31.02-.46.06-1.47.03-2.95-.11-4.43-.02-.23-.05-.46-.08-.69h0c-.27-2.38-.79-4.71-1.59-7.01t0-.02c-.13-.37-.26-.72-.41-1.08v-.02c-.14-.37-.29-.74-.45-1.1-.14-.33-.41-.55-.72-.64-.11-.03-.21-.04-.32-.04-.14,0-.29.03-.42.1-.06.02-.11.05-.16.09-.06.04-.11.08-.15.13-.06.06-.12.12-.16.19v.02c-.21.32-.25.71-.09,1.09.03.08.07.14.1.22v.02c.1.24.2.46.3.71v.02c.24.62.46,1.25.66,1.88v.02c.14.43.27.84.38,1.27,0,.01.01.02.01.02.37,1.4.64,2.81.81,4.23h0c.04.36.08.7.11,1.05-.01.01,0,.01,0,.02.75,8.82-2.34,17.76-8.77,24.09-6.48,6.39-15.6,9.28-24.41,7.73-.11-.02-.21,0-.32.01-.89-3.58-2.02-7.11-3.44-10.56,7.36,3.6,16.3,2.24,22.26-3.63,3.58-3.53,5.67-8.21,6.11-13.08.02-.21.04-.41.04-.63h0c.12-1.72.01-3.45-.31-5.16h0c-.03-.19-.06-.36-.1-.54-.24-1.14-.58-2.27-1.02-3.38-.04-.11-.08-.23-.14-.34-.04-.11-.08-.22-.13-.33-.25-.58-.91-.83-1.47-.57-.55.26-.8.94-.55,1.52.34.79.63,1.59.85,2.4.04.12.07.23.1.35-.01.01,0,.01,0,.01,1.66,6.41-.15,13.39-4.91,18.08-5.61,5.54-14.24,6.63-20.98,2.65-.29-.17-.62-.14-.92-.02-.28-.62-.52-1.26-.82-1.87-.27-.57-.94-.8-1.48-.51-.1.05-.19.12-.27.19-.34.34-.45.89-.22,1.35,14.14,29.02,8.13,64.96-14.62,87.39-22.02,21.71-54.97,26.68-82.02,12.37-.02-.01-.05-.01-.08-.02-.07-.03-.15-.05-.22-.07-.07-.01-.13-.02-.2-.02s-.14.01-.21.03c-.07.01-.14.03-.21.05-.03.02-.05.01-.08.03-.06.03-.11.07-.16.11-.02.02-.05.04-.07.06-.01.01-.03.01-.04.02-.01.02-.01.04-.03.06-.07.08-.14.15-.19.25-.04.08-.05.17-.07.25-.01.04-.02.07-.03.11-.03.22.01.43.09.62.01.02,0,.04.01.06,3.49,7.18,2,16.06-3.61,21.6-5.46,5.38-13.6,6.6-20.27,3.05-.55-.29-1.22-.06-1.49.49-.28.57-.07,1.26.47,1.55,7.51,4,16.68,2.62,22.81-3.42,5.62-5.54,7.54-14.04,5.15-21.53,3.1,1.49,6.26,2.75,9.48,3.77.81,8.98-2.4,17.98-8.71,24.21-7.3,7.2-17.63,9.78-27.1,7.14t-.01-.01c-.25-.07-.5-.14-.74-.22-1.63-.5-3.23-1.16-4.78-1.98-.43-.23-.94-.13-1.27.19-.09.09-.16.19-.22.31-.28.57-.06,1.26.48,1.55,1.43.76,2.9,1.39,4.4,1.89.7.24,1.41.46,2.13.64,10.04,2.59,20.91-.23,28.63-7.84,6.6-6.51,10.03-15.84,9.44-25.22,2.87.8,5.76,1.43,8.68,1.87.05,11.24-4.34,22.06-12.2,29.81-10.24,10.1-24.8,13.59-38.03,9.61-.71-.21-1.42-.44-2.13-.7-1.63-.6-3.23-1.31-4.8-2.14-.43-.22-.94-.13-1.27.19-.09.09-.16.2-.22.32-.28.56-.06,1.25.48,1.54,1.55.82,3.13,1.53,4.74,2.14.7.26,1.42.51,2.14.74,14.1,4.4,29.69.75,40.62-10.04,8.23-8.11,12.85-19.42,12.87-31.19,2.85.33,5.71.52,8.56.51-.13,13.99-5.73,27.47-15.52,37.13-13.78,13.59-33.67,17.79-51.23,11.33-.72-.26-1.43-.54-2.14-.85-1.33-.55-2.65-1.17-3.94-1.86-.43-.22-.93-.13-1.27.19-.08.09-.16.19-.22.31-.28.57-.06,1.26.48,1.55,1.18.62,2.37,1.2,3.57,1.72.71.31,1.42.6,2.14.88,18.49,7.08,39.57,2.76,54.13-11.6,10.25-10.11,16.1-24.23,16.22-38.87,2.89-.1,5.76-.33,8.61-.77.09,17.36-6.76,34.09-18.92,46.08-3.51,3.46-7.35,6.43-11.42,8.87h4.21c3.08-2.1,6.01-4.5,8.74-7.2,12.7-12.52,19.8-30.04,19.61-48.17,2.87-.54,5.71-1.21,8.5-2.1.81,21.36-7.21,41.97-22.19,56.73-.25.25-.51.5-.77.74h3.21c4.09-4.17,7.63-8.78,10.63-13.7,27.54,13.76,60.78,8.4,82.99-13.5,22.24-21.93,29.04-56.07,17.16-85.29,5.29-3.08,10.25-6.84,14.74-11.27,5.4-5.33,9.9-11.37,13.43-17.88v-4.92c-3.66,7.77-8.67,14.95-14.95,21.14Zm-75,50.24c4.04-3.98,7.53-8.4,10.53-13.1,2.02,6.61.29,13.96-4.64,18.82-4.85,4.78-11.89,6.24-18.1,3.96,4.33-2.76,8.44-5.96,12.21-9.68Zm-14.59,11.16c7.35,3.5,16.12,2.03,22.01-3.78,5.99-5.9,7.81-15.08,4.62-22.94,2.31-3.95,4.25-8.1,5.83-12.38.09.01.19.02.28.03-.03.02-.06.04-.09.06-.35.35-.45.92-.21,1.39,7.31,13.94,5.43,30.87-4.51,40.28-11.26,10.67-24.21,11.49-38.48,2.45,0,0-.03,0-.04-.02,3.64-1.4,7.18-3.09,10.59-5.09Zm-12.47,5.76c.12-.03.23-.08.35-.12-.22.52-.06,1.13.42,1.43,15,9.51,29.22,8.57,41.13-2.72,10.74-10.28,12.87-27.97,4.96-43.07-.05-.09-.12-.16-.18-.23,2.69.23,5.39.31,8.06.24.02.05,0,.11.03.16,8.92,16.23,6.07,36.52-6.93,49.35-12.03,11.86-30.96,14.19-47.11,5.8-.32-.16-.66-.14-.96,0,.32-3.58.4-7.2.23-10.85Zm-.43,12.77c.06.04.1.1.17.13,16.98,8.82,36.92,6.33,49.62-6.19,13.51-13.33,16.63-34.27,7.78-51.27,3.13-.19,6.24-.61,9.3-1.21,8.73,20.1,4.32,43.65-11.17,58.92-15.39,15.18-38.4,18.65-57.27,8.64.69-2.96,1.22-5.97,1.57-9.02Zm-2.11,11.29c19.62,10.16,43.39,6.49,59.34-9.24,16.05-15.83,20.69-40.15,11.87-61.04,2.82-.64,5.59-1.47,8.32-2.46,9.6,24,3.96,51.95-14.28,69.95-18.2,17.94-45.44,22.41-68.06,11.3,1.09-2.78,2.04-5.61,2.81-8.51Zm72.69,5.34c-21.48,21.18-53.6,26.4-80.28,13.19,1.46-2.56,2.76-5.2,3.92-7.91,23.42,11.47,51.61,6.83,70.44-11.75,18.89-18.62,24.74-47.55,14.84-72.4,2.66-1.06,5.28-2.27,7.81-3.64,11.41,28.3,4.79,61.29-16.73,82.51Z"/><path class="cls-1" d="m645.02,471.93c-19.38,19.12-48.4,23.49-72.2,10.89-.54-.29-.76-.98-.48-1.54.28-.56.94-.79,1.49-.5,22.96,12.16,50.96,7.94,69.66-10.51,19.32-19.05,24.44-49.58,12.45-74.23-.23-.46-.12-1.01.23-1.35.08-.08.16-.14.26-.19.55-.29,1.21-.06,1.49.51,12.43,25.55,7.13,57.18-12.9,76.93Z"/><path class="cls-1" d="m637.58,463.82c-16.08,15.86-40.13,19.48-59.84,9-.54-.29-.76-.98-.48-1.55.28-.56.95-.79,1.49-.5,18.87,10.03,41.9,6.57,57.31-8.62,15.89-15.67,20.1-40.79,10.23-61.07-.23-.46-.12-1.01.23-1.35.08-.08.16-.14.26-.19.55-.29,1.21-.06,1.49.51,10.3,21.18,5.91,47.41-10.69,63.77Z"/><path class="cls-1" d="m630.15,455.7c-12.75,12.58-31.84,15.45-47.5,7.16-.54-.29-.76-.98-.48-1.54.28-.56.94-.79,1.49-.5,14.82,7.85,32.89,5.13,44.97-6.78,12.47-12.3,15.77-32,8.02-47.92-.23-.46-.12-1.01.23-1.35.08-.08.16-.14.26-.19.55-.29,1.21-.06,1.49.51,8.18,16.81,4.7,37.63-8.47,50.62Z"/><path class="cls-1" d="m622.7,447.58c-9.44,9.31-23.57,11.44-35.16,5.31-.54-.29-.76-.98-.48-1.55.28-.57.95-.79,1.49-.5,10.76,5.69,23.87,3.71,32.63-4.93,9.19-9.06,11.53-23.03,5.82-34.75-.23-.46-.12-1.01.23-1.35.08-.08.16-.14.26-.19.55-.29,1.21-.06,1.49.51,6.15,12.64,3.63,27.69-6.27,37.45Z"/><path class="cls-1" d="m615.26,439.46c-6.13,6.05-15.3,7.42-22.81,3.42-.54-.29-.76-.98-.48-1.55.28-.56.95-.79,1.49-.5,6.67,3.55,14.82,2.33,20.27-3.05,5.62-5.54,7.1-14.42,3.61-21.6-.23-.46-.12-1.01.23-1.35.08-.08.16-.14.26-.19.55-.29,1.21-.06,1.49.51,3.93,8.08,2.25,18.07-4.06,24.3Z"/><path class="cls-1" d="m544.16,529.16s-.01,0-.01-.01c-.09-.07-.19-.12-.3-.16-.12-.04-.25-.06-.37-.06h-.07c-.43.03-.82.31-.97.76-.14.4-.28.8-.42,1.2-1.01,2.82-2.18,5.54-3.48,8.17-.35.69-.7,1.37-1.07,2.05-1.42,2.65-2.99,5.2-4.7,7.63-.45.64-.92,1.28-1.38,1.91-1.2,1.59-2.45,3.12-3.76,4.59h2.97c1.01-1.2,1.99-2.44,2.93-3.71.47-.64.93-1.28,1.38-1.94,1.7-2.46,3.28-5.05,4.7-7.74.36-.69.72-1.38,1.06-2.09,1.31-2.65,2.47-5.39,3.48-8.23.12-.36.25-.71.37-1.07.17-.48.01-1-.36-1.3Zm-30.88-11.34c-.12-.05-.24-.07-.36-.07-.46,0-.89.29-1.05.77-5.53,16.28-20.43,27.23-37.09,27.23-10.84,0-21.21-4.71-28.64-12.89,1.83-2.4,3.5-4.93,5.05-7.56,5.8,7.22,14.48,11.53,23.59,11.53,13.02,0,24.68-8.55,29.01-21.28.2-.6-.1-1.26-.68-1.47-.12-.04-.24-.06-.36-.06-.46,0-.89.29-1.05.76-4.02,11.82-14.84,19.75-26.92,19.75-8.72,0-17.02-4.23-22.4-11.32,1.66-3.03,3.11-6.21,4.37-9.51,3.25,7.14,10.28,11.93,18.03,11.93,8.46,0,16.02-5.56,18.8-13.82.21-.6-.1-1.26-.68-1.47-.57-.2-1.21.11-1.41.71-2.47,7.34-9.19,12.28-16.71,12.28s-14.72-5.38-16.96-13.07c0-.02-.03-.03-.04-.05-.07-.2-.18-.38-.34-.51-.04-.03-.07-.04-.11-.06-.06-.05-.13-.1-.21-.13-.1-.04-.2-.04-.3-.05-.02,0-.04-.02-.06-.02s-.03.01-.05.01c-.03,0-.05.01-.08.01-.07.01-.13.01-.19.03-.03.01-.05.03-.08.04-.07.03-.13.07-.19.11s-.12.08-.17.13c-.05.05-.09.1-.13.16-.04.06-.09.13-.12.21-.01.02-.03.04-.04.07-7.22,21.25-23.19,37.5-42.82,45.03h5.69c.11-.05.22-.1.33-.15.04.05.08.1.13.15h2.98c-.34-.38-.67-.76-1-1.15,2.61-1.35,5.12-2.9,7.55-4.56,1.83,2.04,3.77,3.95,5.82,5.71h3.55c-2.66-2.09-5.17-4.43-7.48-6.98,2.36-1.72,4.6-3.61,6.75-5.6,5.11,5.48,11.25,9.75,17.95,12.58h6.99c-8.79-2.4-16.88-7.26-23.28-14.11,2.07-2.04,4.02-4.21,5.86-6.49,7.83,8.51,18.7,13.4,30.05,13.4,17.6,0,33.34-11.56,39.18-28.76.2-.6-.1-1.25-.68-1.46Zm10.17,3.71c-.12-.05-.24-.07-.36-.07-.46,0-.89.3-1.05.77-5.58,16.5-18.73,28.71-34.56,33.01h7c13.61-5.74,24.6-17.31,29.65-32.25.2-.6-.1-1.25-.68-1.46Zm10.21,3.73c-.12-.05-.25-.07-.37-.07-.45,0-.88.3-1.04.77-4.04,11.91-11.32,21.97-20.6,29.28h3.55c8.56-7.39,15.28-17.14,19.14-28.52.2-.6-.1-1.25-.68-1.46Zm-175.96,29.98h5.67c-20.69-7.95-37.4-25.62-43.96-48.26-.14-.5-.58-.82-1.06-.82-.1,0-.21.01-.31.05-.59.18-.92.82-.75,1.43.2.66.45,1.29.65,1.94-.29.13-.55.34-.65.68-2.23,7.69-9.21,13.07-16.96,13.07s-14.24-4.94-16.71-12.28c-.2-.6-.84-.91-1.41-.71-.58.21-.89.87-.68,1.47,2.78,8.26,10.34,13.82,18.8,13.82s15.6-5.41,18.54-13.28c1.27,3.52,2.79,6.88,4.52,10.12-.08.06-.17.12-.23.21-5.36,7.42-13.89,11.85-22.83,11.85-12.08,0-22.9-7.93-26.92-19.75-.16-.47-.59-.76-1.05-.76-.12,0-.24.02-.36.06-.58.21-.88.87-.68,1.47,4.33,12.73,15.99,21.28,29.01,21.28,9.41,0,18.38-4.58,24.17-12.25,1.54,2.67,3.27,5.19,5.09,7.63-7.46,8.6-18.13,13.54-29.26,13.54-16.66,0-31.56-10.95-37.09-27.23-.16-.48-.59-.77-1.04-.77-.13,0-.25.02-.37.07-.58.21-.88.86-.68,1.46,5.84,17.2,21.58,28.76,39.18,28.76,11.63,0,22.76-5.11,30.63-14,1.83,2.29,3.8,4.45,5.86,6.5-6.49,7.17-14.81,12.24-23.86,14.7h7.02c6.93-2.92,13.25-7.37,18.45-13.12,2.14,2,4.37,3.87,6.71,5.61-2.45,2.76-5.11,5.27-7.95,7.51h3.55c2.21-1.9,4.3-3.97,6.25-6.2,2.41,1.68,4.89,3.24,7.48,4.62-.45.53-.9,1.06-1.37,1.58h4.16c-.2-.22-.49-.35-.79-.35-.03,0-.07.01-.11.01.06-.07.13-.14.19-.21.38.19.77.37,1.15.55Zm-104.63-33.01c-.16-.47-.59-.77-1.04-.77-.13,0-.25.02-.37.07-.58.21-.88.86-.68,1.46,5.05,14.94,16.04,26.51,29.65,32.25h7.01c-15.84-4.3-28.99-16.5-34.57-33.01Zm-19.54,9.84c-.75.13-1.5.23-2.26.29,1.07,2.93,2.31,5.76,3.71,8.48.76-.12,1.52-.27,2.27-.44-1.39-2.67-2.64-5.45-3.72-8.33Zm4.86,10.41c-.75.19-1.52.36-2.28.5,1.53,2.77,3.21,5.43,5.04,7.95.77-.2,1.53-.42,2.29-.67-1.83-2.47-3.52-5.06-5.05-7.78Zm-4.86-10.41c-.75.13-1.5.23-2.26.29,1.07,2.93,2.31,5.76,3.71,8.48.76-.12,1.52-.27,2.27-.44-1.39-2.67-2.64-5.45-3.72-8.33Zm4.86,10.41c-.75.19-1.52.36-2.28.5,1.53,2.77,3.21,5.43,5.04,7.95.77-.2,1.53-.42,2.29-.67-1.83-2.47-3.52-5.06-5.05-7.78Zm4.47-16.52c-.16-.47-.58-.77-1.04-.77-.12,0-.25.02-.37.07-.58.21-.88.86-.68,1.46.07.19.13.39.2.58.25.72.52,1.44.8,2.15,1.07,2.78,2.32,5.45,3.73,8,.37.67.75,1.33,1.14,1.99,1.55,2.58,3.25,5.03,5.11,7.34.41.51.83,1.02,1.25,1.52,2.14,2.5,4.45,4.82,6.91,6.94h3.55c-9.28-7.31-16.55-17.37-20.6-29.28Zm-6.75,17.02c1.53,2.77,3.21,5.43,5.04,7.95.77-.2,1.53-.42,2.29-.67-1.83-2.47-3.52-5.06-5.05-7.78-.75.19-1.52.36-2.28.5Zm-2.58-10.91c-.75.13-1.5.23-2.26.29,1.07,2.93,2.31,5.76,3.71,8.48.76-.12,1.52-.27,2.27-.44-1.39-2.67-2.64-5.45-3.72-8.33Zm4.86,10.41c-.75.19-1.52.36-2.28.5,1.53,2.77,3.21,5.43,5.04,7.95.77-.2,1.53-.42,2.29-.67-1.83-2.47-3.52-5.06-5.05-7.78Zm-4.86-10.41c-.75.13-1.5.23-2.26.29,1.07,2.93,2.31,5.76,3.71,8.48.76-.12,1.52-.27,2.27-.44-1.39-2.67-2.64-5.45-3.72-8.33Zm11.39,20.12c-.5-.63-1-1.28-1.48-1.93-1.83-2.47-3.52-5.06-5.05-7.78-.39-.68-.77-1.38-1.13-2.08h0c-1.39-2.67-2.64-5.45-3.72-8.33-.28-.73-.54-1.45-.79-2.19-.03-.06-.05-.13-.07-.19-.16-.47-.58-.76-1.04-.76-.12,0-.25.02-.37.06-.46.17-.75.63-.74,1.12.01.12.03.23.07.35.22.64.44,1.27.68,1.9,1.07,2.93,2.31,5.76,3.71,8.48.36.72.74,1.44,1.13,2.14,1.53,2.77,3.21,5.43,5.04,7.95.48.67.97,1.32,1.47,1.97.62.79,1.25,1.58,1.89,2.34h2.97c-.88-.99-1.73-2-2.56-3.05Z"/><path class="cls-1" d="m388.06,550.95c26.75,0,50.68-17.57,59.56-43.71.2-.6-.1-1.25-.68-1.46-.57-.21-1.21.1-1.41.7-8.57,25.23-31.66,42.18-57.47,42.18s-50.64-18.46-58.32-44.9c-.14-.5-.58-.82-1.06-.82-.11,0-.21.01-.32.05-.59.18-.92.82-.74,1.43,7.96,27.4,32.81,46.54,60.44,46.54Z"/><path class="cls-1" d="m388.06,539.75c22.19,0,42.02-14.57,49.35-36.25.2-.6-.1-1.25-.68-1.46-.58-.2-1.21.11-1.41.7-7.02,20.76-26.01,34.71-47.26,34.71s-41.66-15.19-47.98-36.95c-.14-.5-.58-.82-1.06-.82-.11,0-.21.01-.32.05-.59.18-.92.82-.74,1.43,6.6,22.72,27.2,38.58,50.1,38.58Z"/><path class="cls-1" d="m388.06,528.56c17.6,0,33.34-11.56,39.18-28.76.2-.6-.1-1.26-.68-1.46-.57-.21-1.21.1-1.41.7-5.53,16.29-20.43,27.23-37.09,27.23s-32.68-11.92-37.64-29c-.14-.5-.58-.82-1.06-.82-.11,0-.21.02-.32.05-.59.18-.92.82-.74,1.43,5.24,18.03,21.59,30.63,39.76,30.63Z"/><path class="cls-1" d="m388.06,517.34c13.02,0,24.68-8.55,29.01-21.28.2-.6-.1-1.26-.67-1.47-.58-.21-1.21.1-1.41.7-4.02,11.81-14.84,19.75-26.92,19.75-12.68,0-23.65-8.45-27.3-21.03-.14-.5-.58-.82-1.06-.82-.11,0-.21.01-.32.05-.59.18-.92.82-.74,1.43,3.94,13.55,15.76,22.66,29.42,22.66Z"/><path class="cls-1" d="m388.06,506.15c8.46,0,16.02-5.55,18.81-13.82.2-.6-.1-1.25-.68-1.46-.57-.2-1.21.11-1.41.71-2.47,7.34-9.19,12.28-16.71,12.28s-14.72-5.38-16.96-13.07c-.14-.5-.58-.82-1.06-.82-.11,0-.21.02-.32.05-.59.18-.92.82-.74,1.43,2.52,8.66,10.37,14.71,19.08,14.71Z"/><path class="cls-2" d="m113.54,313.93v-27.96l.87-3.94h5.34v31.9h-6.22Zm10.98-11.6l-.58-4.76c1.32-.12,2.52-.38,3.6-.78,1.08-.41,2.03-1.03,2.85-1.88.81-.85,1.47-2.03,1.98-3.54.5-1.51.83-3.4.99-5.68l.87-11.19h-20.56v-4.76h27.25l-.23,4.18-.81,10.32c-.12,2.78-.52,5.28-1.22,7.48-.7,2.2-1.68,4.09-2.93,5.66-1.26,1.57-2.82,2.78-4.68,3.62-1.86.85-4.03,1.3-6.51,1.33Z"/><path class="cls-2" d="m167.27,302.33v-21.46c0-4.25-1.74-6.38-5.23-6.38h-15.16v-4.76h16.73c2.01,0,3.76.41,5.23,1.22,1.47.81,2.61,2.06,3.43,3.74.81,1.68,1.22,3.84,1.22,6.47v21.17h-6.22Zm-20.39,0v-30.1h6.22v30.1h-6.22Z"/><path class="cls-2" d="m183.89,302.91l-4.24-33.18h5.93l3.37,27.9c2.98-.19,5.55-.72,7.7-1.59s3.91-2.09,5.29-3.65c1.37-1.57,2.39-3.47,3.05-5.71.66-2.24.99-4.81.99-7.71l-.12-9.22h6.22l.06,8.93c.04,5.41-.96,9.92-2.99,13.51-2.03,3.6-5.14,6.29-9.32,8.09-4.18,1.8-9.49,2.68-15.92,2.64Zm3.14-12.82l-1.45-4.12c1.94-.73,3.44-1.59,4.5-2.58,1.06-.99,1.82-2.27,2.27-3.86.44-1.58.69-3.63.73-6.15v-3.6h5.93l-.06,3.48c-.04,2.86-.43,5.36-1.16,7.48-.74,2.13-1.97,3.94-3.69,5.45-1.72,1.51-4.08,2.8-7.06,3.89Z"/><path class="cls-2" d="m217.93,302.33l4.18-22.45-4.53-10.15h6.45l4.01,10.38-3.89,22.21h-6.22Zm11.62.06l.64-4.7c3.06.66,5.49.6,7.29-.17,1.8-.77,3.1-2.2,3.89-4.29.79-2.09,1.15-4.74,1.07-7.95-.04-2.75-.38-4.92-1.02-6.53-.64-1.6-1.51-2.75-2.61-3.45-1.1-.7-2.39-1.04-3.86-1.04-1.36,0-2.52.28-3.49.84-.97.56-1.74,1.33-2.32,2.29-.58.97-.99,2.05-1.22,3.25l-1.57-2.96c.7-2.94,1.96-5.07,3.78-6.41,1.82-1.33,3.79-2,5.93-2,1.82,0,3.48.3,4.97.9,1.49.6,2.78,1.55,3.86,2.84,1.08,1.3,1.93,2.96,2.53,4.99.6,2.03.92,4.46.96,7.28.08,4.37-.61,7.98-2.06,10.85-1.45,2.86-3.59,4.85-6.42,5.97-2.83,1.12-6.27,1.22-10.34.29Z"/><path class="cls-2" d="m254.18,302.33v-15.78l.87-3.89h5.34v19.66h-6.22Zm19.69,0v-22.04c0-2.17-.47-3.67-1.42-4.52-.95-.85-2.22-1.28-3.8-1.28h-14.29v-4.76h15.86c1.94,0,3.64.36,5.11,1.07,1.47.72,2.63,1.87,3.49,3.45.85,1.59,1.28,3.69,1.28,6.32v21.75h-6.22Z"/><path class="cls-2" d="m296.76,303.2l-.58-4.29c1.55-.15,2.73-.48,3.54-.99.81-.5,1.37-1.2,1.68-2.09.31-.89.46-2.03.46-3.42v-22.68h15.68c1.94,0,3.65.36,5.14,1.07,1.49.72,2.65,1.87,3.49,3.45.83,1.59,1.25,3.69,1.25,6.32v21.75h-6.22v-22.04c0-2.17-.46-3.67-1.39-4.52-.93-.85-2.21-1.28-3.83-1.28h-7.9v17.23c0,2.55-.4,4.64-1.19,6.26-.79,1.62-2.02,2.84-3.69,3.65-1.67.81-3.81,1.33-6.45,1.57Z"/><path class="cls-2" d="m363.04,302.33h-6.62l-12.2-18.5-5.75,18.5h-5.93l6.39-19.95,1.63-4.12-5.34-8.53h6.33l4.88,7.83,4.88,7.31,1.45-5.05,2.96-10.09h5.98l-6.74,20.53,8.07,12.06Z"/><path class="cls-2" d="m378.78,274.49v-13.75h5.63v13.75h-5.63Zm6.62,27.84l10.86-27.84h-17.49v-4.76h23.7v5.16l-10.86,27.43h-6.22Z"/><path class="cls-2" d="m408.88,290.15v-13.63l-.7-6.79h6.16l.76,6.79v8.82l-.06,3.65-6.16,1.16Z"/><path class="cls-2" d="m442.57,302.33v-21.46c0-4.25-1.74-6.38-5.23-6.38h-15.16v-4.76h16.73c2.01,0,3.76.41,5.23,1.22,1.47.81,2.61,2.06,3.43,3.74.81,1.68,1.22,3.84,1.22,6.47v21.17h-6.22Zm-20.39,0v-30.1h6.22v30.1h-6.22Z"/><path class="cls-2" d="m454.07,303.2l-.58-4.29c1.55-.15,2.73-.48,3.54-.99.81-.5,1.37-1.2,1.68-2.09.31-.89.46-2.03.46-3.42v-22.68h15.68c1.94,0,3.65.36,5.14,1.07,1.49.72,2.65,1.87,3.49,3.45.83,1.59,1.25,3.69,1.25,6.32v21.75h-6.22v-22.04c0-2.17-.46-3.67-1.39-4.52-.93-.85-2.21-1.28-3.83-1.28h-7.9v17.23c0,2.55-.4,4.64-1.19,6.26-.79,1.62-2.02,2.84-3.69,3.65-1.67.81-3.81,1.33-6.45,1.57Z"/><path class="cls-2" d="m491.42,302.33v-15.78l.87-3.89h5.34v19.66h-6.22Zm19.69,0v-22.04c0-2.17-.47-3.67-1.42-4.52-.95-.85-2.22-1.28-3.8-1.28h-14.29v-4.76h15.86c1.94,0,3.64.36,5.11,1.07,1.47.72,2.63,1.87,3.49,3.45.85,1.59,1.28,3.69,1.28,6.32v21.75h-6.22Z"/><path class="cls-2" d="m522.85,274.49v-13.75h5.63v13.75h-5.63Zm6.62,27.84l10.86-27.84h-17.49v-4.76h23.7v5.16l-10.86,27.43h-6.22Z"/><path class="cls-2" d="m564.56,290.15v-13.63l-.7-6.79h6.16l.76,6.79v8.82l-.06,3.65-6.16,1.16Z"/><path class="cls-2" d="m591.11,302.33v-21.05c0-1.51.15-2.83.44-3.97.29-1.14.69-2.08,1.19-2.81h-15.68v-4.76h25.91v4.76h-4.36c-.54.97-.89,2.08-1.05,3.33-.16,1.26-.23,2.41-.23,3.45v21.05h-6.22Z"/><path class="cls-2" d="m607.96,302.33v-4.76h8.37c1.9,0,3.45-.39,4.65-1.16,1.2-.77,2.09-1.88,2.67-3.31.58-1.43.87-3.13.87-5.1v-3.94c0-2.01-.29-3.73-.87-5.16-.58-1.43-1.47-2.52-2.67-3.28-1.2-.75-2.75-1.13-4.65-1.13h-8.37v-4.76h9.88c2.83,0,5.19.57,7.09,1.71,1.9,1.14,3.34,2.8,4.33,4.99.99,2.19,1.48,4.82,1.48,7.92v3.36c0,3.06-.49,5.67-1.48,7.86-.99,2.18-2.43,3.86-4.33,5.02-1.9,1.16-4.26,1.74-7.09,1.74h-9.88Z"/><path class="cls-2" d="m652.28,302.33v-22.04c0-2.17-.47-3.67-1.42-4.52-.95-.85-2.22-1.28-3.8-1.28h-10.92v-4.76h12.49c1.94,0,3.64.36,5.11,1.07,1.47.72,2.63,1.87,3.49,3.45.85,1.59,1.28,3.69,1.28,6.32v21.75h-6.22Zm-16.15,0v-4.76h26.37v4.76h-26.37Z"/><path class="cls-2" d="m246.07,383.53v-33.64c0-2.17-.48-3.67-1.42-4.52-.95-.85-2.22-1.28-3.81-1.28h-11.62v-4.76h13.19c1.94,0,3.64.36,5.11,1.07,1.47.72,2.63,1.87,3.49,3.45.85,1.59,1.28,3.69,1.28,6.32v33.35h-6.22Z"/><path class="cls-2" d="m262.45,372.51l-3.37-28.42,5.87-2.96,2.96,25.75c1.63-.12,3.13-.37,4.5-.75,1.37-.39,2.58-.92,3.63-1.59,1.05-.68,1.93-1.55,2.64-2.61.72-1.06,1.25-2.33,1.6-3.8.35-1.47.48-3.19.41-5.16v-1.57c0-1.43-.23-2.69-.7-3.77-.46-1.08-1.13-1.94-2-2.58-.87-.64-1.95-.96-3.22-.96h-15.69l-.58-4.76h16.73c3.64,0,6.45,1.08,8.42,3.25,1.98,2.17,3.02,5.05,3.14,8.64l.06,1.86c.12,3.56-.41,6.54-1.57,8.96-1.16,2.42-2.85,4.37-5.05,5.86-2.21,1.49-4.82,2.59-7.84,3.31-3.02.72-6.33,1.15-9.93,1.3Z"/><path class="cls-2" d="m292.78,371.93l4.18-22.45-4.53-10.15h6.45l4.01,10.38-3.89,22.21h-6.22Zm11.62.06l.64-4.7c3.06.66,5.49.6,7.29-.17,1.8-.77,3.1-2.2,3.89-4.29.79-2.09,1.15-4.74,1.07-7.95-.04-2.75-.38-4.92-1.02-6.53-.64-1.6-1.51-2.75-2.61-3.45-1.1-.7-2.39-1.04-3.86-1.04-1.36,0-2.52.28-3.49.84-.97.56-1.74,1.33-2.32,2.29-.58.97-.99,2.05-1.22,3.25l-1.57-2.96c.7-2.94,1.96-5.07,3.78-6.41,1.82-1.33,3.79-2,5.93-2,1.82,0,3.48.3,4.97.9,1.49.6,2.78,1.55,3.86,2.84,1.08,1.3,1.93,2.96,2.53,4.99.6,2.03.92,4.46.96,7.28.08,4.37-.61,7.98-2.06,10.85-1.45,2.86-3.59,4.85-6.42,5.97-2.83,1.12-6.27,1.22-10.34.29Z"/><path class="cls-2" d="m329.03,371.93v-15.78l.87-3.89h5.34v19.66h-6.22Zm19.69,0v-22.04c0-2.17-.47-3.67-1.42-4.52-.95-.85-2.22-1.28-3.8-1.28h-14.29v-4.76h15.86c1.94,0,3.64.36,5.11,1.07,1.47.72,2.63,1.87,3.49,3.45.85,1.59,1.28,3.69,1.28,6.32v21.75h-6.22Z"/><path class="cls-2" d="m372.07,344.09v-13.75h5.63v13.75h-5.63Zm6.62,27.84l10.86-27.84h-17.49v-4.76h23.7v5.16l-10.86,27.43h-6.22Z"/><path class="cls-2" d="m400.02,373.84l-.87-4.87,11.73-2.26c2.13-.39,3.84-1,5.14-1.86,1.3-.85,2.3-1.96,3.02-3.33.72-1.37,1.23-3.08,1.54-5.13.31-2.05.48-4.49.52-7.31.04-2.82.06-6.07.06-9.74h6.16c0,3.98-.07,7.56-.2,10.73-.14,3.17-.48,5.97-1.02,8.41-.54,2.44-1.39,4.52-2.56,6.26-1.16,1.74-2.76,3.18-4.79,4.32-2.03,1.14-4.64,2.02-7.81,2.64l-10.92,2.15Zm9.12-6.21l-7.32-28.3h6.22l7.03,28.3h-5.93Z"/><path class="cls-2" d="m445.79,371.93v-25.81l-.7-6.79h6.16l.76,6.79v25.81h-6.22Z"/><path class="cls-2" d="m457.7,371.93v-4.76h22.6l1.8,4.76h-24.4Zm19.93,0l-19-32.6h6.33l19,32.6h-6.33Zm-2.15-13.28l-3.49-5.34,5.87-13.98h6.22l-8.6,19.31Z"/><path class="cls-2" d="m510.62,371.93v-21.46c0-4.25-1.74-6.38-5.23-6.38h-15.16v-4.76h16.73c2.01,0,3.76.41,5.23,1.22,1.47.81,2.61,2.06,3.43,3.74.81,1.68,1.22,3.84,1.22,6.47v21.17h-6.22Zm-20.39,0v-30.1h6.22v30.1h-6.22Z"/><path class="cls-2" d="m522.59,344.09v-13.75h5.63v13.75h-5.63Zm6.62,27.84l10.86-27.84h-17.49v-4.76h23.7v5.16l-10.86,27.43h-6.22Z"/></g></svg>