<?xml version="1.0" encoding="UTF-8"?><svg id="Layer_2" xmlns="http://www.w3.org/2000/svg" viewBox="0 0 299.85 363"><defs><style>.cls-1{fill:#524f9a;}</style></defs><g id="Layer_1-2"><path class="cls-1" d="m193.73,363H25.19c-13.89,0-25.19-11.3-25.19-25.19V106.12c0-13.89,11.3-25.19,25.19-25.19h168.54c13.89,0,25.19,11.3,25.19,25.19v150.76c0,2.31,1.88,4.19,4.19,4.19h51.55c2.31,0,4.19-1.88,4.19-4.19V25.19c0-2.31-1.88-4.19-4.19-4.19H106.12c-2.31,0-4.19,1.88-4.19,4.19v36.24h-21V25.19c0-13.89,11.3-25.19,25.19-25.19h168.54c13.89,0,25.19,11.3,25.19,25.19v231.69c0,13.89-11.3,25.19-25.19,25.19h-51.55c-1.43,0-2.83-.12-4.19-.35v56.09c0,13.89-11.3,25.19-25.19,25.19ZM25.19,101.93c-2.31,0-4.19,1.88-4.19,4.19v231.69c0,2.31,1.88,4.19,4.19,4.19h168.54c2.31,0,4.19-1.88,4.19-4.19V106.12c0-2.31-1.88-4.19-4.19-4.19H25.19Z"/></g></svg>